<mxfile host="Electron" modified="2023-08-01T13:44:35.768Z" agent="Mozilla/5.0 (Macintosh; Intel Mac OS X 10_15_7) AppleWebKit/537.36 (KHTML, like Gecko) draw.io/21.6.5 Chrome/114.0.5735.243 Electron/25.3.1 Safari/537.36" etag="1j3NNTOzsRBTic26XVcz" version="21.6.5" type="device">
  <diagram name="Page-1" id="rXbqvgVFvri6JTzRXAZb">
    <mxGraphModel dx="2987" dy="832" grid="1" gridSize="10" guides="1" tooltips="1" connect="1" arrows="1" fold="1" page="1" pageScale="1" pageWidth="1169" pageHeight="827" math="0" shadow="0">
      <root>
        <mxCell id="0" />
        <mxCell id="1" parent="0" />
        <mxCell id="AGWH090YyBmgG37yqdSr-1" value="" style="shape=image;verticalLabelPosition=bottom;labelBackgroundColor=default;verticalAlign=top;aspect=fixed;imageAspect=0;image=data:image/png,iVBORw0KGgoAAAANSUhEUgAAB3IAAAGlCAYAAAAPqrfdAAABX2lDQ1BJQ0MgUHJvZmlsZQAAKJF1kF8rg3EUxz9jIn/iArmQ5kbUrLXtQrmakcjFmsmfG549m422+fVskty4deNK8grkFdiNxDtQauSKJMql2g3rcZ4N28ip0/n07XvO7/wO1LVqSiXtQCqdNUKTY46FxSVH4zNN2GjDg0vTM8ofDM6Ihe9aG4W8eCWuh61Zr4ORldPH9dudrtG9p3x/y19/TTRHYxld6oekT1dGFmxu4eBWVlm8K9xpyFLCBxbHy3xicaTMZyVPOBQQvhLu0BNaVPhe2Bmp0uNVnEpu6l87WNu3xtJzs1J7JHuZYRIHc1LDhPAzzxTjTPzT4yv1BNhAsY3BGnESZGWCXxRFkpjwFGl0XDiFPbglvdatf9+woqluGDmSpx4q2vIt5Pqgfb+iDbzId6bh8lxphvZzWVvBnln1esrckoOGQ9N8m4fGISjemOZ7zjSLx1B/BxeFT+YtZP1HcNYdAAAAVmVYSWZNTQAqAAAACAABh2kABAAAAAEAAAAaAAAAAAADkoYABwAAABIAAABEoAIABAAAAAEAAAdyoAMABAAAAAEAAAGlAAAAAEFTQ0lJAAAAU2NyZWVuc2hvdEaRU3YAAAHXaVRYdFhNTDpjb20uYWRvYmUueG1wAAAAAAA8eDp4bXBtZXRhIHhtbG5zOng9ImFkb2JlOm5zOm1ldGEvIiB4OnhtcHRrPSJYTVAgQ29yZSA2LjAuMCI+CiAgIDxyZGY6UkRGIHhtbG5zOnJkZj0iaHR0cDovL3d3dy53My5vcmcvMTk5OS8wMi8yMi1yZGYtc3ludGF4LW5zIyI+CiAgICAgIDxyZGY6RGVzY3JpcHRpb24gcmRmOmFib3V0PSIiCiAgICAgICAgICAgIHhtbG5zOmV4aWY9Imh0dHA6Ly9ucy5hZG9iZS5jb20vZXhpZi8xLjAvIj4KICAgICAgICAgPGV4aWY6UGl4ZWxZRGltZW5zaW9uPjQyMTwvZXhpZjpQaXhlbFlEaW1lbnNpb24+CiAgICAgICAgIDxleGlmOlBpeGVsWERpbWVuc2lvbj4xOTA2PC9leGlmOlBpeGVsWERpbWVuc2lvbj4KICAgICAgICAgPGV4aWY6VXNlckNvbW1lbnQ+U2NyZWVuc2hvdDwvZXhpZjpVc2VyQ29tbWVudD4KICAgICAgPC9yZGY6RGVzY3JpcHRpb24+CiAgIDwvcmRmOlJERj4KPC94OnhtcG1ldGE+CoWHcTgAAEAASURBVHgB7N0HfFTF2sDhlyQkpFe6ICAqiFjAglJEFEGUJgIWigKK4sUO2K/lA2yIAoq9F6QIiID1ihUQK+KVqygCgkASahohwHfeCWfZkE2ym91NtvzHX7K7Z8+ZM/PMRmbPe2amxq6c3QeEhAACCCCAAAIIIIAAAggggAACCCCAAAIIIIAAAggggAACCCAQMAIRAVMSCoIAAggggAACCCCAAAIIIIAAAggggAACCCCAAAIIIIAAAgggYAQI5PJBQAABBBBAAAEEEEAAAQQQQAABBBBAAAEEEEAAAQQQQAABBAJMgEBugDUIxUEAAQQQQAABBBBAAAEEEEAAAQQQQAABBBBAAAEEEEAAAQQI5PIZQAABBBBAAAEEEEAAAQQQQAABBBBAAAEEEEAAAQQQQAABBAJMIMqd8hTt3Sf5+XlyYP8Bd3ZnHwQQQAABBBBAAIFqEqgRUUNiY+MkqmZkhSWgj1chETsggAACCCCAAAIBI0A/L2CagoIggAACCCCAAAI+FSivn+dWIFeDuKkpqdZFwVo+LRiZIYAAAggggAACCPhWID8/X7bv2CGJNRMrzJg+XoVE7IAAAggggAACCASMAP28gGkKCoIAAggggAACCPhUoLx+nltTK+tIXIK4Pm0TMkMAAQQQQAABBPwiEBsb6/YsKvTx/NIEZIoAAggggAACCPhFgH6eX1jJFAEEEEAAAQQQqHaB8vp5bgVyq70GFAABBBBAAAEEEEAAAQQQQAABBBBAAAEEEEAAAQQQQAABBBAIIwECuWHU2FQVAQQQQAABBBBAAAEEEEAAAQQQQAABBBBAAAEEEEAAAQSCQ4BAbnC0E6VEAAEEEEAAAQQQQAABBBBAAAEEEEAAAQQQQAABBBBAAIEwEiCQG0aNTVURQAABBBBAAAEEEEAAAQQQQAABBBBAAAEEEEAAAQQQQCA4BAjkBkc7UUoEEEAAAQQQQAABBBBAAAEEEEAAAQQQQAABBBBAAAEEEAgjAQK5YdTYVBUBBBBAAAEEEEAAAQQQQAABBBBAAAEEEEAAAQQQQAABBIJDgEBucLQTpUQAAQQQQAABBBBAAAEEEEAAAQQQQAABBBBAAAEEEEAAgTASIJAbRo1NVRFAAAEEEEAAAQQQQAABBBBAAAEEEEAAAQQQQAABBBBAIDgECOQGRztRSgQQQAABBBBAAAEEEEAAAQQQQAABBBBAAAEEEEAAAQQQCCOBKH/Vdfv27fLl10tN9j26d5PIyEifnGrfvn1yy9jbpH69ejJuzC0+yZNMyhYoKCiQjz75j9StU0dOO/WUUjt+9Mknsrdwr/Q4v7usW7deVq5aJUc2biQntG5dat/NmzfLiu++l4b160ubNic73l+6bLlkZWfLMUc3l2OPOcax3ZdPcnNz5aeVP8vq1f+TpOQkadmihbQ6rqXjFJ7UUw/atOkf+e6HHxzH65PGjY4w5a9Vq5Zju6v97DfT09LkzDPa2S95RAABBBBAIGAF1q/fID/9/HO55WvdqpU0aXJkuft4++ay5d9IZlaWdD+vq9SsWdPb7Dw+/pnnXpDvrX//H3vkIYmPj/f4eA5AAAEEEEAAAQQCWcBf1/K0zvSjArnlq6dsv6/5Q1b/739y2iltpW7dutVTCM6KAAIIIIBAEAj4LZA7+525MvGhRwxBWUHAinx++PEnWbh4sfTueaG0Pv54s/u2bdvl3QXvmYtnt958o88CxBWVJVzf37V7t9xw0y0m4Pj6Ky+VYrjjrn9LthWE/dMK5OYX5Jt9j25+lHyw6L1S+776+hvy9LPPy523j3MEcjWAevW114kGWtudfpq8+dorpY7zdsMv//1VrrpmlGgg2TldfFFfuf/ee0QDr57UU/P4aeVKU1fn/OznE8c/IAP7X2xelrefBnEJ5NpqPCKAAAIIBLLAN99+K2Nvu6PcIo5/4D63A7lPTJ0mERGRMvq6a8vN8/A3n7UCqUs+/1x+/PYbvwZyt23bJk8986yceMIJ0vOCHo5ivDN3rugFpw1//y0tjj3WsZ0nCCCAAAIIIIBAKAj44loe/ajg/CRUtn+utZ03/11Z9d//yuhRoyTZGjzhblry2Wfm2vELzz5NINddNPZDAAEEEAhLAf8Fcue84wBd8N5Cl6M5HTuU8eS333+XF196RXSEhx3IrV07Qz796AMr+BZDELcMt+rarBc0NYirFzh/++13OeaYox1F2b9/v8yaM9e8vsAK+trps8+/MEFcfa2jbHQEa4MG9e23ffJ43egbTBBXA8idOnSQvzdulGlPTRf9gtK69fEy+PLLKn2eSwcOkIv7XSSFhYWin9eHH31Mbr/zbmnapEmJz7zu169vnxLnSU5JLvGaFwgggAACCASqQOdOnWT2jDcdxRs6/Crz77fzNk9G4z7/4suSmJjocSDXUQA/P9m+Y4fpg14yoH+JQO6MN16TrKxsOdqaRYSEAAIIIIAAAgiEmsBsH1zLox8VnJ8Kb/rnS6xrezro5sqhQzwK5AanFKVGAAEEEECg6gX8EsjVEZAazOt67jnW9HM/yrx3F5hRmM5TzmpV8/LyzPTLS5cuM6Mi21rT7Z57Thej8N6ixSYgpi9uunWs/GpNiXv9v0ZJXFycvD1rlmSkZ8iwK4fKJ//5VFZ8+530vPCCElPlLli4SH755b9WkK2vND/qKNEpmXW/pcuWiY7qPf74VnJRn97ljuZ4+NFJcsQRR0ibk0+SBe8tksK9hdKje3c5+aQTRQOQX3z5pWRk1Ja+vXuWunPsf7/9Jl9+9bX873+/SbNmzWTAxRdJmjWVrp28zfurr5bKmj/+MGXp2KG91LOmmrbT27Nmy9q1f8mgyy+VOe/Mk03//CP33n2X6N11KcnJcs3Iq+xdRTvYOrqldu3aMuyKIY7tlX0ywBqJOn7iQ/L+hx+VCOT+aI2u1pG7OgLVuax6156myy+9RN54a4YZgX3V8GGVPX2p4/5cu1bWb9ggZ3c+S4ZfeYV5Xy++aqD1/v+bYD4LpQ7yYEPDhg1MG+ghp592qiRZF6X186qfM+epqHU/5+mkPTgFuyKAAAIIIFDtAhkZ6VafJ91RDrtP5+rfti1bt1p9pK/k++9/sPpATaX9mWeYJQ304B07d8rTzzxngsA6G8eDDz9q/n08z+ozatIbut6ZN090KueEhAQ5p8vZ5njzppu/tH85Z+48s5yCHnKKNVWb3kQWHR3tyEH7hd9ayz3ov9fZVr/wBKtfeOEFF0hsbC352Vom4pFJk82+M2bOkqSkJOlj9fX0hrUPP/7E9LFuvP5f1qjcjVY/a641are1nG8tI2KnldYU1IsWf2D6Bdr/0FRRv9A+1n60+3Lad5n37rvG44x2p5ulLHT6uQ8+/NgY9u7Vs0T/V483/l98Kd9a/nWs/l2P87uVGD3sdd5ltK2eW5fL0D5y3z69ZPk3K+Q7y/j2cWOMx9bMTBl1zUjLM1F3NUlvrNP2Gn3ddcbe3m4/an+5vrUkh96Ip22q/db2Vl+y81mdzHcHe7+K+vkbN22S115/03yWcnJy5NMln4na6Wfz8GT30XWmmMXvf2DdDLjFfEZ7Wd81nJeKqehzZlsM6N/POOhMQ8e1bCkXXdRHcnNyRb+rrLX6qfrdp0P7M0vlrUvU6HekyKhIq85nmL6sc1m1nRcuXCy/rVlj+rVal+NbHWd2seurnxn9W/3A6pfrTbAdLUfd5pwqqofuW97fi52X5lNRme19eUQAAQQQCEwBd6/llffvAv2oCvpoVdiPcvdTVlH/3P43fpnVz9P++RntTrOud53q6Ls8Of1pE8TV8+l1tlPathH7up47/Qx3y8l+CCCAAAIIhLOAXwK5CxctMqZ9rAskGjB79vkX5DPrglK3ruc6rPPzC2TosKvku++/d2zTJxoIfNCamvbHH38ssV0v3owYdqUJ5Or0vHqhQgO5ERERJv/d1hTAOqWfJh39qZ0HDRzqBSNNDz7yqLxgjf5wTm+8+ZbMfOuNEheCnN/X8zRu1Mi6wLfNMWpU87h6xHBzTntfveCz8vsVpkOj2/Qi3zWj/mXe1vXT9EKldmzmzZkpR1lBXU2VzfuDjz6Wa68bbfLQX3qBUc8xd/bbJmCt2z744CMz7eCnS5aYgLq+/9CE/5Ovly6VVVZwWy9c1a9fHPjVQPgzzz0v1468Wg/1OumFUg3kvmO1lwbe7bTogw/M04ucRqXqxTitT9OmTeSmG0abQK7e/Wl3+OxjvXmsX6++8Vn58yr5488/Hf46aujF55/xJmuXx9apU9ts19E6JAQQQAABBMJN4K+/1knPvv0c/Sa7/lMef0wu7HG+aBBN+3R20udRUVGigVztE/a/5HLzlt1/evnV1+Tee+6SIYOKt9vHlfWoF6J69OxjZuKw83jr7ZnyoRXImv7kVMdhh/cL37Deee2NN+X1V16WDRv+Njfj2TtrGfXmLA3k2n0s7V9mpKeZ/qD2FZ0DuRow1GP0RjtN7vQL7XPZj/Z5dLYSDQxr0hvehln9Y52txk7Pv/iSVeaXHEs1rFu3Xi7sc5Hxt+uvwdInJk9yjCyubN4Vta2WadUvvxiTjz4pDnjrttFWf1DXNdbvA62s/rs9VbWW9bHHp8gJrVvL2Ftv0V1LJe0v6w2AOuOJ9qc1af9dv1NMm/K44wLi4e1p72f38zMzi8/vXC5XNyHocXYfXZeIcZzTsv/Fqttdd9yuu5gbEir6nNkWzm2oxy775hv53ZrFRW961aTtesPo66yf4u8Orr4jaZvrDZr3//sec4xzO6vPQusG2Ies7zpPPzXN/C3Z9f3c+v6lgX87ad3uvvN2M1pGt/ni70UD8+6U2S4DjwgggAACgSvgzrU8Lf3h/+7Sj6q4j1Yd/Sh3P2nl9c/13/jBVwwTvSHNTtq3dO6X6A1jdvrIuh6qg2f0up67/Qz7WB4RQAABBBBAoGyBiLLfqtw7emeePYVu57POMqMANKd58+aXyPCRSY+ZC3Y6CvSXn36QZV99bi7kzLRGk/5mTcurF0p0rVFNkx99WFYs1dGvh0aC2JnpHex6oepda/rmoqIis1mDdhrE1QtFenFBOxUagO1hBRlX/fid/P7rKrnx+tEmqPnSK6/aWbl81NGcD1jrqK5e9ZO5yKI76YWoN159yZS7/8X9zHE6jYimf/7ZbIK4elHviyWfyM8/fGsChnoh6L4Hxpt97F+e5q2jVDSIq/V9/713Zc3qX8wFG817xNWl15hrYgXRl375mbWO3HJzyn7WmrCaPv7Pf8yj/tKRBpp69bzAPHr7Sy8m6ahbrZvezalJPxPz3y1eM7frwRHXut3u7OmUwzpaWUet6EWtX1ev1rd9knRkzTVXjzCfh67dL5AhVw4XveipQV1fJ72Z4MWXiz9PJ1ujuJ3T19aIiqeefqbEj46WICGAAAIIIBBKAsNHXmOCX9OemGz6Wx+9v9D0W66/8WYzqvSIhg1Nn077Mtpn0P7drTffaAg+/uRTSU9PN4FJ7T/pUhqanAOXZkM5v3QksKaxt9xs+j/a7zMBWOvGMR3BqMnuF7Zt00a+XfaVrPrpe3MxSm92W7Bwoekvark16dTKWsYuZ3c2r51/paammoCic59nz549Joir9dARnZ70C53ztp+fcMLxpg9q33ymFhr01L6zfQPj4g8+tHeXq68dZfy1n6qGSz7+0Djfcdc9Joju2NF64mneFbWtc977ivbJogXz5Lf//mxuNLzw4DrDdr9T99Wgqqb+1hIV5aXNmzdbI6J7mXb65usv5VRrhLXeCDj34Kwudnu608/XGWuenf6kMS3vvNqmY265yZRfp9PWpH08+7uGO58z5zp9v2KZfP7px+ZvYdHi962puY8W3aZGmubOK56hRp/b35HuuG2s+RvSz7BObf76G285boBduHixaWe9yeHrzz+VL5f8x8wQ859Pl2gWjqRB3IcfnGDyWfzefHP+B8ZPFL2YrMmdeti+Zf29aD7ulFn3IyGAAAIIBK6Au9fyKvp3Qf89ph9VPMjEuY9WXf0odz5x5fXP9UYxDeLqwBrtf363/Gszk4j2S3QZPU3vzp1jXVO80DzX66CzZmho371+htmRXwgggAACCCBQoYDPA7k6jZoGUXVKNQ2i6dq2eqFOL7joCEw76YUGvYh3+7ixZj+d+u2pqU+YoKcna4fWrFlTBlpTlmkwU8+t6cOPiu8G04s+mr6yRqJquuaqEbLbGgmSZZXvor69zTb7GPPCxS+9EKf56HR8Ay6+2OyhF5DOaNfOlFunTNZkjyD+wRopoWnI4EFmhIleNGzZooXoxQ+dalk7x3byNO8ffyq+A04vLOn6szoaWUewXGCNcNELThv+/tvO2jyOG3OL1K1TxzFawR4t8p41lZumnTt3manl9ALnscccY7b54pc96lYvVGnSKa3twLquh2cnnfZZU/du55lHnbJOk90ZNC9c/NLg+9333l/ix/nuwMMPue7aa8xoaJ2eUdtgwoMPiwZ1R1sXlfXuQm/So489Lp3POU+aHdNSTmx7mpnqWz8f9hSRdt4ayNV9nX80ME9CAAEEEEAgVAS0z6OBMh0tqRfxdBpanYlEp9bV9P0PP5RbVe23aNBUp37VaXj1R/uK2sdx7j+Vl4nexKeBLV1GIseavnatFbBKTEwwh+goRk12v1CDYHojWVxsrNw25lbTBz21bVuzj7u/+ljLdGj66OOPzePS5cU3z/W3lvbQ+nvSLzQZHPZrxJVXmj6oBvL0JkFNQ60+pvax9UY4Td9YIzw1qb/eEKf9HV3WQ1/HWNPp9ul1oekn642SzsnTvD1pWx2xrP1LHW2tqdVxLc0MLO9bQWedYk/Te9a0wJrO717cDzQvyvh1h/V9QdtJb+q85647zV46dbcmuz3d6edrn16nMtZ+vfM0ySYjp1/6uRt8+WWm/Doa254ie9364s+QO58zO7shgy83S5voRVKdrUiTLimiy52okd6Uqp9x7Str0uVJNOmyMfqdRb+7DBzY32xb8W3xTEa1MzLMaw3E6o2TCQnxMmfmDDOrkXnj4C+9meBi60ZOrav29fU7hKafVq40j+7Uw/Yt7+/FnTKbE/ILAQQQQCBgBdy9lufOvwvuVpJ+lOs+si/6UQcOHChxzcy+huZ8Xdaddlry2eemP659CO1/6o2Mdx+coeQr6zpXecmdfkZ5x/MeAggggAACCBwSKL66cui1189et6Y707R02TeO9cX0TnpNH1rB3IHW1Mk6clEvWGjAy/kiSoMG9UV/PE16oUPvkteLCDoadJ41+lMvwOiFEU26PqumXhcVB2LNi4O/fvt9jfPLUs/r16vr2BYTE22ep1kdFzvpmr2a9u3bbx51GjVN/zdhovkxL5x+/WNZ6IUcTZXN+xjrLn7n1Oq448yUanrXfSNrTV876TrCzkmD5XohcMnnn5uLo19ba29pGjigtIvzcZ4+P7dLF3OIjpTQUTaL3i8O6NqBdX1T29+eVtsO6O7atcscp9O+3XLTjSU+G+aNg7+++OIrUwfnbWdYF6p07eKykk7b99zTT5nRKBrM1dGxOg1damqKY5q6so6taHvjxo1Mfez9Xn7hedPBtV/ro44KHjpksPMmSU1JKfGaFwgggAACCASzgD2jRktrHVDn1OLgzWKr/vtfc3Oc83vOzzXQ+ujkx0UvGNlT2trv68Uod1Jefr41Xe8TZiYQOzBmH2fnYfcLj25+lP2WWbpD+0ieprM6djB9znnzF5jZXha/Xzw6VvummjzpF7o6d4pTX8Huh+pFNE32mr9FB28StP112Qz9OTxp38t5OuHK5O1u29auXbIPqmXR7wC6JrJO93u8tSbxyp9/lq7WDYkaTC8vNW3apES/qvlRzczutq3dnu708+vVrVPeqRzvNbWW4KhRo4bjtd2/3rt3r9nmzufMPti5v6eBdU0pKcn22xJ/8LvE/v0HzHck+3vTGR2K11d27Gg9+Wtd8UhavQlSP2t2W+v3Hu3P6zSGehOnnQ7/zmB/5nXNZk3u1MP2tY/V4/T7j/33ot/r3CmzHkdCAAEEEAhcAXeu5WnpK/p3wZMa0o8qHlBxeB/ZF/0o7ffqchSHp39dO/LwTWW+dr52q4No7NSsWVPz9IcKbtJ0p59h58kjAggggAACCJQv4NNAro5u1DvtNekX+unPPFvi7LPnzDUXcezgp95l7oukQTodpTDPChxeZI2M0HPr+rl2R6O2FcDU9Mz0adbFkvgSp4yOPtQZKfFGJV/oKFtNOu1I57NKXxBMTys9PbS7p8rIKK7HzoMBT/u4ndZ6cJrSU8u/EKb79LVGImsgV0dEf7rkM90kPbp3N4+ufiUdHEH7P2sUh3YEnS9q7dq124wesEeI2MfrdNZ6590Ca+Tvt999b6aLcw6s634aRLXT4Z8T3a53g2pQ3lWypxd09d7h2/SipU5rqCOCdBRHQkKCGQGs69a1PvkUcxFM1xurTD31XBqo1rsldaRQj569zUgYHXHU/swzShRFz+t8Ya3Em7xAAAEEEEAgBAQyDvZxdu0q7pfYVbL7LYffYGa/bz8OHTbC3Bilfbj2Z5whTZs0kTG33eG48cver7zH8RMeFF0TVwOEva0p3po2bWJm+tCbxOxUt25ds7yGjkjw9t/mWrVqmeC0XijTwKSZNtcKEOtsLJr82S+062M/2jca6ijPu+64zd7seDzqYADUscGDJ962rZ7qwh49TCBXb7zU0cKa7FlczIsyfm3dmlniHV1vTZO2o6aq7OebE1q/3Pmc2ft68mh/R9JjdO3jw1PGwe8ZOsON9odXrfpFvl5mTdG8+AMzBfkPP/xoRubax2Vv22Y/NY/bt+8wj/bfojv1qOjvxd0ylygILxBAAAEEAkrA3Wt5WuiK/l3wpGL0o4oHM9j/Lpdn52k/Smfw+/O3X8vLssL37H/jdzjNrqgH6aw3murXL38gjjv9DJMRvxBAAAEEEECgQoGICvfwYIdPlywxe+u0yrqmrPOPBvt0BKYG1nQUrgbpdIo2vehlJ11joUfPPlbw7zuzqYbUMI8F1npj5SUNLupd6Dp649/33W92tafp1RdtDq5XurdwrzmvnvvEE1rLypU/y969ReVl7fF7GlTWVLCnwHEuPd+ff64VvZjiTeD4hNatTN7O6w3r9HT2emOHj5IwOx/265yDa7y9+dYMaxrAT8xUca7u9rMP0461jmzWUS2z57xjbzaPulawJlcBa3v07W133mXaRdchswPreszsd+bqg3z8waISn5MnHnvUbJ+/4D3z6O2v/1rTzV06aIjouh72SBzN86+D0ys2OfJIc4rK1tMun36mx1nTMmoaP/Eht6eAtI/nEQEEEEAAgWAX0GUfNC2yRgrqHfx2emfefPP0xBOOtzeZR+d9tm/fbvqIOlvLXbffZvondazRk/bsHSUOLOeF3YfU/oRO76wBVV371jmddOIJ5uXCg1P76gtdokH7oPZa9/aNazqSoKKkUxdruuuee02fZ4A18tRO/uwX2uewH52XyWjb5mRHP7SgoED+/nujRDuNpLCPcffR07Z1la/OuqNT/b5r9fHenjnbjGTu3Kmjq11LbNP+vS5RYSd7iRBdvkVTVfbz7TK48zmz9/Xk0f6OpMfojC/6HUJ/NICro2gjIou/un38yX9kyrSnrCm0m8rVI4abJUR0KRv9HDtPmaij27Oyim+c1X6wva5wy5bFNxq4U4+K/l7cLbMnDuyLAAIIIFC1Au5ey9NSVfTvgu5DP0oVDqXq7EcdKoV7z5z75/a/8bp0h948ZqeFi4sHZpx80kn2JrP0m77Qfqed3Oln2PvyiAACCCCAAALlC/h0RK59cUDXYrKne7NPf8mA/vLwpMfMSMxrR15tRjHqRZnhV19rrRM1UAoLC0VHS+jIzVbHFQcs7anTpj/9rOiaVLfceEOZ0+3qOrGPTJpsLtY1bdpE7Atnev6+vXvLy6++Lv+64Sa5xprWT4PKOp2vXhy8y1rbQddi81XSTq0GPjUorReeTjv1VPlmxQozKlXXLNORqpVNJ514onSypvDT9YZHjvqXnGy91lENGhz/16hrS0w7V9Y59I46bR87kGqvr1bW/rr9mquvMmvLjrvjLtEAq46Q+dnqxGkQXttL1/k6PKmBvqfBek32FIP6/OdVq8x2XTe4WdOmusmRzj3nHPN81uw5cu/dd7lVJ8fBLp6ol46GmTN3nnHSi2F6QesNK5Ctqd9FxevL6fPK1FOPs1MXK0iuddLPla7zawez7fd5RAABBBBAIJQFtO934/Wj5fEpU+XyIVeYGT90qjgdpaoBPP030k66HIIudTDWGnGrfbizrICeBqJWfPudWf5A1wCdMXOWvbvbjydZF5T0YtM9994vZ1j/5n/2+RfmPM4ZaD9I+4X/N/FB+Wv9OrPkxXMvvGRuWrODgg0bNDCHaNCxnjXyc0D/fqX6LHaeehFLy24HjC+wAsh28me/0D6H/RgTEyM3jL5Onpj6pAwaOkx69bxAMjOzZNpT001f6MILzrd39fjRk7YtL3Mdgbts+Teiy4EMuvxS0TK7k7Tfe+nAAZJvBda1D6d9TB1xrakq+/l2Wd35nNn7evo48qoRJnA94NJBMmTQ5ZZRtPU38az5fM5/p/hvYsuWrebvTGeB0c/bf39dbWYk0umPdSpnnaZck34XuXzIUHNTw8qfV5nZeI5vdZxjORJ36uHO34s7ZfbUgf0RQAABBKpOwJNree78u0A/qmTbVXc/qmRpyn7lqn+u12/12u2VV42Uyy4ZYN2smWP1o18zfcuL+/V1ZHZM8+bm+b/ve0DO797NXCd0p5/hyIAnCCCAAAIIIFCugM9G5Ord37pOk15Y0eDl4Un/IddkBxA1oPbklMfNOrF6R7kGcfXCwtzZbzuCdydaQdGhgweZANzTzzwna/74w5FtRESk47k+0eCsjuLQpB1L56QjAN589WVzR7vmc8dd95hg2803Xm9dILnMeddSzw8/j+4QGVV2/FtHnT419QkTxPvwo0/k9jvvNkHcXtbFpocnji+Rv6d5R1nnVTMNEGpHSgPjGzdtktHXXSs33TDakXeNiOKRzBEHHx1vHHzSu1dPx6azO3d2PC/ribbVnJkzjK+eVy+gaRBX18Z6b947cvTRxR025+PVwW4HbRv7rk3dR6d/09Sn96FymA3WL133zQ4uf/7FF/bmSj9q4Pq9+e+IBtH14rBe3NTyN23aRCY98pDoDQZ2qkw97WPtx9vHFo/Kfdi6qaCoyLejve1z8IgAAggggECgCmifRIO5WdnbTD9FA6l6E9vTT04rcZPf2FtuNsFP7RfOOjjjx9THJ5mLQo8+9rjozWN1rKUx7L6dXd+K+jg3W/0hvQil+d4yZpz8+uuv0v/ifvbh5lGnBHz9lRcdN97puq2apj851dFf0QDjow8/aLbrDCRLly43z12dX6eus/sTeiObBnXt5Em/0D5GH12dR7drP7u8dP2/rjP+2j/UC2kaxFWP115+waxrqsdWNm932lYtnM9hXjj9Ou/ccx2v+vQs3Q90vOn0RL8faEDz+RdfMn04nTr6uaefkiOPbGz2cqef7+gTO61763SKUk8P76PbI4siahTXz53PWUUWpU56cIMu/6HfJTLS0+ThRyfJA+MnmnemT5si9ijkSwb2lyuGDJbffl9j/lZeee118z3nxedLLmujwe+GDRqa/q8uqaKfz+eemS46E40md+rhzt+LO2U2J+QXAggggEDACXh6Lc+dfxfoR5Vu5urqR5UuSdlbXPXPddkw7YPoTZZTn5xugrh6g6b2Le2AveaoNz3qNTW9Zmj3rd3pZ1S2v1R2LXgHAQQQQACB0BSosStn94GKqrZrxy5p2LB4ZEJF+1bm/Z07d1kjbSPM+qWujtfRurpmR3Jykqu3Pdq2x5qmWdfW0ouD9kUZjzLwYOf9+/fLVmsNsAyrw6NBWF8mXZNV1xiuzNpuH1pTKl9jjWzQi44T/u9+j4q1d+9e2bxlizSw1sLQaVaCKalZZmamJCUlOS5mllX+YK5nWXViOwIIIIBA+Ahs3LhJklIq7jf5s4+n66DqlLDl9Rf04mGCFZy0l1/Q6V83b95i/p32pt+nUzUXWn2Wivp72r/My8s1AWRXnw7ty+20+o3JycmOKeNc7efONn/2C12df6vV51Fbe30zV/tUdps7besq7y1WH/KMjp3NDZiffvxBhX3xZse0NDd6vjt3jug01/nWkiL2usOu8q/Kfr6e393PmauyurNt167d1nIdRZKamlrm7ps3bzbvO49u/vGnlXJR/4HWbDMjZOytt5hy6migsm4EcLceFf29aCHdKXOZleENBBBAAAG3BAKhn6cFrejfBfpRrpuzqvpRrs9e8dbD++f2EXotVfsTcbGx9qZSjzk5OdZSEJEl9nG3n1EqMzYggAACCCAQhgJl9fN8G12sJGxFF+q0o6A/vkh6kaMywc/KnFvvLHMelVGZPMo6Ri+KeloPnYJ5/rvvib227ZDBl5eVfZnb9UJroyOOKPP9QH5Dzdxtj2CuZyC3AWVDAAEEEAgfAXf6KToNrHPSm+zq1z80otX5PU+elxf4cs5HZwLRn7KS9uXczausPOzt/uwX2udwftQgtr+SO23rfG69mU6nB/7o44/N5quGD6swiOt8vD7Xi4blXTjUfaqyn6/n89VnQ/NylZKSEl1tLrHNnb5tReWs6H37hBX9veh+7pTZzo9HBBBAAIHgFqjo3wX6Ua7btzr6Ua5L4nrr4f1ze68U68bGilJCQkKpXdztZ5Q6kA0IIIAAAggg4BAIiECuozQ88avAR9ZI3MlPTDHnGP/AfaJT05EQQAABBBBAAAEEEPCnwC/WWsl2H1Sn+x044GJ/no68EUAAAQQQQACBkBGgHxUyTUlFEEAAAQQQqLRAQEytXOnSc6BHAjoaInvbNklPSyt3mkOPMmVnBBBAAAEEEAg4gbKmYjm8oP6cWvnwc/E6fAV0yuxsa93khIR4x/qs7mj8vXGjmXbb05Er7uQdyvvoEiH/WFMuJycl+2RpmlC2om4IIIBAMArQzwvGVqt8mSvbj6r8GTkSAQQQQAABBKpLoKx+HiNyq6tFquG8OrWwP6fZq4YqcUoEEEAAAQQQQACBABfQKbMzMtI9LuURDRt6fAwHiAl+N27UCAoEEEAAAQQQCAGByvajQqDqVAEBBBBAAAEEDgpEIIEAAggggAACCCCAAAIIIIAAAggggAACCCCAAAIIIIAAAgggEFgCBHIDqz0oDQIIIIAAAggggAACCCCAAAIIIIAAAggggAACCCCAAAIIICAEcvkQIIAAAggggAACCCCAAAIIIIAAAggggAACCCCAAAIIIIAAAgEmQCA3wBqE4iCAAAIIIIAAAggggAACCCCAAAIIIIAAAggggAACCCCAAAIEcvkMIIAAAggggAACCCCAAAIIIIAAAggggAACCCCAAAIIIIAAAgEmQCA3wBqE4iCAAAIIIIAAAggggAACCCCAAAIIIIAAAggggAACCCCAAAIEcvkMIIAAAggggAACCCCAAAIIIIAAAggggAACCCCAAAIIIIAAAgEmQCA3wBqE4iCAAAIIIIAAAggggAACCCCAAAIIIIAAAggggAACCCCAAAIEcvkMIIAAAggggAACCCCAAAIIIIAAAggggAACCCCAAAIIIIAAAgEmQCA3wBqE4iCAAAIIIIAAAggggAACCCCAAAIIIIAAAggggAACCCCAAAIEcvkMIIAAAggggAACCCCAAAIIIIAAAggggAACCCCAAAIIIIAAAgEmQCA3wBqE4iCAAAIIIIAAAggggAACCCCAAAIIIIAAAggggAACCCCAAAIEcvkMIIAAAggggAACCCCAAAIIIIAAAggggAACCCCAAAIIIIAAAgEmQCA3wBqE4iCAAAIIIIAAAggggAACCCCAAAIIIIAAAggggAACCCCAAAIEcvkMIIAAAggggAACCCCAAAIIIIAAAggggAACCCCAAAIIIIAAAgEmQCA3wBqE4iCAAAIIIIAAAggggAACCCCAAAIIIIAAAggggAACCCCAAAIEcvkMIIAAAggggAACCCCAAAIIIIAAAggggAACCCCAAAIIIIAAAgEmQCA3wBqE4iCAAAIIIIAAAggggAACCCCAAAIIIIAAAggggAACCCCAAAIEcvkMIIAAAggggAACCCCAAAIIIIAAAggggAACCCCAAAIIIIAAAgEmQCA3wBqE4iCAAAIIIIAAAggggAACCCCAAAIIIIAAAggggAACCCCAAAIEcvkMIIAAAggggAACCCCAAAIIIIAAAggggAACCCCAAAIIIIAAAgEmQCA3wBqE4iCAAAIIIIAAAggggAACCCCAAAIIIIAAAggggAACCCCAAAIEcvkMIIAAAggggAACCCCAAAIIIIAAAggggAACCCCAAAIIIIAAAgEmQCA3wBqE4iCAAAIIIIAAAggggAACCCCAAAIIIIAAAggggAACCCCAAAIEcvkMIIAAAggggAACCCCAAAIIIIAAAggggAACCCCAAAIIIIAAAgEmQCA3wBqE4iCAAAIIIIAAAggggAACCCCAAAIIIIAAAggggAACCCCAAAIEcoPoM5CbmxdEpQ3fotJOwdP2tFVwtBXtFBztpKWkrYKnrShpYAnwtxNY7VFWaWinsmQCbzttFXht4qpEtJMrlcDcRlsFZrtQqqoX4G+h6s29PSNt5q1g1R9Pm1W9ubdnpM28Faz642mzqjf39owEcr0VrMLjc3Jzq/BsnKqyArRTZeWq/jjaqurNK3NG2qkyatVzDG1VPe6cNfgF+NsJjjaknYKjnbSUtFVwtBXtFBztxN9U8LQTJfW/AP/f8r+xr89Am/la1P/50Wb+N/b1GWgzX4v6Pz/azP/Gvj4DgVxfi5IfAggggAACCCCAAAIIIIAAAggggAACCCCAAAIIIIAAAggg4KUAgVwvATkcAQQQQAABBBBAAAEEEEAAAQQQQAABBBBAAAEEEEAAAQQQ8LUAgVxfi5IfAggggAACCCCAAAIIIIAAAggggAACCCCAAAIIIIAAAggg4KUAgVwvATkcAQQQQAABBBBAAAEEEEAAAQQQQAABBBBAAAEEEEAAAQQQ8LUAgVxfi5IfAggggAACCCCAAAIIIIAAAggggAACCCCAAAIIIIAAAggg4KUAgVwvATkcAQQQQAABBBBAAAEEEEAAAQQQQAABBBBAAAEEEEAAAQQQ8LUAgVxfi5IfAggggAACCCCAAAIIIIAAAggggAACCCCAAAIIIIAAAggg4KUAgVwvATkcAQQQQAABBBBAAAEEEEAAAQQQQAABBBBAAAEEEEAAAQQQ8LUAgVxfi5IfAggggAACCCCAAAIIIIAAAggggAACCCCAAAIIIIAAAggg4KUAgVwvATkcAQQQQAABBBBAAAEEEEAAAQQQQAABBBBAAAEEEEAAAQQQ8LUAgVxfi5IfAggggAACCCCAAAIIIIAAAggggAACCCCAAAIIIIAAAggg4KUAgVwvATkcAQQQQAABBBBAAAEEEEAAAQQQQAABBBBAAAEEEEAAAQQQ8LUAgVxfi5IfAggggAACCCCAAAIIIIAAAggggAACCCCAAAIIIIAAAggg4KUAgVwvATkcAQQQQAABBBBAAAEEEEAAAQQQQAABBBBAAAEEEEAAAQQQ8LUAgVxfi5IfAggggAACCCCAAAIIIIAAAggggAACCCCAAAIIIIAAAggg4KUAgVwvATkcAQQQQAABBBBAAAEEEEAAAQQQQAABBBBAAAEEEEAAAQQQ8LUAgVxfi5IfAggggAACCCCAAAIIIIAAAggggAACCCCAAAIIIIAAAggg4KUAgVwvATkcAQQQQAABBBBAAAEEEEAAAQQQQAABBBBAAAEEEEAAAQQQ8LUAgVxfi5IfAggggAACCCCAAAIIIIAAAggggAACCCCAAAIIIIAAAggg4KVAlJfHczgCCCCAAAIIIIAAAggggAACCCCAAAIIIIAAAggEmUBmbqbM+nGGfLB6sU9LnhSTLE/1f1YSYxJ9mi+ZIYAAAuEoQCA3HFudOiOAAAIIIIAAAggggAACCCCAAAIIIIAAAgj4RWDkzOGyefc/fsnb15l2atZZnur3rDRMOcJnWd88/3pZ+c9P0r5JB5/lSUYIIIBAuAoQyA3XlqfeCCCAAAIIIIAAAgggEBQCbw77RnZvzg/osjbvXFfaXt5YUhrGBXQ5KRwCCCCAAAIIIOBvgd8zf5PcwlyZP3yRv08VsPkfX+8E+XnTSgK5AdtCFAwBBIJJgEBuMLUWZUUAAQQQQAABBBBAAIGwEtAArv6MXHRWwNY7J3OPfD9jnbx91QqfljEuNUYGPN1WYhJr+jRfMkMAAQQQQAABBPwpsDrzV2lRt6U/TxHwebeu31peWfFSwJeTAiKAAALBIEAgNxhaiTIigAACCCCAAAIIIIBAWArs+LtAUhsH9ijXhNox0mn0MebHl40054bv5e8fd8hRHWv7MlvyQgABBBBAAAEE/Crw25b/SYs64R3IPb5ea9mwY730fqGH19Y69fMlJ1/m06mfvS4UGSCAAAJVKEAgtwqxORUCCCCAAAIIIIBAsUBubq68OeNtWbXqF2nQsKH07nmhtDj2mHJ5Nm7cJPMWLJDVv66W9PQMOadLZ+nYob3jmH379suQK4ebvAb07yfffveDLFy02PF+Ru10aXfaadK2zcmObTxBINAFdv6TJ0kNAjuQ6y/DBq1TZNPPBHL95Uu+CCCAAAIIIOAfgf9t/VW6tzjfP5kHSa6x0XGVmlp6y9ZMqVvn0E18mbmZMuvHGaJr7j438BVJqpUYJAIUEwEEEPCdAIFc31mSEwLVLjBy5jDZvHuz1+XgTjevCckAAQQQQKAcgcLCQunV92KJi4u3gq4XyM+rVkn/Sy6X+XNmSrNmTV0eufybFTJi5CipX6+udOlytmRnZcnQYSNkyKBBcu89d5pjIiMjpGXLFlK3Xh3zes2aNTL7nbkyZPBlcuDAAVm+fIVMeuxxeWTiBOnXr6/L87ARgUAT2LUpX5IbxAZasaqkPA2tQO6yl/6oknNxEgQQQAABBBBAwBcCuwp2ydbcrXJ0nWN9kV3Y51E7vraMaj9a1mT9Lj//86O0b9ox7E0AQACB8BMgkBt+bU6NQ1QgOy/bBHHnD1/kVQ3tO91Gzbnaq3z8fTDBZn8Lkz8CCCDgP4Gffl4lRfv2ycwZr0tsrVrmRH36DZAPPvpYrh15VakTa+B37O13ylkdO8gTkyeJBmw19endSwZfMUy6nttF2p95htnWr28fqeN0B3ed2hky5uabzHv6a/KUqfLya28QyHWI8CTQBXb+UyBNTk8P9GL6pXz1WifJ9vV58kyPz/ySP5lWXiA2OVoGPnuqtX4xlxQqr8iRCCCAAAKhKPDL5p+lSVoziY6MDsXqVVudjq93ghXI/ZlAbrW1ACdGAIHqFOBbV3Xqc24EfCiQnZsl9RLreZ2jfaeb3u0WqOnwYHNKbKo82e8ZSYhJCNQiUy4EEEAAASeBU9u2kc8++dCxpaioSHbv3i3paWmObc5PdDTuhg0bZMG8OY4grr6vwduHJoy3tkU6dr95zDgZccXQMgO1MdExVhC5yLE/TxAIdIEdf+dJ8kVHBHox/VK+6LgoGbnoLI/zPnxKPo8z4IAKBWaMXCFbV++SRqe6/v92hRmwAwIIIIAAAiEqsHrLamt93BYhWrvqq1br+q3llRUvVV8BODMCCCBQjQIEcqsRn1Mj4EuBzJytkhYXHqM1Dg82j5p9tfyWuVraHHGKL0nJCwEEEEDAzwLr1q2Tue8ukCVLPjfTLHc771yXZ/zrr3XStEkTSUosvR5S/4svcnmMvXFrZpa8/sZbZmrlP/5cK3PmzpOpT0yy3+YRgYAWOLD/gOzevCdsp1YO6MYJ88LVaZ4omX/sJpAb5p8Dqo8AAgggUFpAr091b9Gj9Bts8Urg+HqtZcOO9fLXtrXWiGfXy/F4dQIORgABBAJYoHheugAuIEVDAAH3BLKsEbkZ1roR4ZiaZxxt1soIx7pTZwQQQCCYBfLy8+WPNX/I9h07JD09VXZYj65SfkG+pKUfGvWVk5MrZ51znuNn/IMPuTrMbMvNzZFly78RHdW70lqLV9Omjf+YR34hEOgCu7YUSIQ14Dw+IybQi0r5wkwgo3mCZP6eE2a1proIIIAAAgiUL7Bh+3pzferYui3L35F3PRaIjY6Tnq16y6wf3/b4WA5AAAEEgl0g4Efk5ubmypsz3pZVq36RBg0bSu+eF0qLY48p133jxk0yb8ECWf3rauuiYIac06WzdOzQ3nHMvn37ZciVw01eA/r3k2+/+0EWLlrseD+jdrq0O+00advmZMc2niAQ6AJZOVmSHp8R6MX0S/mOymguv2wuvjjvlxOQKQIIIICAXwRatmhhjY6dLPus9XJvuOlWa/3aafL4pEdKnavVccfJgw8/avbTaZRr1YqRieMfMPvdOuY2KSose6pkHck7bcpkR56L3/9Arrv+RunWrWuZUznn5uZJjtUHtVMNqSEHrP/8lTKzsv2VNfn6UKA62mnLf3dLfL2aolMFk9wXqI62cr90obFnZO0i2fy/nV59Nmmn4Pks0Fa+a6u6dcLz5mvfCZITAoEr8PeOv+WOheNk8ClX+GTps8CtafWV7KIT+svVb18pGjBvlNq4+grCmRFAAIEqFgjoQG5hYaH06nuxmWqvd88L5GdrFEX/Sy6X+XNmSrNmrqdQ0NEWI0aOkvr16kqXLmdLdlaWDB02QoYMGiT33nOn4Y2MjJCWLVtI3Xp1zOs1a9bI7HfmypDBl5lp95YvXyGTHntcHpk4ocz11aq4nTgdAhUKZOVlSat6rSrcLxR3aJ7eXN5dNTcUq0adEEAAgZAUWLrsG2tU7EZHP0uDs7re7dPPPe+yvi1bHGu2v7tgofTt00uioqLkzHani47M3Z2TI21PaePyOFcbz7TOo2n9+g1lBnLj4+NEf6oycWG3KrUrf66qbqfMvL2S0ThJqvq8lRcKnCMx829bpCeny5cT1klKXKrEJFT+sgLt5N928mXutJUvNckLAQRCUeDOReOk/0kDpdfxfUKxegFRp7S4NOnesofM+OFNGdPltoAoE4VAAAEEqkKg8t+4qqB0P/28SoqsERozZ7wusbVqmTP26TdAPvjoY7l25FWlSqCB37G33ylndewgT0yeJBqw1dSndy8ZfMUw6XpuF3ORULf169tH6jjdCVmndoaMufkmfcukyVOmysuvveG4wGhv5xGBQBXIzs0UXTs2HFPz2keLTi3d+wXWIAm09k+KSZbp/Z+XhJj4QCsa5UEAgWoU2FNYIGNuv0NqRERIp04dZN269SaI2+Wss1yWKi0tTe675265Zew42bZ9u+nPZWdny+NTp0laWqp0bH+my+N0Y35+gegau5r+Wr9O5swpvvGnohlezAH8QqCaBXZtypOkBrHVXApOj0BpgaiYCIlLj7HWcC6QGGuaZRICCAS/wJ49e+SV116XgoI9cv2/RpWo0JLPP5f33//Imh2lyJr17mzp3u28Eu8f/oKZ8g4X4XWoC6xYv1xSaqUQxK2ChtZRuSNnDvP6GmBKbKo82e9ZrldVQZtxCgQQ8F4goAO5p7ZtI5998qGjlkVFRbJ79+4yR0/oaNwNGzbIgnlzHEFcPVhHeDw0Yby1zVpg6mC6ecw4GXHF0DIDtTHRMVYQuexp+ux8eEQgUAQ0kBmuUyvHRNWS+cMXedwUOk0hd5Z7zObRAVdZU96szV4jrRuc6NFx7IwAAqEt0LlTJ7n/3/fIxIcekVvHFd9JfenAgTJu7K1lVnzwoMvMezNnvyPjJz5ojZhNMKNyn5ryuCQnJzuOi4o81L2NsALFm7dsli7ndTfv6zFt25wk78x6W2JjCY450HgSsAI7NxVIsw7huXRGwDYKBXMIxKdHS252oVirnJAQQCDIBXQgxZixt8maP/6QRo0alQjk6k1wegPeNdaAirzcfBk1+ga59+67rFntLndZa2bKc8nCxhAX+PLPL6R9sw4hXsvAqJ6Oyp11xTyvC8P1Kq8JyQABBKpQ4NCVrio8qaenWrduncx9d4EsWfK5mWa523nnusxCR1voOmhJiYml3u9/8UWltjlv2JqZJa+/8ZaZWvmPP9fKnLnzrDXbJjnvwnMEAlZA1+3Lzs2WjDAdkRuwDUPBpLG1Zsm6HesJ5PJZQACBUgKDLr9U9Gfnzp2SkJBY4ia8Ujsf3KDBXP3ZZd3YFx8X7/KYBfNmOw4f0L+f6A8JgWAV2LGREbnB2nbhUO54a0RuTlZBOFSVOiIQ8gIPPzJJLryghxk48ewLLzrqu3fvXnnQem/yow9L7149zfZmTZvILCu4q32yGjVqOPbVJ8yUV4KDF2EiULS/SJavXyqPnTw1TGocGtXkelVotCO1QCBcBIIikJuXny9/rPlDtu/YYQVqj5Qd1qPzyAu7sfIL8iUtPc1+adZNu6B3X8fr87qeI3feNs7x2vlJbm6OLFv+jdm0afPm4seN/zjvwnMEAlZAg7iRNSIkOfbQiKSALSwFCyuBRilHyt9WIJeEAAIIlCXgqk9X1r72dlc37dnv8YhAKAns2pQvKUytHEpNGlJ1ic+IkTxrRC4JAQSCX+DJKZMlJSVFZs95p0Rlvv/hR8neli1ntDtdvvv+B4mqWVMuv+ySckfjMlNeCUJehIHAd39/K3US6kqD5AZhUNvQqSLXq0KnLakJAuEgEBSB3JYtWlijYydba3HskxtuulUmT5kmj096pFT7tDruOHnw4UfNfjqNcq1aMTJx/ANmv1vH3CZFhWVPlawjeadZHVc7LX7/A7nu+hulW7euZU7lnJubJzm5ufYhUsP6T0dG+itlZmX7K2vy9aFAdbTTn9vWWGtxpMrWrVk+rEnoZ1UdbRX6qiVrmBKRKl9uWSk6jXVlE+1UWbmqP4628p050777zpKcEAhWgd1bCiSyZoTEpkYHaxUod4gL6IjcndY6ziQEEAh+AQ3iukqbrYEOujTF0OFXy99/bxQdBFGvbj2ZNeMNadiwdNCKmfJcKbIt1AW+/vNL6dCsY6hXM+TqpyNyP/7tw5CrFxVCAIHQFAjoQO7SZd/Ipo0bHevYanBW17t9+rnnXbZGyxbHmu3vLlgoffv0kqioKLN2Wk5OruzOyZG2p7RxeZyrjWda59G0fv2GMgO58fFxVoc2ztXhftvGhV2/0fo046pupzW5q6VuUl3We61EK1Z1W1WiiEF9yPERx8usX2d4/dmknYLnY0BbBU9bUVIEEAhsgV2bCyS5YdV+1whsEUoXaAK6Ru6mlTsCrViUBwEEfCiQvW27Cd52OfssueXGG2RPYaFce91oGXv7nfLGqy+VOhMz5ZUiYUMQCIycOVw27/ZuVsbpF7u+Vh0E1Q/bIjZObSLrt68L2/pTcQQQCC6BgA7k7ikskDG33yE1IiKkU6cOsm7dehPE7XLWWS6V09LS5L577pZbxo6Tbdu3m6Bvdna2PD51mqSlpUrH9me6PE435ucXiN45qOmv9etkjrXeh6YWxx5jHvmFQCALZOVmSe2EOoFcRMoWpgKNrDsccwp3y66CXZJUKylMFag2AggggAACngvs/qdAEuvV8vxAjkCgigR0auXc7D1VdDZOgwAC1SFQOyPDnPam60dLhHVtLrZWLbl25NVy6aAhUlCwx8yE51yu6p4pLy8vX+LiYp2L5NPnzEDkU84qyayiNlud+V8p2lckz/Z8xbvyWP8cejMTmXcnD62jK2ozX9U2pihWdu/ZLb1f6CGJ0Ulyf+eJEh+T4Kvswyr6T2qOAABAAElEQVSfqmqzsEL1c2VpM98DJ8TH+3XQZ0AHcjt36iT3//semfjQI3LruNuM7qUDB8q4sbeWKT140GXmvZmz35HxEx80U8Ccaa3l8dSUx0usqxsVeajq2hndvGWzdDmvuzlWp41p2+YkeWfW2xIb678OYJmV4A0EPBTIysmStLh0D49idwT8LxATGWOt3ZwierMBgVz/e3MGBBBAAIHQEdj5T74kEcgNnQYNwZroiNw8Arkh2LJUCYFDAo0aHWFe5OblSXJS8Y25OdaMd3rdrGbNQ9fV7COYKc+W4DGQBMqbNWrh2t/ktCPbeT2LWCDVNxTKUl6b+bJ+84cvMtn9e/Gd8nvur9KtUQ9fZh9WeVVVm4UVqp8rS5v5GdjH2Zfudfn4BN5mN+jyS0V/du7cKQkJiRIZGVFhlhrM1Z9du3dLfFy8y2MWzJvtyGdA/36iPyQEglUgKy9LWtVrFazFp9whLpBSK0V25m8P8VpSPQQQQAABBHwrsHtzvtRrlezbTMkNAR8KxFmB3D05RXJg3wGpEVnDhzmTFQIIBIrACa2PlxNat5ax4+6QcWNukZ27dsn94ydK925drWttkaWKyUx5pUjYEOAC3234Vq48fUSAl5Li+VugQ7NO8vkfS6RbCwK5/rYmfwQQqJxAwAdy7WolJ3t+ESMpMdE+nEcEQlogKydTMuJrh3QdqVzwCqTGpsqOfNZPC94WpOQIIIAAAtUhoGvkHnNOveo4NedEwC2B6NgoiYqJlF1brPWcGzCTlVto7IRAgAvUkJI3ZegMdlMmPyq3jLtdzu1eHODo1fNCeeDef5dZE2bKK5OGNwJMQGcO27J7s5zY8KQAKxnFqWqBdk3OlKe/ftJMtZwYQzyhqv05HwIIVCwQNIHciqvCHgiEr0C2NSI3I7547ZrwVaDmgSqQGpsm2xmRG6jNQ7kQQAABBAJUQAO5ifVZIzdAm4diHRSIr1O8Ti6BXD4SCISGQL9+fUV/nFPjxo1l1ltvmFnvdI3cmjVrOr/t8jkz5blkYWOACXy74Rs5vn5rqRlR8Wc6wIpOcXwsoMHb4+u1lq/XfsGoXB/bkh0CCPhGoOJ5in1zHnJBAAE/CmRbdxEyItePwGTtlUBKHCNyvQLkYAQQQACBsBMozC2SPbv3skZu2LV88FU4Ic0K5GYVBl/BKTECCHgsoLPeuRPEdc5Yj3FniTTnY3iOQFUJfLdhhbQ54tSqOh3nCXABnV75yz+/CPBSUjwEEAhXAQK54dry1DtkBHQqmMgakZIc6/n04yGDQEUCWiC5VrI1tTJr5AZ0I1E4BBBAAIGAEtj1T4HEp8dIZE2+rgVUw1CYUgLxGcUjcku9wQYEEEAAAQQCXOCnTT/JKY0I5AZ4M1VZ8c5o0l5W/vOTzPjhDdm44+8qOy8nQgABBNwRYGpld5TYB4EAFtDRuOnWtMqHr2UTwEWmaGEmkBKXIjs2EsgNs2anuggggAACXgjs2pwvifWYVtkLQg6tIoH49GjJy95TRWfjNAgggAACCPhGYKUVxE2NTZEGyQ18kyG5BL1AQkyCPH/JKzLrxxkyas7VXtUntmacTLzwEWma1tSrfDgYAQQQsAUI5NoSPCIQpAJZuZmsjxukbRcuxTZr5OYRyA2X9qaeCCCAAALeC+j6uEn1Yr3PiBwQ8LNAnDVy/J+VO/x8FrJHAAEEEEDAtwK6Pi7TKvvWNBRyqx1fW0a1H21+vKnP4l8XyqRPH5InLnrSzKLoTV4ciwACCKgAc3XxOUAgyAV0amXWxw3yRgzx4qdYd7nuyOcCX4g3M9VDAAEEEPChgAZyE+szIteHpGTlJ4GEjGjJYUSun3TJFgEEEEDAXwLfbfhW2jY6xV/Zk2+YC5zf8gJJtEb4zvxhRphLUH0EEPCVAIFcX0mSDwLVJJCVUzy1cjWdntMiUKFASmyq7NqzSw5Y/5EQQAABBBBAoGKB3VYgN7k+I3IrlmKP6hbQtZxzswuruxicHwEEEEAAAbcFdEDE3zs3yIkNTnT7GHZEwFOBW86+Td5dNU/Wblvr6aHsjwACCJQSIJBbioQNCASXQFaeNSI3ISO4Ck1pw0ogOTbZ1JdRuWHV7FQWAQQQQMALgV3/6Bq5MV7kwKEIVI2ABnLztlmBXO7XqxpwzoIAAggg4LWATqt8csM2UjMy2uu8yACBsgQy4jNkyKlXmCmW9x3YV9ZubEcAAQTcEiCQ6xYTOyEQuAJZObpGbu3ALSAlC3uBGlJDNJi7nXVyw/6zAAACCCCAQMUCBTv3igZyUxrEVbwzeyBQzQJx6dFyYN9+ydvOqNxqbgpOjwACCCDgpsB3G1awPq6bVuzmnQBTLHvnx9EIIHBIIOrQU54hgEAwCmTriFzrLi8SAoEskFIrRXbmbw/kIlI2BBBAAAEEAkJg9UebpV6rZKmVXDMgykMhEKhIILlRnGT/kSNxaWkV7cr7CCCAAAIIVLvAyk0/yfB2V1d7OShAeAjcfPY4uW72SJnxwxuVqnCnZp3lkpMvk4YpR1TqeA5CAIHQECCQGxrtSC3CVEDXHM3OzZZ0Arlh+gkInmqnWuvkMrVy8LQXJUUAAQQQqD6BX97bJKcNbVp9BeDMCHgoUKd5omT+sVsanUog10M6dkcAAQQQqGKBFeuXS93EelIvsX4Vn5nThatAbWsWxZlD36lU9TNzM2XWjzNk1JxDNx4Q2K0UJQchEPQCTK0c9E1IBcJZQIO4kTUiJCU2JZwZqHsQCKTGpsl2RuQGQUtRRAQQQACB6hTY+NMO2ZNbJM06sGxGdbYD5/ZMIKN5gmT+nuPZQeyNAAIIIIBANQh8tfZL6dCsUzWcmVMi4LmABoFHtR8t84cvMj/PX/KKxEbHyk3zr5e129Z6niFHIIBA0AowIjdom46CIyDWaNwsMxpX1yAlIRDIAsnWzQY7COQGchNRNgQQQACBABD4ddEmadG1nkTWpG8XAM1BEdwUqH10oqyct9HNvdkNAQQQQACBygnYoxM/WL24chkcPGr6xc97dTwHI1BdAnZg96j0o2TykkdkykVPVVdROC8CCFSxAIHcKgbndAj4UiDLmmKD9XF9KUpe/hLQUeNrt/3pr+zJFwEEEEAAgWoXKNi5V2ZcvUL27N7rVVkGPneqV8dzMAJVLaCB3NzMAtG/AdZ2rmp9zocAAgiEh8D67evljoVj5OSGbeWpfs+6vV7olq2ZUrcOM52Ex6ckfGrZrUUP+fLPL8y6u5ecfHn4VJyaIhDGAgRyw7jxqXrwC2RZI3IzrGk2SAgEukBKnDUid+P2QC8m5UMAAQQQQKDSAqs/2iypjeOk9yMnVToPDkQgGAWiYiIkuVGcZP7GOrnB2H6UGQEEEAh0gQ1WEPfOheNkwEmXSq/j+wR6cSkfAlUicP1ZN8uIGUOld6u+1nTLcVVyTk6CAALVJ8AaudVnz5kR8FogK6d4amWvMyIDBPwsYNbIzSOQ62dmskcAAQQQqEaBX97bJMf1aFCNJeDUCFSfQJ3miZL5x+7qKwBnRgABBBAIWYG7379D+p80kCBuyLYwFauMgE6zrCl3b15lDucYBBAIMgECuUHWYBQXAWeBrDxrRG5ChvMmniMQkAI6tfKO/B0BWTYKhQACCCCAgLcCG3/aIXtyi6RZB2ZK8daS44NTIKN5gmT+nhOchafUCCCAAAIBK7CzYKdsz9smPY/vHbBlpGAIVJdArahaUlhUWF2n57wIIFCFAgRyqxCbUyHga4GsHF0jlwuGvnYlP98LpMSmyq49u+SA9R8JAQQQQACBUBP4ddEmadG1nkTWrBFqVaM+CLgloOvkZq4hkOsWFjshgAACCLgtsCt/p8RHJ0gN6z8SAgiUFIiKqClF+4tKbuQVAgiEpABr5IZks1KpcBHYpiNyCeSGS3MHdT11RK5YQdzt1vTKaXFpQV0XCo9AOAssWvy+fP7FVxIdHS3dunWV9me0K5Nj3vwF8tPKn0u839065vTTTjXb9u3bL0s++0w++vg/Ur9+Pelxfnc5uvlRJfY//MXGjZtk3oIFsvrX1ZKeniHndOksHTu0d+ymeQ65crj07nmhDOjfT7797gdZuGix4/2M2unS7rTTpG2bkx3beIKALwT++CJTBjxT/Nn2RX7kgUCwCWggNzezQJ7p8ZnXRY9JiJLLXj5douO4XOE1JhkggAACQS6ws2CHFF9PCPKKUHwE/CAQFRllBXL3+iFnskQAgUAT4JtRoLUI5UHAA4Gs3CypncCIXA/I2LUaBeol1pNNO/8mkFuNbcCpEfBG4Kmnn5XpzzwnVw2/UnLz8mTw0Ctl+rQp0u28ri6znb/gPSnYUyBtTj7J8X5U1KGu50uvvCpPTH1SRgy7QlavXm09nyafffKRNGp0hGN/5yfLv1khI0aOkvr16kqXLmdLdlaWDB02QoYMGiT33nOn2TUyMkJatmwhdevVMa/XrFkjs9+ZK0MGXyYHDhyQ5ctXyKTHHpdHJk6Qfv36OmfPcwQqLbBnd/Fd8En1YiudBwciEOwCUTERMnLRWR5VY8vWTKlbp/R3mZcu/lLythcSyPVIk50RQACB0BTQqZWTayWFZuWoFQJeCtSM0EAuI3K9ZORwBIJC4NDVtKAoLoVEAAFbYPn6ZXJkahOrQ5tsb+IRgYAWOCKlkfy1fZ0cX/+EgC4nhUMAgdICGgR96eVXZeL4++XCHuebHeLj4mTGzNllBnL/XLtWbrp+tPTp3bNUhlu3bpUJDz4kr7z4vGNE7fCrr5H/m/CgPDN9Wqn9CwsLZeztd8pZHTvIE5MniQZsNfXp3UsGXzFMup7bRdqfeYbZ1q9vH6njFBioUztDxtx8k3lPf02eMlVefu0NArkOEZ54K1CYu1ciYyKZVtlbSI5H4KBAVKx1UTJvPx4IIIAAAgiIBnKTaukMXyQEEDhcIMoEchmRe7gLrxEIRQHWyA3FVqVOYSHw9Z9fSodmHcOirlQyNAQapRwpf+9YHxqVoRYIhKHAqy+/IOd26eKoeWRUpGiA1VXav3+/bNiwQeLiY+Wrpcvkzz/Xltjtf7/9Lulp6Y7gq745eNBl8vWy5SX2s1/oaFzNb4IVSLaDuPqeBm8fmjDe2hZp7yo3jxknSz4te2rPmOgYKdrHXcsOMJ54LbBn9z7RqWBJCCDgG4Gacda/L/n8f9o3muSCAAIIBLfALh2RG8sAhuBuRUrvL4GoSGuNXL7b+ouXfBEIKAGuOARUc1AYBNwT0Gkzlq9fKo+dPNW9A9gLgQAQaJzaWD7+7cMAKAlFQAABTwVq1KghLVsc6zhMR9Q+/czzct89dzm2OT/Jzs42L68ZNdoEbLO3ZcsZ7drJ889Ol9hateSvv9ZJ86OPkoiIQ/cUHtGwoeTm5sjOndbFmuSSF2t0/6ZNmkhSYqLzaczz/hdfVGqb84atmVny+htvmamV/7ACynPmzpOpT0xy3oXnCHglUGCNyCWQ6xUhByNQQiA6NlL25u0rsY0XCCCAAALhKbAjX6dWZkRueLY+ta5IoHiNXG5+q8iJ9xEIBQECuaHQitQh7AS++/tbqZNQVxokNwi7ulPh4BVonHqkrNu2LngrQMkRQMAI5OTkytDhV0uHM9u5nDZZd0pKSpI3X3tFjmzcSOrXr28Ct/0vuVyefvY5M93y7pwcqRlVs4RoYkKCeZ2bm1sqkJtfkC9p6WmO/bUMF/Q+tMbteV3PkTtvG+d43/mJBoeXLf/GbNq0eXPx48Z/nHfhOQJeCegauQRyvSLkYARKCERbUysX5hPILYHCCwQQQCBMBXRq5YYpDcO09lQbgfIFdGrlvfuYWrl8Jd5FIDQECOSGRjtSizATYFrlMGvwEKluk7SmklO4W3bk75CUWO6oDZFmpRphJrBnzx4ZNfoGiYmOlscefbjEiFpnipiYGGl3+mmOTU2aHCnDrhwq/1myxARymxzZWN6eNdvxvj7Jyt5mXtetW6/Edn3R6rjj5MGHH5V9+/aZaZRr1Yqx1ut9wOx365jbpKiw7LuQdSTvtCmTHXkufv8Due76G6Vbt67WaOFDwWHHDtaT3Nw8ybECynaqITXkgPWfv1JmVvEIZn/lT76+ESirnTI3WZ/d6H2yZWumb05ELl4LlNVWXmdMBj4VKKud9kcVSfaW7ZK0tYZPz0dmlRcoq60qn2P4Hlm3Tu3wrTw1R6ASArus6wfJMSVn66lENhyCQEgK1DRr5Jb9XTgkK02lEAhTAQK5YdrwVLt6BUbOHC6bd3s3Gmj6xc9XbyU4OwIeCuidgvUS65l1cgnkeojH7ggEgMC+ffvl1rG3ycaNG2XOzLckNja2zFJt2rRJ5r37ngy7Yqho0FWTrqcbHxdnnjdu3Nisebt+/XrR55q+XrpUmh91VIk1cM0b1i97Wud3FyyUvn16SVRUlJzZ7nTRkbk6urftKW3sXSt8PNNaV1fT+vUbygzkxsfHif5UZeLCblVqV/5crtrpn4gCSbLuCXD1XuXPxJHeCtAe3gpWzfGu2ikxZZvUiozjb6pqmsDts7hqK7cPZkcEEECgkgI6IpfrB5XE47CQF4iKqMmI3JBvZSqIQLEAgVw+CQhUscDy9cskJipG5g9fVMVn5nQIVL/AESmN5K/t6+T4+idUf2EoAQIIeCRw3wPjZeHi9+X1V1+WHTt2mh/NQEfbHjhwQO57YIJ07txROnfqZE2tnCyPPjZZtlojFIddMVh0bdrnX3xZbh97qzlnq+NaSqeOHeSuf98vt48bI9u2b5cp06bLhAfuc1mmNGvk7H333C23jB1n9m1vBWN1Hd7Hp06TtLRU6dj+TJfH6cb8/AIztbM+/2v9OpkzZ64+lRbHHmMe+YWAtwJ7cnRq5Uhvs+F4BBA4KFAzLkIKWSOXzwMCCCCAgCWw01ojN6kWI3L5MCDgSkADuUX7GZHryoZtCISaAIHcUGtR6hPwAkyLHPBNRAH9KNAo5UgzItePpyBrBBDwg8B2K9D6+ptvmpwHDbmixBl+/3WV7N1bJHPmzpNasbVMIDchIV7eev1VGXv7nfLq669bo1sT5KrhV8pllw40x9aoUUMm/t/9ViD3PrmgVx9rZGy6XGkFfHte2KNE3s4vBg+6zLycOfsdGT/xQZOnjsp9asrjJdbUjYo81L2NiIiQzVs2S5fzuptjtRxt25wk78x6u9wRxc7n5TkCFQnsydkrcenFI88r2pf3EUCgYgFdI3dvPhclK5ZiDwQQQCD0BXbt2Smpca6XQwn92lNDBMoX0Jmq9hHILR+JdxEIEYFDV7pCpEJUA4FAFtC7pJavXyqPnTw1kItJ2RDwm0Dj1Mby8W8f+i1/MkYAAf8IpKamyp+//Vpm5pGRkfLDiqVmymN7p9NPO1U+++RD2blrlyQmJJRaT7d+/frywrNPWyNm8yU6OsbllMp2XvajBnP1Z9fu3dY0zfEuj1kw79DauwP69xP9ISHgT4FCa0RuauN4f56CvBEIK4GacVGSt70wrOpMZRFAAAEESgvojHZHpjaRZEbklsZhCwKWgI7ILdy/FwsEEAgDAQK5YdDIVDFwBL77+1upk1BXGiQ3CJxCURIEqlCgceqRsm7buio8I6dCAIGqEtC7gV2l5KQkV5sd28pba9ex02FPkhITD9vCSwSqT2BPzj6JSXT9+a++UnFmBIJXoGZspOzNY0Ru8LYgJUcAAQR8I8CMdr5xJJfQFagZESVFRfSZQreFqRkChwS44nDIgmcI+F1g6dqvpEOzTn4/DydAIFAFNJCbU7hber9Q9vSp7pY9PjpeXhj4isRGx7l7CPshgAACCCDgc4ECa2rlWvE1fZ4vGSIQrgLRcZFSmL8/XKtPvRFAAAEELAFmtONjgEDFArqsEGvkVuzEHgiEggCB3FBoReoQNALL1i2VR3tNDpryUlAEfC0QHRkt84cv8ijbLVszpW6d2qWOGfjKRbLTWi+HQG4pGjYggAACCFShwJ7dRRKdGFmFZ+RUCIS2gAnk5jK6JLRbmdohgAAC5Qswo135PryLgAro1MoEcvksIBAeAn4J5C5a/L58/sVX1npn0dKtW1dpf0a7MjXnzV8gP638ucT73a1jdF01Tfv27Zcln30mH338H6lfv570OL+7HN38qBL7H/5i48ZNMm/BAln962pJT8+Qc7p0lo4d2jt20zyHXDlceve80Kyb9u13P8jCRYsd72fUTpd2p50mbduc7NjGEwS8FcgvzJP8vXlSO7GOt1lxPAIIWAIxNWOsv6kCLBBAAAEEEKhWgcLcvdbUyozIrdZG4OQhJaBr5O7NJ5AbUo1KZRBAAAEPBZhW2UMwdg9LgSidWnkfa+SGZeNT6bAT8Hkg96mnn5XpzzwnVw2/UnLz8mTw0Ctl+rQp0u28ri5x5y94Twr2FEibk09yvO+8xtpLr7wqT0x9UkYMu0JWr15tPZ8mn33ykTRqdIRjf+cny79ZISNGjpL69epKly5nS3ZWlgwdNkKGDBok995zp9k1MjJCWrZsIXXrFQfU1qxZI7PfmStDBl8mBw4ckOXLV8ikxx6XRyZOkH79+jpnz3MEKi2QawVxa9SoITGRMZXOgwMRQOCQQK3IWrKniEDuIRGeIYAAAgh4IvDa4GWSl73Hk0PK3DcuNbrM93gDAQQ8E4i2ArlMreyZGXsjgAACgSawq2CXXDvrKrO0UmXL9vTFL1T2UI5DICwEdNa7ov37wqKuVBKBcBfwaSBXg6AvvfyqTBx/v1zY43xjGx8XJzNmzi4zkPvn2rVy0/WjpU/vnqXaYuvWrTLhwYfklRefd4yoHX71NfJ/Ex6UZ6ZPK7V/YWGhjL39TjmrYwd5YvIk0YCtpj69e8ngK4ZJ13O7SPszzzDb+vXtI3WcpuqsUztDxtx8k3lPf02eMlVefu0NArkOEZ54K6AjcuNqxnubDccjgMBBgZioWlLAiFw+DwgggAAClRAotEb7aRB3+NyOEhVT/J2homzKmuq/ouN4HwEEPBOoGRshhXmMyPVMjb0RQACBwBL4+LcPpXFqY5l44SOBVTBKg0AICUTWiJD8fQxwCKEmpSoIlCng00CunuXVl1+Qpk2aOE4YGRUpGmB1lfbv3y8bNmyQuPhY+WrpMqlft640a9bUsev/fvtd0tPSHcFXfWPwoMtk9A23OPZxfqKjcTW/BfPmOIK4+r4Gbx+aMN7admjtqpvHjJMRVwwtM1AbEx1jTU3Al0dnX557J5BnjciNj47zLhOORgABh0BMTSuQy4hchwdPEEAAAQTcFyjK2292djeI637O7IkAAt4KRMda0wTmMbrEW0eOR6AyAgveWyTf//Cj3HjDvyQ5KcmRhSdLqOlBLHnmoAvbJ4t/fU8GtR0atvWn4ghUhUBUpLVGbmFOVZyKcyCAQDULuHf7uZuF1GljW7Y4VmrVKp46VkfUPv3M86KjX12l7Oxss/maUaPlxptulXO795DLh1wp+QXFd5L89dc6aX70URIRcaiYRzRsKLm5ObJz585SWer+GkROSkws9V7/iy+SdqefVmq7vWFrZpa8/sZb8trrb8q9948300OPG3Oz/TaPCHgtkFeYK7E1CeR6DUkGCBwUiLVG5O5hRC6fBwQQQACBSggUFhSJrsNJQgCBwBOIioswSx4V7Sm+4SLwSkiJEAg9gczMTBl57b/khptvkVdee03yraXS7KRLqI27425p0KC+xMbFmiXUPvjwI/vtUo86yKL7hb1l/vwF0vCII8w1PF3yTK+12amsJc90oEdsXC2z5Fn/Sy6TOXPm2ofwGEQCKzf9JDl7cuXMZh2CqNQUFYHgE6ipgdwi1sgNvpajxAh4LuC3qxc5ObkydPjV0uHMdi6nTdaiJll397352ityZONGUr9+fdFAbP9LLpenn33OTLe8OydHakbVLFGrxIQE8zo3N1eSk5NLvJdfkC9p6WmObVqGC3ofWuP2vK7nyJ23jXO87/xEg8PLln9jNm3avLn4ceM/zrvwHAGvBBiR6xUfByNQSoARuaVI2IAAAggg4KZAUf5+iY7321chN0vBbggg4EpAR+RGxkTKrk3W9/umLE3jyohtCPha4K23Z0l0dE15+83XZeBlgxzZe7qEGkueOejC+sn7qxfLOcd0lZoRJa/phjUKlUfADwJREVGydz+BXD/QkiUCASfgl6sXe/bskVGjb5CY6Gh57NGHS4yodRaIiYkpMUq2SZMjZdiVQ+U/S5aYQG6TIxvL27NmOx8iWdnbzOu6deuV2K4vWh13nDz48KOyb98+M42yjgyeOP4Bs9+tY26zphooe6pkHck7bcpkR56L3/9Arrv+RunWras1vfOh4LBjB+tJbm6e5FgBZTvVkBpywPrPXykzq3gEs7/yJ1/fCJTVTpuztkjE/ijR9dVIgSFQVlsFRukohS1QZjsV1ZCt27P4m7KhAuCxzLYKgLIFWxHq1qkdbEWmvAgElYCuvxlV69CsP0FVeAqLQBgItOxWT76fsU7Ovf24MKgtVUSg+gWGWMuYpaSkmAEWh5fGkyXUWPLscL3we709f7v8d8sqmdDjofCrPDVGoIoFzNTKB1iOoorZOR0C1SLg80Duvn375daxt1nrYWyUOTPfktjY2DIrtmnTJpn37nsyzFqr1p6OWe/ei48rnn62cePGZs3b9evXiz7X9PXSpdL8qKNKrIFrn0Cnddb07oKF0rdPL4mKipIz250uOjJXR/e2PaWNvWuFj2da6+pqWr9+Q5mB3Pj4ONGfqkxc2K1K7cqfy1U7RW2NlNTEVHH1XuXPxJHeCtAe3gpWzfGu2iklMUWia0XxN1U1TeD2WVy1ldsHsyMCCCBQRQJ7rfU3o2Mjq+hsnAYBBDwVOHlAY3nzyuWyfUOepDaq2u/cnpaV/REIBQEN4rpK9hJq9nv2Emr33XOXvanEY0VLnpXY+bAX9pJnOgr4jz/Xypy582TqE5MO24uXgS4w68e3pWXdVtIguWGgF5XyIRD0AjUjIqVoX2HQ14MKIIBAxQI+D+Te98B4Wbj4fXn91Zdlx46d5keLoaNttTN23wMTpHPnjtK5UydrauVkefSxybLVGqE47IrBpqP2/Isvy+1jbzUlb3VcS+nUsYPc9e/75fZxY2Tb9u0yZdp0mfDAfS5rlmaNnL3vnrvllrHjzL7trWCsrsP7+NRpkpaWKh3bn+nyON2Yn1/guPPwr/XrHOtwtDj2/9m7E/goyvMP4L9kz9whJ4QrHJZDrQKKyKGIcojI0Yhayo1Ha1trVQ7/HhWVQytyVi3V1gMvIIBGwLP1qoKoaLWFKmdiIOQAcmz2Tv7zTppNQrIh2XNm5zd+lszOzPvO837fBTf77Pu+P/Fahico0B4Bq7MasUZ+CNEeM15LgdYEzHoT7O66NdVbu47nKEABClCAAmcKOKwikRvwX4XOvA2fU4ACPgrEphjR7+pO+HLDEY7K9dGQxSgQaIG2LKHGJc8Cra6u+gpO5eOzI//EQ+Ma1kNWVwsYLQXUJWDQGaVELkfkqqvXGC0FfBMI6KcXp6RE64aXX5YjmT5zdpOIftj3HZxOl/yNOnOMWU7kxsfH4ZUNL2DBPffihQ0bpNGt8bh53hxM+/kNclnxzb9ljzwkJXIX45qJk6WRsamYIyV8r50wvkndjZ/MkKaDEdvGzVuwZNlyuU4xKvfJNauarKmr1zU0PTo6GkUnijBqzDi5rIhj0MALsWXTa62OKJYv5h8UaKOAxS4lcg1c46mNXLyMAmcVMBvMqHZUn/U6XkABClCAAhQ4U8BldcEQxxG5Z7rwOQWUJCBG5b44/TNcNLMayZ35hVgl9Q1j0Z5AW5dQC/eSZ9XVVsTGep8Z0N+e41Iy3gWLKo/hsX8uxfje18LojFHMEkjsM+99ptQz7LO290xVhQXVNkvY/76xz9reZ0q5kn0W+J6Ij4sL6uy9DdnMAMTeoUMHHPp+n9eadDod9u75TJ7yuP6iSwZfjA/ffwflFRVIiI9vtp5up06d8Oz6p6URs1YYjaYWp1Sur6v+p0jmikdFZaU0TXNci2XytjWsvXv91ByIBzcKBFPA6qpGRnxGMG/BuimgKQGTzoyTrrp10zXVcDaWAhSgAAX8FrCLqZXNTOT6DckKKBBEATEqt9eIdOzbUYRLb+4ZxDuxagpQoDWB9iyhxiXPWpOM7HML3rsDNwz8OSaeN1lxDeXyP4rrkrMGxD47K5F8QVp1KqKPRytiyTH2Wdv6TElXsc+U1BtnjyWgidyz3w5NkriNr09KTGz8tNl+a2vtNrv4fwcSExK8neJxCoRcwCKNHIzh1Mohd+cNI1fApDfD5rRHbgPZMgpQgAIUCJqAWCNXH8tEbtCAWTEFAiTQb3wW3n7k3xg8uwd0hqgA1cpqKECB9gi0toTamfVwybMzRbTxfHf+LiSZkxSZxNVGD7CVWhXQRengrHFqtflsNwU0JRDyRK6mdNlYCjQSsDosiNVzSrBGJNylgF8CMQZpjVyX1a86WJgCFKAABbQp4JSmVuYaudrse7ZaXQKdL0iGKU6PQ5+U4JwrOLuRunqP0apRQFrhTN7EUmdiO9sSamLmvTM3Lnl2pkjkP//00CcY3nNE5DeULaSAwgQMOgNcNS6FRcVwKECBYAgwkRsMVdZJgRYExIjcWBPXyG2Bhoco4JNA3Yhcm09lWYgCFKAABbQt4LDWICnZoG0Etp4CKhE4d0IW/rPjGBO5Kukvhqluge7duzdZMu1sS6h5ay2XPPMmE3nHRRJpd/5neGLA2shrHFtEAYUL6KP1cLmZyFV4NzE8CgREgIncgDCyEgqcXcDqrEacgSNyzy7FKyjQNgGzIQZWFxO5bdPiVRSgAAUo0FjAJY3INcTwC3aNTbhPAaUK9B3dEV+8eAR/Hv+hzyHGdjDh+qcvgimBH4H4jMiCFPBBgEue+YCmsiJf/vgFMuIzkZWUpbLIGS4F1C+g1+nhdHNqZfX3JFtAgbML8LeYsxvxCgoERKBaSuTGMJEbEEtWQgEhYJbWyLU7mcjlq4ECFKAABdov4LC6pUQufxVqvxxLUCD0AuYkA2563b8pOzfd9gWK/l2O7kNSQ98A3pECFKBABAtwWuUI7lw2TfEC+mgxtTITuYrvKAZIgQAI8NOLACCyisgWmP3KdJzf8ae4ccA0dE7u4nNjrQ4r4owc+eEzIAtS4AwBs8EMh9t+xlE+pQAFKEABCpxdwFEtErnRZ7+QV1CAAhEhkNkvEUX7KpjIjYjeZCMoQIFACty6cR6KKo/7VeVT1z3jV3kWpgAFfBOoS+S6fSvMUhSggKoEmMhVVXcx2FALONwOnKo+ieioaNyWe4vft080J/tdByugAAXqBMx6aWpljsjly4ECFKAABXwQcFZLUyvH8lchH+hYhAKqFMjsl4Tv3z2hytgZNAUoQIFgCXxTuBdOaTTf6/N2BOsWrJcCFAiigEFaI5dTKwcRmFVTQEEC/PRCQZ3BUJQnYHVa5aDuuPwu/H7k3W0K8ERxCTIz0tt0LS+iAAV8FzDpTbBxjVzfAVmSAhSggIYF6qZW1mlYgE2ngLYEMvsl4OM//YDaWiAqSlttZ2spQAEKeBMQ69te0u1Sb6d5nAIUULhA3Yhcl8KjZHgUoEAgBDifWCAUWUfECtilJJFBWm8gir/tR2wfs2HqFRCJXKc0ar5WfCLHjQIUoAAFKNAOAZe1BsYYJnLbQcZLKaBqgeTOsYjWRaHsYJWq28HgKUABCgRS4MuCLzCo60WBrJJ1UYACIRTQ6/XSGrlM5IaQnLeiQNgEmMgNGz1vrAYBm9MOk96shlAZIwU0JxAjrZErNhunV9Zc37PBFKAABfwVcEhTKxs5tbK/jCxPAVUJdDo3SV4nV1VBM1gKUIACQRIotZTiRGURLuh8YZDuwGopQIFgC+ilqZXdTOQGm5n1U0ARApxaWRHdwCCUKuBw21GfLFJqjIyLAloVqP+SRZWzCjHGGK0ysN0UULXAjp1v4aOP/wmj0YixY0dj2KVDWm1PYeExbMvLw/59+5GamoYrR43EiOHDPGXc7hrMnDMPk66dgOun5uCLL/di+46dnvNp6akYMngwBg0c4DnGHe0JiIkcalw1MMTwO63a6322WMsCmX0TULy/Arg2S8sMbDsFKEABWeCLgs9xXqfz5VnoSEIBCqhTQCRyxSZG5dbvq7MljJoCFDibAD+9OJsQz2tawOqohlGavpUbBSigTIELswbgq4I9ygyOUVGAAq0KPPn0eiz8v/uRldUJMbExmDFrDt5+512vZXZ/vgfjJkzC66/noXOXLrBYqjBr7k148KElnjI6XTT69euLzI4Z8rEDBw5g85atiI2Lke5hxu7dezD1xmnIzd3qKcMd7QnYK51yo43xBu01ni2mgIYFMvolckSuhvufTacABZoKfCn9Hj2wy8VND/IZBSigKgGDru73GU6vrKpuY7AU8EmAI3J9YmMhrQjYpDVyzf+bvlUrbWY7KaAmgeE9L8NHBz/A2L7j1RQ2Y6WA5gXE2tZ/e+4FLFvyECaMv1r2iIuNxasbN2PsmNHNfBwOBxbccy8uHzEcq1eugEjYim3ypImYMXsuRl81CsOGXiofy5kyGRkZ6fK++CMjPQ3z7/y95/nKNWvx3IsvISdniucYd7Ql4LLVQGfSISpKW+1maymgdYHMvomoLLLCVuGEOZFf5ND664Htp4BWBUosJdj89WvYW7gX84bcolUGtpsCESFg/t9ygC63tE4uszwR0adsBAW8CfCvuDcZHqeAJGCTplau/58iQShAAeUJDMkeiqc//RMq7ZVIMCUoL0BGRAEKeBV44bln0SM723Nep9dBJGxb2sRo3IKCAuRty/UkccV1Inn76NIl0jGdp9id8xfiptmzvCZqTUYT5F90PSW4ozUBh8UFg7nhNaO19rO9FNCqgPh736FbLEr+W4muF6dolYHtpgAFNCogEribvn4Vb+/fict6jsTqyevQMaGTRjXYbApEjoBBZ8QvNlzvU4PijHG4b8yD6J95rk/lWYgCFAidABO5obPmnVQoYHfaYNKZVRg5Q6aANgRE8va8jufj08Mfc1SuNrqcrYwQgShpKGS/vn08rSkuLsbTf34Gix+4z3Os8c6RI0flpG9iQvMvbEy97meNL222X1xSig0vvQIxCvjgocPI3boNa1evaHYdD2hHwGFlIlc7vc2WUqCpQFqvBJQcZCK3qQqfUYACahD45cZ5OF553K9QRQL3yZz16Jzcxa96WJgCFFCOwObZ23wO5uPDH+Ght/+AB8YuZjLXZ0UWpEBoBJjIDY0z76JSAZvLDpOBa+SqtPsYtkYEOL2yRjqazYxYgaoqC2bNuwXDhw6Rpkq+tsV2Wm1WpKQ2jJ4SZa6Z1DA18pjRV+LeRQtbLCvW0t21+3P53LGiorqfhf59CNbijXhQNQLO6hoY4zgiVzUdxkApEECBtN7xOP5deQBrZFUUoAAFgi+wJ383TNIUqq/P2xH8m/EOFKCAZgRG9LhMbus9b86Xf4p/Z1ZMXIWuHbppxoANpYBaBJjIVUtPMc6wCDikRG6sPjYs9+ZNKUCBtglcmj0M6z5ZjR9P/4gu/GZx29B4FQUUImC323Hbb38Hk9GIJx5/DNHRdWvfnhneuf37Y/ljj8PtdsvTKJvNJml93Yfly+6evwguh7QmkJdNTN+8bs1Kz9mdb72NX99+B8aOHY3UlIbksOcCacdiqUaVxeI5FIUo1Er/BWsrKS0LVtWstwWB4hNSEkdfgxPFJS2c9X6I/eTdRmln2FdK65GW4wlHP+nSXSj6b3m7//633ALtHA1HX0WqbmZGeqQ2je0KosAnhz7GsJ7Dg3gHVk0BCmhVQCRzR8yrS+iu/+xpvLz3JSwcdY9WOdhuCihWgIlcxXYNA1OCgM1lhdFgVEIojIECFPAiEG+KxzDpjadY62fekJu9XMXDFKCA0gTc7hrcvWARCgsLkbvxFcTExHgNsX4a5jfytmPK5InQ6/UYOuQSiJG5lVVVGHTRQK9lzzwxVFpXV2z5+QVeE7lxcbEQj1Bu/GA3dNqnjW7EJtngi7kvZULXMt6psQD7qrGGcvdD3U+pSan4ZOlRdIjrII3M58ch7XllhLqv2hMbr6VApAvszt+FJwasifRmsn0UoECYBa674HrcunEuJj073q9IOLLXLz4WpkCLAvzNpUUWHqRAnYCNa+TypUABVQiM63s1lr33CGYOng1DtEEVMTNICmhdYPHDS7B951vY8MJzOH26XH4Ik+zs7s1oUqSRs4sfuB93LViIk6dOYZiUjC0rK8OqteuQktIBI4YNbVam/oDVaoNYY1dsR/KPIjd3q7zft89P5J/8Q3sCjmo3jOaWR39rT4MtpoC2BPSmaCR1icWJ/1Sg68Utz8qgLRG2lgIUULqASOJmxGcgKylL6aEyPgpQQOUCKbEp2OTDmrtipqPGX/jiyF6VvxAYviIFmMhVZLcwKKUIiDVyO8R0UEo4jIMCFPAi8NOsCxBvisOnhz7B5b2v8HIVD1OAAkoROCUlYze8/LIczvSZs5uE9cO+7+Tpk5sclJ7MmD5NPrRx8xYsWbZcGjEbL4/KfXLNKiQlJXku1+sa3t6KqZqLThRh1Jhx8nlRZtDAC7Fl02utjgD2VMadiBRwWl0wxDa8TiKykWwUBSjgVSC9VwJKDlYyketViCcoQAElCYjfcYf3HKGkkBgLBShAgVYFxMjeW16bg4JT+Vxvt1UpnqRA2wX4CUbbrXilBgXsYkRugkmDLWeTKaA+gav7TcBb+3cwkau+rmPEGhTo0KEDDn2/r90tF8lc8aiorERcbJyU8G0+qjJv22ZPvddPzYF4cKNAYwFndQ0MMbrGh7hPAQpoSCDtnHgU/VtaK5sbBShAAYULlFhK8MHBv+Pp655VeKQMjwIUoECDgBjZO67feLy692XMH7Wo4QT3KEABnwWYyPWZjgW1IGB32xFj8L5mnxYM2EYKqEXgqp+MwctfbfBrLY9kaQT+n3LWy6N71dJuxkkBLQokJiRosdlsc4AEHNKIXHMip+EPECeroYDqBNKlRO63rxeqLm4GTAEKaE9g9YcrcOOAX6BTUiftNZ4tpgAFVC3ws59OxS3Serv50qjcbh26qbotDJ4CShBgIlcJvcAYFCtgdVTDpOeIXMV2EAOjQCOBRHMiNvuwlkejKnCzNPXL4bIDOF+aqpkbBShAAQpEpoBTWiM3sSO/qBeZvctWUeDsAmm94mEpseHP4z88+8VnXBGTZMQN6y+WZm3iRyln0PApBSgQYIGd+7bjtPU0rh9wY4BrZnUUoAAFgi8gRuWO6TMOr+x9CQtH3RP8G/IOFIhwAf72EeEdzOb5JyBG5JoMZv8qYWkKUEA1AuJbgkdP5zORq5oeY6AUoAAF2i/gsLphjGk+LXf7a2IJClBAjQJGaY3sW3dc7lPor966B8X7K7i+rk96LEQBCrRH4IU9z2HJNY9CF8XlINrjxmspQAHlCIi1cue8Mh2rPzRB7HdO7qKc4BgJBVQmwESuyjqM4YZWwOaSErk6jsgNrTrvRoHwCXRN7o4fpUQuNwpQgAIUiFwBMSLXICVyuFGAAhRor0BG7wSUHKxkIre9cLyeAhRol8Ce/N1Ij09Hz9Se7SrHiylAAQooSUCMyn3mxuex6etXcVvuLX6HFmeMw31jHkT/zHP9rosVUEBtAvwEQ209xnhDKmB32mDWc0RuSNF5MwqEUUCMyH3v+3fCGAFvTQEKUIACwRZwSmvkGmL4a1CwnVk/BSJRIK13PI5/Vx6JTWObKEABBQn889AnGN7zMgVFxFAoQAEK+CaQHpeO24b9Vn74VkNDqU8Of4R73pzvOXBZz5HSOuLTONLXI8KdSBbgJxiR3Ltsm98CNpeUyOXUyn47sgIKqEWgW4fuOHryqFrCZZwUoAAFKOCDgJha2RDLqZV9oGMRCmheIP2cBPxrW6HmHQhAAQoEV2BX/md4YsCa4N6EtVOAAhRQmcDwHpdh+Ly6L7mUWEoCMtI3OaYD1uU8jQRTgso0GK7WBJjI1VqPs73tErCLRC5H5LbLjBdTQM0C2Sk9UOWoxGnraSTHJKu5KYydAhSgAAW8CLjkNXL5a5AXHh6mAAVaERCJXEuJDQ6LC8Y4/jvSChVPUYACPgrszt+FjPgMZCVl+VgDi1GAAhSIfIFAjfRd9Obd+KLgc1zR+8rIR2MLVS3Ar6KruvsYfLAF5DVyOSI32MysnwKKEdBH66VfmjNRcIqjchXTKQyEAhSgQIAFxNTK+hj+GhRgVlZHAU0I6E3R0Jt0sFY4NdFeNpICFAi9wKfytMojQn9j3pECFKCABgUGdrkIXxV8qcGWs8lqE+BXSNXWY4w3ZAK1tbVw17hg0nGN3JCh80YUUICAWCf36Ol8nJ91gQKiYQgUoAAFKBBIgepTDjiq3YhJNAayWtZFAQpoSMAQo4PbXqOhFrOpFKBAWwTqp/l8e//Otlze6jVPXfdMq+d5kgIUoAAFAiNwUdeL8fq3WwNTGWuhQBAFmMgNIi6rVreAxVEtNyDGYFJ3Qxg9BSjQLoGuyd3xo5TI5UYBClCAApEnsPe1fPQakQ5TAn8NirzeZYsoEBoBnTEaLhsTuaHR5l0ooA4BkcT9be6vcHHXwXgyZz06J3dRR+CMkgIUoIDGBXqm9oJBb8D3Jf/FT9L7aFyDzVeyAOcUU3LvMLawCtjdNvn+Bh1HbIS1I3hzCoRYQIzIzefUyiFW5+0oQAEKBF+g+qQD+3Yex6Dp2cG/Ge9AAQpErIDBHA2n3R2x7WPDKECB9gs88Y9HMfG8ybjrigVM4rafjyUoQAEKhFVgYNYgaZ3cPWGNgTenwNkEVPFV9B0738JHH/8TRqMRY8eOxrBLh7TarsLCY9iWl4f9+/YjNTUNV44aiRHDh3nKuN01mDlnHiZdOwHXT83BF1/uxfYdDVOfpKWnYsjgwRg0cICnDHe0J2B32hBjiNFew9liCmhcoFuH7jh6kmvkavxlwOZTgAIRKLB3Yz6yh6SiQ9fYCGwdm0QBCoRKQG/WwWVlIjdU3rwPBZQusHPfdlTaq3DDgJ8rPVTGRwEKUIACLQgM7DYIW/+Vi2kDp7dwlocooAwBxY/IffLp9Vj4f/cjK6sTYmJjMGPWHLz9zrte9XZ/vgfjJkzC66/noXOXLrBYqjBr7k148KElnjI6XTT69euLzI4Z8rEDBw5g85atiI2Lke5hxu7dezD1xmnIzeX86B40De7YXHaYmcjVYM+zyVoX6CqNyK1yVOK09bTWKdh+ClCAAhElsO/tIgy8sXtEtYmNoQAFQi9gMOnhcnBq5dDL844UUKbAc58/izsuvxu6KJ0yA2RUFKAABSjQqsDAzoNwoPQHlNvKW72OJykQTgFFj8itra3F3557AcuWPIQJ46+WneJiY/Hqxs0YO2Z0MzeHw4EF99yLy0cMx+qVKyAStmKbPGkiZsyei9FXjcKwoZfKx3KmTEZGRrq8L/7ISE/D/Dt/73m+cs1aPPfiS8jJmeI5xh1tCdhdNpg4rbK2Op2tpYAkYNKZ0DGhE46cPIwLO3NmBr4oKEABCkSCQOnBKkTro5DSIy4SmsM2UIACYRTQi6mVbRyRG8Yu4K0poBiBosrjcLgd6J3WWzExMRAKUIACFGifQKwxDhdmDcCuI//E2L7j21eYV1MgRAKKH5H7wnPP4qpRozwcOr0OImHb0iZG4xYUFGCplPitT+KK60Ty9tGlS6RjDd+Ou3P+Qnzwjw9bqkY+ZjKa4HK7vJ7nicgXkBO5enPkN5QtpAAFmglkp/bE4bJDzY7zAAUoQAEKqFOg9EAVMnonqDN4Rk0BCihKQF4jl1MrK6pPGAwFwiVwrLwQnRKzwnV73pcCFKAABQIkMLznZfjk0McBqo3VUCDwAooekRsVFYV+fft4Wl1cXIyn//wMFj9wn+dY450jR46iR3Y2EhOaf0gz9bqfNb602X5xSSk2vPQKxCjgg4cOI3frNqxdvaLZdTygHQGrGJHLRK52OpwtpUAjgR4p2dI6uUcaHeEuBShAAQqoWaD4QCXSz2n+O4Ka28TYKUCB8AjojDq4ObVyePB5VwooTOBYxXEmchXWJwyHAhSggC8CQ7KH4ulP/ySteV6JBBN/b/TFkGWCK6DoRG7jpldVWTBr3i0YPnSINFXytY1PefatNitSUlM8z0WZayY1TI08ZvSVuHfRQs/5xjtiLd1duz+XDx0rKqr7WXi88SXc15iA3WmDWW/SWKvZXApQQAhkp/TEp4f/SQwKUIACFIgQgdIfKnFBTtcIaQ2bQQEKhFNAHyNNrcwRueHsAt6bAooROF5+DFmJnRUTDwOhAAUoQAHfBETy9ryO50ufBX7M6ZV9I2SpIAuoIpFrt9tx229/B5PRiCcefwzR0S3PCH1u//5Y/tjjcLvd8jTKZrNJWl/3YZnw7vmL4HJ4nypZjORdt2alh3vnW2/j17ffgbFjRyM1pSE57LlA2rFYqlFlsXgORSEKtdJ/wdpKSsuCVTXrbUGg+GQJotzROFFc0sJZ74fYT95tlHaGfaW0Hmk5nnD0U0JNIvJPH0XRiWKI2SG4tU0gHH3VtsjUd1VmRrr6gmbEFFCogK3ciZLvK5HZN1GhETIsClBATQJGs176bKFGTSEzVgr4JeB0OvHqa5vw5d69yJDeo04YPx4/Pf+8VussLDyGbXl52L9vP1JT03DlqJEYMXyYp4zbXYOZc+Zh0rUTcP3UHHzx5V5s37HTcz4tPRVDBg/GoIEDPMeUuHO88hgu6nqxEkNjTBSgAAUo0E4BMb3yRwc/YCK3nW68PDQCik/kijd3dy9YhMLCQuRufAUxMTFeZeqnYX4jbzumTJ4IvV6PoUMugRiZW1lVhUEXDfRa9swTQ6V1dcWWn1/gNZEbFxcL8Qjlxg92Q6dtPGFEUnwSfDH3pUzoWsY7NRZgXzXWUO5+qPspE+kwfmSCzWCRRuf2UC6MAiMLdV8pkIAhUYACChPY/24ROp6bhPh0zrSisK5hOBRQpYDOFAX7Ke9fEldloxg0BVoR+M3tv8f+77/HtBuvx+HDRzE5Z6r0+dyrGHDhBS2W2v35Htx0623o1DETo0ZdgbLSUsyaexNmTp+OBx+4Vy6j00WjX7++yOyYIT8/cOAANm/ZipkzpslLnu3evQcrnliFPy5bipychpn2WrxhGA/KI3LP5YjcMHYBb00BClAgYAKXZg/Duk9Wo8JWiUQzp1cOGCwrCoiA4hO5ix9egu0738KGF57D6dPl8kO0PDu7ezOAFGnk7OIH7sddCxbi5KlTGCYlY8vKyrBq7TqkpHTAiGFDm5WpP2C12iDW2BXbkfyjyM3dKu/37fMT+Sf/0J6AXayRazBrr+FsMQUoIAv0TO2JIycPM5HL1wMFKEABlQv8+81jGDyLX8pReTcyfAooRsAgRuRKnx9wo4AWBE6ePIl3338fedu24Nz+/eQml5efxhtvvNliItfhcGDBPffi8hHDsXrlCmm2vLoZ9SZPmogZs+di9FWj5M/qREU5UybLI3zrHTPS0zD/zt/XP8XKNWvx3IsvKTaRe8p6CscqCtG1QzdPzNyhAAUoQAH1CsSb4tErrTe+LfoGw7KHq7chjDwiBRSdyD0lJWM3vPyyDD995uwmHfDDvu/k6ZObHJSezJg+TT60cfMWLFm2XBoxGy+Pyn1yzSokJSV5LtfrGpoupmouOlGEUWPGyedFmUEDL8SWTa+1OgLYUxl3IlLA7uYauRHZsWwUBdooIEbiHi47jJG921iAl1GAAhSggOIECr85DbvFhZ7DOV254jqHAVFApQJ6k7RGrt2t0ugZNgXaJxATWzcLXUVFpVywtrYWpysq0P/c/i1WJEbjFhQUIizCVgAAQABJREFUSInfXE8SV1woBlo8unRJk8/x7py/EDfNnuU1UWsymuByK3f0+6avX8PQHiOQGpvaogUPUoACFKCA+gTO6/hTfHvsX0zkqq/rIj7ihmymApvaoUMHHPp+X7sjE8lc8aiorERcbFyTN4/1leVt21y/K6/HIdbk4EaBxgI2px0xeo7IbWzCfQpoSaCHlMj99PA/tdRktpUCFKBAxAns23EMfUd3hM4QFXFtY4MoQIHwCOjNOrjtXCM3PPq8a6gFYsxmLHloMW6/405cM/5q/CBNgVx8ohg5kye1GIqY6a5HdjYSE5pPSTn1up+1WKb+YHFJKTa89Io8tfLBQ4eRu3Ub1q5eUX9aUT9PVp/EO/t3YuXktYqKi8FQgAIUoIB/Aud3Oh/P7/mbf5WwNAWCIKDoRK6/7W3pjaO/dbK8dgTsThuSY5K102C2lAIUaCLQXUrkvvTVhibH+IQCFKAABcIj8Mq8z1Fx3OrTzW/4y8U+lWMhClCAAi0JGMwckduSC49FpkBNTQ2++de3sNnt0tJlpbDabBCjc08UlyArK6tZo602K1JSUzzHq6osuGZSwxq3Y0ZfiXsXLfScb7xjsVRh1+7P5UPHiorqfhYeb3yJYvY3f7MRF3cfwmmVFdMjDIQCFKBAYATOz7oAP5YXoNJeiQRT8y8lBeYurIUC7ReI6ERu+zlYggINAjZpjVyzPqbhAPcoQAFNCYgRueXW05j07Ph2tzvRlISnpj6DeFNcu8uyAAUoQAEKNBUolxK4lSfsuHXH5U1P8BkFKECBMAjoTTppjVyOyA0DPW8ZBoH3//EPbNy8GR/9/T106dJZjmDxw0uxUFoH952dbzaL6Nz+/bH8scfhdrvlaZTNZhOWLXlYvu7u+YvgcnifKlmM5F23ZqWnzp1vvY1f334Hxo4djdSUhuSw5wJpx2KpRpXF4jlUXW1FbGzrn+Pc+/58lFQXe8r4urP48qVyQtvX8iwXGoGS0rLQ3Ih3CZgA+yxglCGrKNL6rGtCN3y872MMyorcLwRHWp+F7MXeyo3i4+KkZV5jW7nCv1NM5Prnx9IRLCAncg2mCG4hm0YBCrQmYJKmVn993o7WLvF67ubX5kjr6x6A+CYfNwpQgAIU8E+gotCGxCwud+GfIktTgAKBEtBzRG6gKFmPCgSOHi1A7169PElcEfLwYZfi+RdflJK1Nc2WMuvXt4/cqjfytmPK5InQ6/UYOuQSiJG5lVVVGHTRwDa3eqi0rq7Y8vMLvCZyxQem7fnQ9MfTBThlO+nz73liJHJmRnqb28ALlSHAPlNGP7QnCvZZe7SUcW0k9dmAboOQX30E4zPaP7BDGb3Rtigiqc/a1mJ1X8VErrr7j9EHUcAujcg16ZnIDSIxq6ZAxAp069ANR0/nM5EbsT3Mhtml6fWef3EDbDY7bv/NbS2CbHs9T56Kr/HJcdKIiksG132rVXz498GHH+Ld9/6OTp06YvzV43BO716NL2+2X1h4DNvy8rB/336kpqbhylEjMWL4MM91os6Zc+Zh0rUTcP3UHHzx5V5s37HTcz4tPRVDBg/GoIEDPMe4o3yB8uPVSOrc+uga5beCEVKAApEiYBAjcm0ckRsp/cl2tC4g3rctXf4oXn7lNYy+ahRKy07iT0+vl96DXdEsiStqSpFGzi5+4H7ctWAhTp46hWFSMrasrAyr1q6TznXAiGFDvd7QarVBrLErtiP5R5Gbu1Xe79vnJ/LPQPxx9PRRdE/JDkRVrIMCFKAABSJUgOvkRmjHqrxZTOSqvAMZfvAE6qZW5uiP4AmzZgpErkDX5O74UUrkcqNAJAp88+13mL9gEQ4cPIiuXbt6TeS+nvemtJ6aDQMHXOhhEKMy6re/Pf8CVq/9E26aOxv79++X9tfhw/fflersUn9Jk5+7P9+Dm269DZ06ZmKU9OFhWWkpZs29CTOnT8eDD9wrX6vTRaNfv77I7JghPz9w4AA2b9mKmTOmoba2Frt378GKJ1bhj8uWIienYb22JjfiE8UJVByzIjkreFMUKa7BDIgCFFC0gD5GSuTavU8Pq+jgGRwF2ilw/nnnYs2qJ7B02WO47w8PyqXHjr4Ky5c+4rWmGdOnyec2bt6CJcuWSyNm4+VRuU+uWYWkpCRPOb2u4X1hdHQ0ik4UYdSYcfJ5UWbQwAuxZdNriIkJ3Je5Ck7lo5v0uxo3ClCAAhSggDeB8zqejwLpMz1fllrzVmcgj1/WcyRuHDANnZNb/uwkkPdScl0llhJs+vpVvL2/4cv74Yp30nk/w9xLbgrq7RveNQX1NqycAuoTsDnFGrlM5Kqv5xgxBcIvIEbkvvf9O+EPhBFQIAgCj/1xBSZcM16e4m79s3/1eodDhw/j97f/FpMnXdvsmuLiYnl0x/N/fcYzonbeLb/EI0uX489PrWt2vcPhwAJpLbbLRwzH6pUrPCNAJk+aiBmz58ojRMSID7HlTJmMjEZT3mWkp2H+nb/31LlyzVo89+JLTOR6RJS/U37Mhm4Xt7w2nvKjZ4QUoECkCeiNHJEbaX3K9rQuMGH81RCP8ooKiPXfdDpd6wWksyKZKx4VlZWIixVlopuVydu22XNMzKQiHsHe8qVEbu+03sG+DeunAAUoQAEVC8QYY32egj/Yza5PXt6We0uwb6WK+kVS+8mc9ZpIajORq4qXJIMMh4DdZYfJwERuOOx5TwqoXaBbh+44erJuWjC1t4XxU+BMgT+tWYnk5GRszt1y5inP85qaGhQUFCA2Lgb//GwXOmVmomfPHp7z//3+BykRnCpPt1d/UHzY99vf3VX/tMlPMRpX1Je3LbfJB4Eiefvo0iVNPlC8c/5C3DR7ltdErclogsvNkVRNgBX+5HRhNc6f3FnhUTI8ClBAKwJijVy3swa1NbWIio7SSrPZTgogKTGx3QqJCQntLhPMAvmnjuCK3lcE8xasmwIUoAAFKBA0gfS4dNw27Lfyw5+bcM13f/TCU5aJ3PC4864qELC77YjRB24KHxU0mSFSgAIBEugqjcitclSiwlaJRLOyPrwIUBNZjYYFRBL3bJtYC01sv7ztt3LCtuxkGS4dMgTPrH8KMWazvP5Z73N6QUyjV7916dwZFksVysvLm0y7J86L9dJ6ZGejpQ8Dp173s/oqWvxZXFKKDS+9Ik+tfPDQYeRu3Ya1q1e0eC0PKk9AJEoqi+xIyuJ7MuX1DiOigDYFDOa60YhOmxvGWH6kos1XAVutVIEbX8iB1WltNbweqb1aPc+TFKAABShAAQpQQGkC/K1DaT3CeBQjIKZWNupMiomHgVCAAuoRMEn/dhh0RulDhGomctXTbYw0gAKJ0oiNl198Ht27dUWnTp3kROzUG3+Bp9f/RZ5uubKqCga9ockdE+Lj5ecWi6VZItdqsyIltWFq3aoqC66Z1LDG7ZjRV+LeRQub1Ff/RCSHd+3+XH56rKio7mfh8frT/KlwgYoTNjnChEzOkqLwrmJ4FNCMgN5U9yUkl71GSuRqptlsKAVUIfDqzFxVxMkgKUABClCAAhSgQHsEmMhtjxav1ZSA3WVDnKnuQ2VNNZyNpQAFAiIgkrlOtyMgdbESCqhNwGQyYcglgz1hZ2d3x9w5s/D3Dz6QE7nZ3bvhtU0N66KJC0vLTsrXZ2Z29JSr3zm3f38sf+xxuN1ueRpls9mEZUselk/fPX8RXA7vUyWLkbzrpOmg67edb72NX99+B8aOHS2v81t/vPFPi6UaVVJCuX6LQhRqpf+CtZWU1o1gDlb9aq73xH+ktfUyDRBTP4V7Yz+Fuwfafn/2VdutwnmlmvtJJyVzjxcWI96pjS/+qrmvwvkab+nemRnpLR3mMQpQgAIUoAAFKEABCngVYCLXKw1PaFlgd/4udO8gTeHIKVG1/DJg2yngl4AYbWiT1trmRgEtChw7dgzb3ngTc6W1akXSVWwOhwNxsXVDl7p16yaveZufnw+xL7ZPP/sMvXv1arIGrnxC+qNf3z7y7ht52zFl8kTo9XoMHXIJxMhcMbp30EUD6y8968+h0rq6YsvPL/CayI2Li4V4hHLjB7sta5dUO5DSLR5K8VFKHC1r8WhjAfZVYw3l7qu1n4zmA0iO64DUjDjl4gY4MrX2VYAZWB0FKEABClCAAhSgAAVCLsBEbsjJeUM1CHx66BMM7zlCDaEyRgpQQKECJmlqZY7IVWjnMKyAC9TW1mLxw0sxcuQIjLzsMiQmJuHxJ1aiWBpFOXf2DIi1aZ/563O4Z8Hd8r3P7d8Pl40Yjvv+8BDuWTgfJ0+dwpp1T2Hpw4tbjC0lJQWLH7gfdy1YKF87TErGinV4V61dh5SUDhgxbGiL5cRBq9UmT+0s9o/kH0Vu7laxi759fiL/5B/KFqg4ZkVyVmiT6soWYXQUoIASBMSIXLc0tTI3ClCAAhSgAAUoQAEKUIACwRZgIjfYwqxfdQKuGhd253+GJwasVV3sDJgCFFCOgFgj18ERucrpEEYScAEx3XD9Zrc7kLt1G8wxZjmRGx8fh1c2vIAF99yLFzZskEa3xuPmeXMw7ec3yEWioqKw7JGHpETuYlwzcbI0MjYVc6SE77UTxtdX2eznjOnT5GMbN2/BkmXL5TrFqNwn16xqsqauXtfw9jY6OhpFJ4owasw4uayIY9DAC7Fl02uIiYlpdg8eUJ5A+TEbul3csD6y8iJkRBSggBYFDOZoOO1uLTadbaYABShAAQpQgAIUoAAFQizQ8ElXiG/M21FAqQJf/vgFMuIzkZWUpdQQGRcFKKACAaPeBDvXyFVBTzFEXwVycqZAPMQmpk/eu+czecrj+vouGXwxPnz/HZRXVCAhPh4iqdp469SpE55d/7Q0YtYKo9HU4pTKja8X+yKZKx4VldK6qbFxLZbJ29aw9u71U3MgHtzUK3C6sBrnT+6s3gYwcgpQICIF9GYdXFYmciOyc9koClCAAhSgAAUoQAEKKEyAiVyFdQjDCb8Ap1UOfx8wAgpEgoBJZ+DUypHQkWxDmwXEurUtbUmJiS0d9hzzZWRsYkKCpzx3IltATK2cxKmVI7uT2ToKqFDAYNJzRK4K+40hU4ACFKAABShAAQpQQI0CTYdGqLEFjJkCARbYnb8LQ7OHB7hWVkcBCmhNwKgzwcERuVrrdraXAhQIoED5cSuipJHcCZmmANbKqihAAQr4L6CXplZ2cY1c/yFZAwUoQAEKUIACFKAABShwVgEmcs9KxAu0JPDj6QJ5BF2X5K5aajbbSgEKBEHAqOcauUFgZZUUoICGBCoKbUjMMmuoxWwqBSigFgF5jVxOrayW7mKcFKAABShAAQpQgAIUULUAE7mq7j4GH2iBo6ePontKdqCrZX0UoIAGBQzSiFy7y6nBlrPJFKAABQIjUH68GkmdYwJTGWuhAAUoEEABnVEHt6MmgDWyKgpQgAIUoAAFKEABClCAAi0LMJHbsguPalSg4FQ+uiV312jr2WwKUCCQAiadNCLXbQ9klayLAhSggKYExPq4yVwfV1N9zsZSQC0C+phoODkiVy3dxTgpQAEKUIACFKAABSigagEmclXdfQw+0AL5UiK3a3K3QFfL+ihAAQ0KyFMrc41cDfY8m0wBCgRKoPyYNLVyJ06tHChP1kMBCgROwGDScY3cwHGyJgpQgAIUoAAFKEABClCgFQEmclvB4SntCeSfOoJuHZjI1V7Ps8UUCLyAQYzIdTkCXzFrpAAFKKARgdOFnFpZI13NZlJAdQJ6szQi1+5WXdwMmAIUoAAFKEABClCAAhRQnwATuerrM0YcRIGC0/nITu0ZxDuwagpQQCsCZoMJTjfXyNVKf7OdFKBAYAVqa2pRWWRHUhbXyA2sLGujAAUCIWAw6+Hi1MqBoGQdFKAABShAAQpQgAIUoMBZBJjIPQsQT2tHYHf+LnTvkI30uHTtNJotpQAFgiZgiDbCzjVyg+bLiilAgcgWqDhhkxuYkMmplSO7p9k6CqhTQG/iiFx19hyjpgAFKEABClCAAhSggPoEmMhVX58x4iAJfHroEwzvOSJItbNaClBAawIGnQFOTq2stW5neylAgQAJVBRK6+NmMYkbIE5WQwEKBFhAb9bBba8JcK2sjgIUoAAFKEABClCAAhSgQHMBJnKbm/CIBgVcNS7szv8Mw3tcrsHWs8kUoEAwBIx6E0fkBgOWdVKAApoQKD/O9XE10dFsJAVUKiCPyLVxjVyVdh/DpgAFKEABClCAAhSggKoEmMhVVXcx2GAJfPnjF8iIz0RWUlawbsF6KUABjQmYdEY43A6NtZrNpQAFKBAYgYpjViRnxQamMtZCAQpQIMACBmlErsvGEbkBZmV1FKAABShAAQpQgAIUoEALAkzktoDCQ9oT4LTK2utztpgCwRYwSolcTq0cbGXWTwEKRKpA+TFpauVOnFo5UvuX7aKA2gX0Zq6Rq/Y+ZPwUoAAFKEABClCAAhRQi4BeLYEyTgq0ReDWjXNRVFnUlkubXfPUdc80O8YDFKAABXwVMBrE1MockeurH8tRgALaFjhdWI3zJ3fWNgJbTwEKKFbAYOKIXMV2DgOjAAUoQAEKUIACFKBAhAkwkRthHarl5pRYSlBSVYJt87YjSvqPGwUoQIFwCtRNrWwPZwi8NwUoQIGQC7w4YxeqywLzb1+HrpxaOeQdyBtSgAJtEtDH6OB2cGrlNmHxIgpQgAIUoAAFKEABClDALwEmcv3iY2ElCZRUFUvr3GYwiaukTmEsFNCwgCHaAIeLI3I1/BJg0ymgOQF7pVNO4t66/XLwO3Wa6342mAKaEtAbdXBaXZpqMxtLAQpQgAIUoAAFKEABCoRHgGvkhseddw2CgEjkpkuJXG4UoAAFlCBg1Jvg5NTKSugKxkABCoRIwFblgt6sYxI3RN68DQUoED4BsUau21mD2pra8AXBO1OAAhSgAAUoQAEKUIACmhBgIlcT3ayNRoppldPjmMjVRm+zlRRQvoBI5NrdgZleVPmtZYQUoAAFAHuFC6YEAykoQAEKRLyAQXxpRdqcNnfEt5UNpAAFKEABClCAAhSgAAXCKxDUqZXtdjuef3EDbDY7bv/NbS22dNvrefjmX982OTdu7GhcMvhi+ZjbXYMPPvwQ7773d3Tq1BHjrx6Hc3r3anL9mU8KC49hW14e9u/bj9TUNFw5aiRGDB/muUzUOXPOPEy6dgKun5qDL77ci+07dnrOp6WnYsjgwRg0cIDnGHeUL1AqrZGblpCu/EAZIQUooAkBozy1slMTbWUjKUABCggBe6UL5sSg/npBaApQgAKKENCb6r4T77LVwMjlvBXRJwyCAhSgAAUoQAEKUIACkSoQtBG533z7Ha6dnIPljz2O3K3bvPq9nvcm9n//X8TGxXgeen3DB0B/e/4F3HHXAjmJu3//fowdPwEFBT96rW/353swbsIkvC4liDt36QKLpQqz5t6EBx9a4imj00WjX7++yOxYN3rzwIED2Lxlq3z/mFgzdu/eg6k3TkNu7lZPGe4oX0CeWjmOiVzl9xQjpIA2BIwGExycWlkbnc1WUoACsoBNWiPXHM8RuXw5UIAC2hAwxurg4Dq52uhstpICFKAABShAAQpQgAJhFGjImAY4iMf+uAITrhmP1JQUrH/2r15rP3T4MH5/+28xedK1za4pLi7G0uWP4vm/PuMZUTvvll/ikaXL8een1jW73uFwYME99+LyEcOxeuUKiISt2CZPmogZs+di9FWjMGzopfKxnCmTkZHRkPTLSE/D/Dt/L58Tf6xcsxbPvfgScnKmeI5xR9kC8tTKXCNX2Z3E6CigIQGjzgh3jUtDLWZTKUABrQvYpUSuKSFov15onZftpwAFFCagj9HDVV2jsKgYDgUoQAEKUIACFKAABSgQaQJBG5H7pzUr5emUTSajV7OamhppdG2BPBL2n5/twqFDh5tc+9/vf5ASwame5Ks4OWP6NHy6a3eT6+qfiNG4or6lSx7yJHHFOZG8fXTpEulY3To24tid8xfig398KHZb3ExGE1xufgDfIo5CD9atkduQnFdomAyLAhTQiIAxuu7/f3aXTSMtZjMpQAGtC4gRuaZEjsjV+uuA7aeAVgQMMdKIXBs/M9BKf7OdFKAABShAAQpQgAIUCJdA0L4yn5ycfNY2lZWVydf88rbfygnbspNluHTIEDyz/inEmM04cuQoep/TC9HRDfnmLp07y9Mll5eXIykpqck9xPU9srORmJDQ5Lh4MvW6nzU71vhAcUkpNrz0Cmpra3FQSiiL6aDXrl7R+BLuK1ig2mFBtdOC9IS66bIVHCpDowAFNCJgNNQnch0w6c0aaTWbSQEKaFlAXiM3Pmi/XmiZlm2nAAUUKGCUErlOjshVYM8wJApQgAIUoAAFKEABCkSWQFg/aUlMTMTLLz6P7t26SmvgdpITt1Nv/AWeXv8XebrlyqoqGPRNv9WfEB8v94DFYmmWyLXarEhJTfH0UFWVBddMapgaeczoK3HvooWe8413xFq6u3Z/Lh86VlRU97PweONLuK9gATEaN9GUBDGVKTcKUIACShDQRekQHRXNdXKV0BmMgQIUCImASOTGp/OLKyHB5k0oQIGwCxikqZWdXCM37P3AAChAAQpQgAIUoAAFKBDpAmFN5JpMJgy5ZLDHODu7O+bOmYW/f/CBnMjN7t4Nr23a7DkvdkrLTsrPMzM7Njkunpzbvz+WP/Y43G63PI2y2WzCsiUPy9fdPX8RXA7v0x6JkbzrpOmg67edb72NX99+B8aOHS2v81t/vPFPi6UaVVJCuX6LQhRqpf+CtZWU1o1gDlb9aq73+xM/INmUjBPFJWFvBvsp7F3Q5gDYV22mCuuFau4ngzS98rGi43AnBO//DWHtnDNurua+OqMpYX+amcGlAsLeCQyg3QK2KhfMiWH99aLdMbMABShAAV8FDLFiRK73zxh8rZflKEABClCAAhSgAAUoQAEKNBYI6yctx44dw7Y33sTc2bMgkq5iczgciIuNlfe7desmr3mbn58PsS+2Tz/7DL179WqyBq58QvqjX98+8u4bedsxZfJE6PV6DB1yCcTIXDG6d9BFA+svPevPodK6umLLzy/wmsiNi4uFeIRy4we7LWu7yhzI6tAZSvFRShwta/FoYwH2VWMN5e6rtZ9MehMSO8QjM0U7STm19pVyX/3aiCzvzR34au/XuON3v0GSNGOLt62wUHrvmJeH/fv2IzU1DVeOGokRw4d5Lne7azBzzjxMunYCrp+agy++3IvtO3Z6zqelp2LI4MEYNHCA5xh3Aidgq5DWyOXUyoEDZU0UoICiBcTUyg5rjaJjZHAUoAAFKEABClCAAhSggPoFQprIFevPLn54KUaOHIGRl12GxMQkPP7EShRLoyjnzp4hr037zF+fwz0L7pZlz+3fD5eNGI77/vAQ7lk4HydPncKadU9h6cOLW5RPSUnB4gfux10LFsrXDpOSsWId3lVr1yElpQNGDBvaYjlx0Gq1yVM7i/0j+UeRm7tV7KJvn5/IP/mHsgVKLSVIj9dOokTZvcHoKECBegGT3siplesx+JMCLQiUlJTgvgcW493335fP3nrzXK+J3N2f78FNt96GTh0zMWrUFSgrLcWsuTdh5vTpePCBe+XyOl00+vXri8yOGfLzAwcOYPOWrZg5YxrE+9Ddu/dgxROr8MdlS5GT07D8Rguh8VAbBWzlTmz6zZe4alE/2CudMCc1XRaljdXwMgpQgAKqEzDESSNybRyRq7qOY8B+Ccy56VZ0zsrCIw/9odV6+OW7Vnl4kgIUoAAFKEABCrRLIOiJXDHdcP1mtzuQu3UbzDFmOZEbHx+HVza8gAX33IsXNmyQRrfG4+Z5czDt5zfIRaKiorDskYekRO5iXDNxsjQyNhVzpITvtRPG11fZ7OeM6dPkYxs3b8GSZcvlOsWo3CfXrGqypq5e19D06OhoFJ0owqgx4+SyIo5BAy/Elk2vISYmptk9eEB5AsWVxeiVdo7yAmNEFKCApgUM0rrdDpdD0wZsPAVaE3jltU0wGg147eUNuGHadK+XihlbxPvFy6Uv+K1eucIzM8vkSRMxY/ZcjL5qFMQX+MSWM2UyMhpNTZ2Rnob5d/7eU/fKNWvx3IsvMZHrEfFv57/vnUB1mR07HvgWLqsbpgQmcv0TZWkKUEAtAkazHg6LWy3hMk4K+C0gliD78KOP5HpaS+Tyy3d+U7MCClCAAhSgAAUo0ESgIZvZ5HDgnojRDvUjHsT0yXv3fCZPeVx/h0sGX4wP338H5RUVSIiPh0iqNt46deqEZ9c/LY2YtUof9Jk8H9w1vubMfZHMFY+Kykppmua4FsvkbWtYe1dMvSce3NQrUGopxpAe3kdcq7dljJwCFFCzgFEkct12NTeBsVMgqAIzpfdrycnJnllRvN1MfCBYUFCAvG25Td7XieTto0uXSMd0nqJ3zl+Im6RlO+rff3pO/G/HJL2fdLk5gupMF1+f/2fnMVy5oB+ioqPw3vL/IDbZ6GtVLEcBClBAVQLGOD0qTlhVFTODpYCvAuIzuwcefBiXDhmCHwsLvVbDL995peEJClCAAhSgAAUo4LNA0BO5Z0Ym1q1taWttPTRxvS8jYxMTElq6FY9FoEBJlTS1chynVo7ArmWTKKBqAaO0Rq7dzRG5qu5EBh9UAZHEbct25MhR9MjORkvv7aZe97NWqyguKcWGl16Rp1Y+eOiwPDvM2tUrWi3Dk20TKPzmtDSdsgu9R9ZNZZ3We7A0Irfl9/ptq5FXUYACFFCPgN4cDWc1vxiknh5jpP4I/PHxlfLyFWIQxB9XrPRaFb9855WGJyhAAQpQgAIUoIDPAvykxWc6FlSSQIm0Rm5GfKaSQmIsFKAABSDWyHVyamW+Eijgt4DVZkVKaoqnnqoqC66Z1LDG7ZjRV+LeRQs95xvvWCxV2LX7c/nQsaKiup+Fxxtfwn0fBfbtOIY+V3X0lE7K4pIkHgzuUIACES9gjNXBYa2J+HaygRT44su9ePnVV/GPd9/Cv/+zr1UQfvmuVR6epAAFKEABClCAAj4JMJHrExsLKUlAJHF1UTokxSQpKSzGQgEKUACGaDG1Mkfk8qVAAX8Fzu3fH8sfexxut1ueRlks17FsycNytXfPXwSXw/uIKDGSd92ahpEjYn23X99+B8aOHY3UlIbkcOMYLZZqVFksnkNRiEKt9F+wtpLSsmBV3Wq97y44AEuxf/9GjVreEyeKS1q9T6ScDFc/RYpfKNvBvgqltu/3Uns/VTmqUF1h08S/gWrvK99fpYEvmZmhrpnExFTJC+/5Pyycfxe6d+9+1kQuv3wX+NcMa6QABShAAQpQgAJM5PI1oHqBkqpiaTRuhvQRa5Tq28IGUIACkSVgNIiplblGbmT1KlsTDoF+ffvIt30jbzumTJ4IsVTH0CGXQIzMrayqwqCLBrY5rKHSurpiy88v8JrIjYuLhXiEcgv1B7vVZQ5Ul7lw6/bLwbdQbe/pUPdT2yPjlWcKsK/OFFHmczX3kyNTj8POcqi5De15VWilne0x0cK1f37mWVitNkyccA1Ky8pQdKIYBQUF8n4HaYkMnU7XhCHcX76rrrYiNjZ4M4TwSw1NulsVT9hnquimJkGyz5pwqOIJ+0wV3dQkSPZZE46APImPiwvq50hM5Aakm1hJOAVEIjddSuRyowAFKKA0AZNOGpHr9G+0m9LaxHgoEA6BFGnk7OIH7sddCxbi5KlTGCYlY8ukDxNXrV2HlJQOGDFsqNewxIePYpo/sR3JP4rc3K3yft8+P5F/avUPS5kdsSlGJnG1+gJguylAAb8FDLHRcFS7/a6HFVBAyQLvvPO+lLwtwrDLRzUJc/Clw+WplsUo3cYbv3zXWIP7ShHgF1GU0hNtj4N91nYrpVzJPlNKT7Q9DvZZ262UcCUTuUroBcbgl0BJVQnS45jI9QuRhSlAgaAIGMUauTVM5AYFl5VGlEDU/ybViKrfaaF1M6ZPk49u3LwFS5Ytl77pGC+Pyn1yzSokJTUsr6DXNby9jY6Olj98HDVmnFxWlBk08EJs2fQaYmKCN1qjhfAVd0gkcuNSpUQuNwpQgAIU8EnAEKOH08pErk94LKQagY2vbkCNtLRF/fbm9p14ZNmj2PXJB9LI1+azl/DLd/VS/EkBClCAAhSgAAUCJ9DwSVfg6mRNFAipQKm0Rm5agrrWmQkpEG9GAQqETcAoRuRyjdyw+fPG6hEQozkOfb/vrAGLZK54VFRWIi42TprOL7pZmbxtmz3Hrp+aA/Hg1lygqtSB+FRT8xM8QgEKUIACbRIwxkqJ3Grva7S3qRJeRAGFC8SYzU0iTExMkGdDiZOmD/S28ct33mR4nAIUoAAFKEABCvgmwESub24spSABMbVyr9TeCoqIoVCAAhSoEzDqpDVyObUyXw4UCLhAYkJCwOvUWoXVYkRuGkfkaq3f2V4KUCBwAoaYaLidNaitlWap/9/MEoGrnTVRQJkCV48bC/E428Yv351NiOcpQAEKUIACFKBA2wWaD2Noe1leSQFFCMhTK3ONXEX0BYOgAAWaChj1Bk6t3JSEzyhAAYUIWMociOWIXIX0BsOgAAXUKCBG5IrNUeVUY/iMmQIhERBfvmtpBpWQ3Jw3oQAFKEABClCAAhEiwERuhHSklptRt0Yup1bW8muAbaeAUgXEiFwHR+QqtXsYFwU0LWApFWvkcmplTb8I2HgKUMAvgWh9lDQSN0paJ7fGr3pYmAIUoAAFKEABClCAAhSgQGsCTOS2psNzihcQa09WOy1IT8hQfKwMkAIU0J6AWCPX7rZrr+FsMQUooHiBqpOcWlnxncQAKUABxQuYEgxwcJ1cxfcTA6QABShAAQpQgAIUoICaBZjIVXPvMXYcLz+GRFMSRLKEGwUoQAGlCRj1RjhqHEoLi/FQgAIUgFWskcsRuXwlUIACFPBLQC+tk+uwuv2qg4UpQAEKUIACFKAABShAAQq0JsBEbms6PKd4gRJLsTQal9MqK76jGCAFNCogvmTicHJErka7n82mgGIFXPYaaQSZm4lcxfYQA6MABdQiYIzRwWVjIlct/cU4KUABClCAAhSgAAUooEYBvRqDZswUqBeoWx+X0yrXe/AnBSigLAF5RK40BTw3ClCAAkoSqCqxwRSvh97E73QqqV8YCwUooD4BQ4weDotLfYEzYgpQgAIUCKpAjfUIqv59K2odJUG9j5Irj9InIrbvKugTL1RymIyNAhSggCoEmMhVRTcxSG8CpZYSpMdzRK43Hx6nAAXCK2AQI3KZyA1vJ/DuFKBAMwFLmQOxnFa5mQsPUIACFGivgDFOB6e1pr3FeD0FKEABCkSwgJzE/W4eTF2kR6dpEdzS1pvmLHsPlu/mtn5RC2fN0rHyAy2c4KGgCUTp4hF//jOIjv1J0O7BiilAAf8EmMj1z4+lwyxQXFmMXmnnhDkK3p4CFKBAywImnQkOF0fktqzDoxSgQLgELKVcHzdc9rwvBSgQWQJiamVHNUfkRlavsjUUoAAFfBeoqT4oj8TVehJXCBpSr0LS0K/ajXmiuASZGRy00244Pwo4inJh+f4BJFz4qh+1sCgFKBBMAc6nFkxd1h10gVKukRt0Y96AAhTwXYBTK/tux5IUoEDwBMSI3Lg0Y/BuwJopQAEKaERAL02t7LIxkauR7mYzKUABCrQqUDed8i3SSNy5mh6J2yoSTypSwNgxB1H6ONgK/qzI+BgUBSgAcEQuXwWqFqhbI5ff0lJ1JzJ4CkSwgJFTK0dw77JpFFCvgKXMhrgUk3obwMgp4IPA8VNO/GVnEbZ+dhIud60PNZy9SHQUMO6iZPxqfEdkZ4qJAcO/1bf79V0ncdWAJEXFFn4d/yMwxkRLI3I5tbL/kqyBAhSggHoFauxFsP/4DBwntsDc424mcdXblZqOPO6cpajcmwNj2mhEx/TUtAUbTwElCjCRq8Re0UBMs1+ZjlPVJ/1uaZwxDl2SuvhdDyugAAUoEAwBMbWyk2vkBoOWdVKAAn4IWEod6NAtzo8aWDTYAvXJt2AkHQOdbDxcZMNNqw+iuNwZbJZ21l/Y7PrxFydj6319gpZkre+3axfvb3bvcB4Q7V7zyx54/+tyBCK28SJZfU1HmIy6ACTHm/eTsAr06zRY/gZpRK6tSmmv/WC1lvVSgAIUiCyBugTss3AUvwHU+vNveTSM6WORMGCrlADrHllIbI1mBKJMmTBkToQ1/8+I6/OoZtrNhlJALQJM5KqlpyIozmqHRU7ibpq9DWK0GjcKUIACkSpg0Bthd9kjtXlsFwUooFIBS5kd8WnKGC2oUsImYQcrkRmspGN9snHKI/8N2MjUhdd1xvRRypklJ1xrq3XqYMAD07rKjyYvEoU8GdY/0e/YGr9+ampq5RHIvibHW+unxvcJ5AjqQCeIDbE6VBXbFNLDDIMCFKAABdoqIE+D/N08GJKHSOuCbmQCtq1wvC6iBcyd56Diq8ko/3Rgu9opfrMsP9C8SJQxFQkXbEaUIan5SR6hAAXaJcBEbru4eHEgBCzOakRFRTGJGwhM1kEBCihagFMrK7p7GBwFNCsgr5Gbqt0v09UniHwb7dry6EGlJTJbe3ErPdnYWuw8F36BUL1+gnWf+r//gfoiQ/8KB7pJa+TeftvX4e+coEfQ8r9/Qb9thNxg1lXpuPtnnSOkNWwGBdQtUJ/ENXWZx2mQ1d2VjD7AAlHGdCQN+We7a/X25TzLf34NZ9l7EGvwcqMABfwTYCLXPz+W9kGg2m5BvDHBh5IsQgEKUEBdAvWzDjhrnDBEG9QVPKOlAAUiTuDluZ+jssgKU7weCR21NSL3zFGzvox29fYBRcS9UNggCkSwQKATxAc+KMZ/3z2BPy45P4LVAP77F9Hdy8ZRQDUClV9NQo2toF3xehspyLVs28XIiyngk4AhdTQcpW8xkeuTHgtRoKkAE7lNPfgsBAIWpwVibVtuFKAABSJdwCRNrSw2u9MBg4mJ3Ejvb7YvcgWef68Yj285FuQGNh/pJJKNvxrfMSDreZYerIK1wokT03tCjERdseC7ILdHedWradSs8vQYEQUo0JKAwayD3eLPuoot1cpjFKAABShwpoDz5IfSAupmJA396sxTrT7nF1Fa5eFJCgRVwJA2CtZDj8L+419gSB3DKcyDqs3KI12AidxI72EFtq/aUY04ExO5CuwahkQBCgRYwPC/dcCdNQ6pZv67F2BeVkeBkAnMuioD4hGsraUPmAI9/WefSgf61EbBZXfD1/Usg9V+1ksBClBArQJijVyH1a3W8Bk3BShAAdUIuMT0rGmjVRMvA6UABYAoXSISBm6VErnPonLvlICQROkTEdt3FfSJFwakPlZCAbUIMJGrlp6KoDgtjirEGmIjqEVsCgUoQAHvAia9GTaHDYjxfg3PUIACFDhTINDTf370px9gitHjkjnZZ96KzylAAQpQwEcBg/TvqquaiVwf+ViMAhSgQNsEap3SOpsfIP7Cl9p2Pa+iAAUUIxBt6oiYXvfKj0AEJdbcrd53O2L7rWEyNxCgrEM1AkzkqqarIidQMSI3llMrR06HsiUUoECrAmaDCTa3lMjlRgEKUCCMAqU/VOKCnK5hjIC3pgAFKBB5AobYaI7IjbxuZYsoQAGFCThPfYooc5Y0s3I3hUXGcChAgVALGFKvkm9p+W4ujOnjYOpyK6dsDnUn8H5hEWAiNyzs2r6pxSGtkWvgFKPafhWw9RTQjoBZZ4bdxUSudnqcLaWA8gRs5U6UfF+JzL6JyguOEVGAAhRQsYBRGpHrrHapuAUMnQIUoIDyBTitsvL7iBFSIJQCIpmbMGiH31M2c5rmUPYa7+WvABO5/gqyfLsFrE6OyG03GgtQgAKqFZCnVnYykavaDmTgFIgAgf3vFqHjuUmITzdFQGvYBApQgALKEdDHRMvBuOw10Jvq9pUTHSOhAAUooH6BGushOE9+iPgLOK2y+nuTLaBA4AQCMWWzs+xdeZrmhIF5iDIkBS441kSBIAjwN40goLLK1gXkEbkmrpHbuhLPUoACkSJgMkhr5HJEbqR0J9tBAVUK7Nt5HP3HZ6kydgZNAQpQQMkCYkSu2BwclavkbmJsFKCACgVq7EWwHnwElXuvg6nbL6VplblEiAq7kSFTQNEChtTRiIrpBlfFHkXHyeAoIASYyOXrIOQCFrsFsZxaOeTuvCEFKBAegRi9NLUyR+SGB593pQAFUPjNaVgrnOg5PJ0aFKAABSgQBAFjrI6J3CC4skoKUECbAnUJ3CWo/GoyUGNFwoCtMHWapk0MtpoCFAi6gCFxEFzlXwT9PrwBBfwV4NTK/gqyfLsFqp3SGrlGjshtNxwLUIACqhTgiFxVdhuDpkDECOzbcQx9R3eEzhAVMW1iQyhAAQooSUAvjcp1VdcoKSTGQgEKUCBsArWOUlR+cz1qnad9jsGYfjUSLnwN0THdfa6DBSlAAQq0RUCXdBFsR1a35VJeQ4GwCjCRG1Z+bd682iGNyDXGabPxbDUFKKA5gRh9DKwckau5fmeDKRBogQ0zdsFSZvep2hv+crFP5ViIAhSgAAXOLmCKk0bk2lxnv5BXUIACFNCAgK3wr9AlXoy4Po9qoLVsIgUooHYBfdIgafD/EenLJ+VcJ1ftnRnh8asqkZv35g58tfdr3PG73yApMdFr1xQWHsO2vDzs37cfqalpuHLUSIwYPsxzvdtdg5lz5mHStRNw/dQcfPHlXmzfsdNzPi09FUMGD8aggQM8x7jjv8CvNt2MBVf+HyyOamlEbrz/FbIGClCAAioQMEtr5DrcviVfVNA8hqhhgdOnT2P12iebCJjMJiyaf5fnWElJCf76/Ivo37cvrp0w3nP8+PHj2JS7FT/88APOO+9c/PzGG5CYkOA533jny6/24s3tO3HrzXPRsWPHxqfk/W2v5+Hbf/8b9//fIkTqezxruVNO4t66/XKAA2ubvQZ4IDIEHIfzUTjvDrhKygLSoIqA1NK8kujYGHR96SkYe/dofpJHNCmgN+vgtLg12XY2mgIUoEBjgRrrIThP/gPx/f/U+DD3KUABCihWICo6FtHxfeV1cg2pVyk2TgZGAVUkcsWHgPc9sBjvvv++3GPigzxvidzdn+/BTbfehk4dMzFq1BUoKy3FrLk3Yeb06XjwgXvl8jpdNPr164vMjhny8wMHDmDzlq2YOWMaamtrsXv3Hqx4YhX+uGwpcnKm8FUSAIHP83fjWEUhVvzjUSmRK0bkcmrlALCyCgpQQAUCJr0JNpdVBZEyRAq0T+DwkaN4/sUX8atf3uIpaDQYPfuvv5GH+/7wECyWKky78UZPIrdEem82ccpU/PSn52HIJYOlL9O9JSVq38K23Neg0+k85et3fvjhgHyf5OQk/O63v64/LP+02ey4/8G6e4hEbqS+x7NJa9yaEqS37UziNul/PokcAZHE/XHWb5ByywwkT5/qd8NOFJcgMyM460KXLFuNsqeeQ6cVi/2OkxVEhoBRmlrZYWUiNzJ6k62gAAV8FRAj2qq+uxmmLvOkKZF7+loNy1GAAhQIuUD9OrlM5Iacnjdsh4AqErmvvLYJRqMBr728ATdMm+61eQ6HAwvuuReXjxiO1StXyB/miYsnT5qIGbPnYvRVozBs6KVy+Zwpk5HR6Jf7jPQ0zL/z9566V65Zi+defImJXI+IfzufHvoEvxg0E3t//AIFp/MRZ+DUyv6JsjQFKKAWATEit1qaiYAbBSJNQIyq7ZjZscn7p/o2ivdkIon72LJH8N77/6g/LP/88MOPkJiYgPVPPSm/V/vFz2/EeRcOwr++/Q4DLrygybWNn2x46RXcJiWNDQaD5/Db77wjJ4o9B6SdSHyPZz3tgDmpIUneuL3cp0B7BZxFJ3Dyzy+iattO1LiUMx1s+sLfBCSJ216P9l7f4ebpODr2BjgOHoGxV3Z7i/P6CBQwxEpTK1cr5+9SBBKzSRSgQJAE5OTrv29FraMkIHcw97gbpk7TAlIXK6EABSgQKgGukxsqad7HHwFVJHJnTp+G5ORkHJFGfrS2idG4BQUFyNuW60niiutF8vbRpUukYw2jPO6cvxA3zZ7lNVFrMprgcvOXsda823NuV/5neGLAGlxxzpX4zeZbkRTToT3FeS0FKEAB1QqYpTVyT1tPqzZ+Bk4BbwKFx46he3Y37Nv/X5SXl+OCn56PmJgY+XKRbP3kg/eQlJTULJE7cuTl0kjcSzzv1aKj696fuVpJKPXp0wc//liI9//+D4wbO8YT0vMbXsYl0qje3bs/9xyLxPd41tNOxCQ1JLA9jeVO2AUCPR1w4wYljL8SKb+aDaP098zXzVt8CeOvQtetf/Orbl9jUns5fVoqEq+7FmVP/o2jctXemQGK3xirh7OaI3IDxMlqKECBEAnUjaCdJ4+gZfI1ROi8DQUooEgBfeJAaZ3cQ9I6uaeldXKTFRkjg6KAKhK5Ionblk0kentkZ7e4xtrU637WahXFJaUQIz3E1MoHDx1G7tZtWLt6RatleLJtAnukaZUz4jOQlZQlF3jmxucRb+KI3Lbp8SoKUEDtAiaDSRqRy6mV1d6PjL+5QGHhcTmBev3Pp3tGxf7l6SdxpbS0RVRUlJzEbV4KSEtNbXJ47ZNPomvXrnIiuMmJRk/i4+Pwi2k34kXpvVp9Inff/v34+uuvsWbVE00SuY2KybuR8B7PJq2Ra2Yi98yuDfvzQE8H3LhB9aNmC6bM8XvUrFpGujZuv9L35VG5V/8cP5x/OURSPOVXswKSFK/vd6WNlg5mf3hdyzg6CgnjxJcZAmMbzDYYYqOlEblM5AbT2J+6vX2hxZ86fSnbYfaNSLvrV74UZRkKBESgxl4E+4/PwlH8BqRshVwnR9AGhJaVUIACKheI0sVBn3wpnGXvw9gxR+WtYfiRKqCKRG5b8a02K1JSUzyXV1VZcM2khjVux4y+EvcuWug533hHrN+263+jOY4VFcmnjkkfUHLzX+CTQx9jeM8RnooSTAmefe5QgAIUiHQBs84EO9fIjfRu1mT75syajvFXj8WggQOl9tdizZ+exM2/vA3ffLkHCQnxbTLZ9noennp6PXI3vioto9H61ME3Tr0O6//yDA4ePIRevXrilVc3yUljkQRubYuE93hWaY1crY7IVVpi68ykU7CSpIaOmcj8w93yo7XXN8+FR0CMyu215x3Uvz4DkXCXW/K/5KVWRku3tpZxve3Ra2eEp5PbcdeqxJFwR5vww+Nvt6NUeC7VJcYja+1ymAeeH54AQnzXYH7hJsRN4e00LlBjP46qf02X8q+n/JIwpl+NhAs3SmvYdverHhamAAUoEGkChtTRcJS+xURupHVsBLUnohK55/bvj+WPPQ632y1Po2w2m7BsycNyd909fxFcDu9TJYuRvOvWrPR07c633savb78DY8eORmpKQ3LYc4G0Y7FUo8pi8RyKQpT0MWat53mgd0pKywJdZZvqW/DeHdK0oP69WXxk5KMQv6hrYQtXP2nBNtBtZF8FWjQ49am9n+zSmmmV1ZWa+DdQ7X0VnFewb7VmZqT7VjCEpbp37w7xqN9+/ctbsXbdk9Jat9/Ky1rUH/f288OPP8ad8xdg3eqVra6NW18+O7s7LhsxHK9u2oTf/eY32PDyy/jbs+vrT3v9GYj3ePZNebA//bzXewTixJkJwsZ1FiWPg6HGih/Wf9j4sGb2DVeOgPnZJ6DvUje7S7gaLv6NS5cSeI03u/REK+9xG7c7WPsnq8uw44c38GnBJxiYdRGuPWcyMhM6tft2Ifv/UXQ0II0YjZcegdzk37w08LtTq/30P9vEANsGsp/q64p9swRVxx1IvPnm+kOK/en4aBcK5twO1NS0O8bW/j/V7spCWMB422zYx4xUzL/VaniPF8Lu4a3aKFD9w31ScmEqzF1/2cYSvIwCFKAABdojYEi5AtZDy6QvzJRL0ysntacor6VASAQiKpHbr28fGe2NvO2YMnki9Ho9hg65BGJkbmVVFQZdNLDNqEOldXXFlp9f4DWRGxcXC/EI5RbqN/1iXUfx2DZvu5SmjgplU1V9r1D3k6qxwhw8+yrMHdDG26u5nzJs6XDlu6HmNrSxm+TLtNLO9phE6rViNG16eponaSu+SCc2s9l81ibv/fobzJl3Cx5Z/KA0qnfcWa+vv0BMr3zn3YuQmZ6BjpkdMXzoMHz3n//Un27TT5/e4/16LiAeQdpaG5Umbnl02X+Q2T8J50x6KEgRsNq2CrT0b9yPp3/EfTsX4VT1ybZW0+p1l/UciRsHTEPn5C4osZRg495X8M5/32q1TCSdFO2/b8wf8NnRT3H/B4uC0rTGxkG5AStts0BLf6faXFghF5akO2E/fkod7/Wk9Z0hHu3czvb/qXZWx8spQIF2CDiKNsmJBXMX5X9ZpB3N8unS+tka2rsEgVq/iOITUoQUYp+pryND3mcBXoZDJG/1SRdJ0yu/x1G56nv5BSXi9vw/p8OsG5B2921BiaO+0ohK5KZII2cXP3A/7lqwECdPnZI/WCwrK8OqteuQktIBI4YNrW93s59Wqw1ijV2xHck/itzc/2fvLOCjOLoA/qIXDx6cQHF3LV60tLi7U6wUihbaUgq0pTjF3V0Kxdp+xV2KFXeHAHEj4b55E2Zzd9zuSe5ykjf8wsr4f2Z29+bNe7ONnxcuVJAf0+p/4bFh4K/yIyFuWu0AVG8iQARSTMDL3Qvi3samOB1KgAjYG4H7Dx7AuO9/gPlzZ0OuHNlh5uy5bPFbRihRvJhiUW/eug1duveCli2aQ9UqlaXvr3TpAiFdunSKcevUqgVeKhVM+vkXGD1yOLPA4qoYHj2d4RsvJjQBvNN5GKxragdAIeOmf9fDXzf+hMR38pZvUrtctsivZ6U+8HnxZinOWjAdtK0/Z4r7TVfPWxPmtlzIBbspzsCBEiiTsxz0rzbIrBIrCZ10GZuVAUVyWAJiTInFEpaoiKePG8THmK7hqpu36JuWfKZao7665U5L17hwZ9ye0VA8awlpwU1aqr8j1PVO5UaQyKznWdNZW1jhFvgWfBpEgXddN6kar7/3hGdP60jXafkE96Y3ZQsCpW+CtMzRnutObWbPraO/bLZoMyFks9gWJ6xqXhUjwKvSEQidPUt/RZ3srrXfZw6Py862vXEoQS6bx+AOf4zIuc6dOnCvjZu3wsTJPzGNWT+ulTt31gwIDExWi3d3S666KzPb9Oz5M6hTP0kjBOOUK1satm7aAN7e3nJZpYn7qI0b6KU8qZomQFAliQARIAJmEvDyYILcBBLkmomPotkxgb69e8HTp8+gc9fuvJQlS5SADWtXfbDXrSv7+NX8dtuwaTPbniIStmzdxv9EFYcNHQJonlnXacZ1c3ODrmxv3mnTZ0KL5klCM92vQmf6xhOansXuNYOtR2fD61uPdfHY/Bo1G2c3n5smhIypMUGR2TczF16aK8C0eYdwgAIQY/tppNQYU7q1FcJSsVhC19+c68yPgyH/3aqwcMlIc6JLcYTQ1ZLPVFHf/lv6SPnQScoItC/bCdAMvKlMmxVvCd0r9UxZ5hTbIIF8J/YYDJOSAIaeW+r4EIi40IZp0IamJBvwzNwEVDn7SHvZBu5PUXIUmQhYlcDL8ETYeDwG/r4UCwkpX9fEyoq/8EKsVmYUK9Qo4gXtqnpDjgzJCyasliElbBUCHlmDIOi7r/mfpTJQJ4ZD+KkGkP/c705vXtnQ+8xSTCkdyxFwCY+MUBtKLjw0HHIwTQtHc+EREeDr42uUtoYj1M0WA+zQ7QOw79oemPjpz46AyC7KaIt2souKO2AhqK0co9EcvZ0evLkPY/4YAas7bXAM4CkopaO3VQqqbndRHz9+AgHpAgyWyxLfeAkJCRAXF8cWz/kazOZB560AAEAASURBVI8C6Cegb+ygEHf0ruHQunRbCJ0YBJ9OKgkZ8xJj/QRT566+dkqdnCkXUwlQW5lKzDbhnaWdHl8IhaPzbkKb+RVsAzIVcnWWtkoFVKmSRWp+56WkQljOP/bsgevXb0Lt2jWhXt06oGKWVfS5M2fPwx+7k4WwmTJnhMoVKzIlizL6gsveazfzFUTHGZzmlI2fUo8O+cZBoMcbmHd9TkqTovhEwKEI1CzqBS3LvAaf50sh/M5G8M/VBNIX+wI8/fKaXA9rv3MsL3g2uYoUwY4JDCveA86E1ICDz7rZcSmpaPZGoHkFb+he2zLzNXLfeclqqfZWewuUJ8Df3wKppO0kQmPCINA7fdqGQLUnAkSACKSAgIqZVo5NiEtBChSVCNg3AXd3d8A/Z3bbL22FZacWp3oVubneYs1gQfhB8A60P9PKqQ6EMiQCRIAI2CEBT29mWjnaIipIdlg7KhIRMI9AWHg4NGvZBkqWLA7F2bYb43+YCGfPnIPvvv1Gb4K3bt2CzcxaS5fOHUCtVsPJk6dh6rQZMGXyJGjZsrneOPpuTs7TEBITovR5Wf0eWqHJGKSCNy/jYVq+GlbPjzIgAnZFgBkhSzgOoGYC3OzVF0Hk4z/hwd5PzS5ihNkxjYvYgAVrEGxcWAqVtgh4gTsUzf0AmvosTVsVp9qmiEC6jN1Z/OEpSsNQZOeedTNUe/I3SCA8LhTSeSebpDYYgQIQASJABIiAFgGVuwreJsbzCQlNE7FageiCCBABuybQrEQLwD9rOaVV5zFhb9mMCIBPek9rZU/pEgEiQASIQAoIePA9ctP2PuEpwEdRnZTA7N/mQXDePLBw3m/MSp4b1KlVC5q3asOFssWLFdVb6yyZM8HwoV9JftNnzYblq9aYJMjN2+y0FN8aJ4rfbHd/gXfxryC4Glm0swZ7c9NUajNz06R4hgn4BFWDLGW/NxxQTwhqMz1Q7PyWM7WZ+m0YhJ+pDx81PejU5pWdqc3sfHhYrHgkyLUYSudMCDVycR8pckSACBABImAeAW+2Ry662Lex4O2ZtvddN48gxSICaZtAbPhbUPmzT3bcKoocESACRIAI2B0BT293SIhOtLtyUYGIgC0JnDlzFjq2b8eFuFiOUiVLQMkSJeDy5SsgJ8jVLa/KUwUJiaYtkgg/WR3UiR9q5Lq4B4BP4RngHlBaN5sUX7+LewZxj5dC/Itd4F9qdYrTowSIABEgAkTAdgRcPALBPbA8vH31F3hmbWm7glDORECHAAlydYDQpTaB0Jg3UCBTAe2bdEUEiAARIAJGE0DTyuhiE5kgl/0jRwSIABEwhUBMaDx4BZA2rinMKCwRIAJEIDUJuPu4cssrCXHvwF3lmppZU15EwG4JXLx0CUaP1DYxGBycB+7cuytb5hcvQ2D1mnV8PN2+cxe2bNsOs2dOlQ2vzyOg0mF9t/mEfPTVweBTZJZFhbnvYu5B5OWe4JGuMhPirgNX7zx686ebzk0g8mUcnFt/H67vfw7vEsnUvnO3NtXOXgigxbuPamaBch1zQ7ocPhYtlkfGehAfspcEuRalSomllAAJclNK0Mnjh8aEsj1y0zl5Lal6RIAIEAHrEuD75MazTWNIjmtd0JQ6EXBCAjGhb8E7He2P64RNS1UiAkTASQigRi66+OgEJsilhTdO0qxUjRQQSExM0lB3c9OecvT384eoyGjZlKOiIuHEyVPc/8mzZ0nHx09lw+vzmNPkIHhoyNHeuD+HAwHr4D/fs1A12B1+ie0O3xwPhwpBHtC1kOkT/7hEN+yWds7jTkXA1mvX2c0V2h52f+UCQXHBUDCqNvi/y2L3pXWIAqocopRUSCLgNATOsFfGhqTXhkXr5OUZDeP6nYbjC+vB/05VgVeh9Iy0KGAnTCyjKgAmr+li1Zppf1VZNStK3BEJhDNBbjoS5Dpi01GZiQARsCMCXh4qrpFrR0WiohABIuAgBGLZHrlegSTIdZDmomISASKQRgl44j65TJBL+5mn0Q5A1dYigHvi5sqVC54+RSFsGckvJOQllCkjb9o4b3AwzJk1XQq/Z+8+GDB4CDRoUA8yZsgg3dc8iYqKhsioZFPKh0otgkT2T9N95JUfGvq0hI9YmaL8IuCXBqcgwS0nvFaVA7VroGZQg+evX4dChgzayg5DPgXAP0dzkfFMcH7nBFx/cYNpQUc4WvGNLm9sbBx4eZGE1WhgdhCQ2swOGsHEIjhjm029VRWC072Cyp+fN5GGYwR/+zYBPDxINGip1nL3KQ34TeLra/oiMWPLQK1lLKk0Gi40NgwCVdofqWkUBVWbCBABImA2AS83L4hLYBq55IgAESACJhKIYXvkepMg10RqFJwIEAEikLoE3Pk+uRpqgKmbPeVGBOyOQOGCBeHosePwWZPGvGw4yX/k2Alo3ryp0WWtWrUKD/vgwUNZQS5OmGpOmm6cuNqI9JsYEUZ/EN8XLyEoS2b9ng54t2QxecG6A1ZHb5GfO1mb6a2kk92kNnO8BqU2ozZzPAKOV2IS5Dpem6VaiRPfJXDBA2nkphpyyogIEAEnJcBNK78lQa6TNi9ViwhYlQDukesdSKY6rQqZEicCRIAIpJCAB2rkxiSkMBWKTgSch0CvXj2gbfuOUKFcWahYsTzMmbsAsmUNgprVq8tWMiYmFu7du8/97z24D1u2bOPnhQsVlI1DHkSACBABIkAEiAARSAsESJCbFlrZzDqGRL0CN1d38PakTR3NREjRiAARIAKcgMrDC2JJI5d6AxEgAmYQiGOmldPlsJ55HjOKRFGIABEgAkRAh4Cntxu8jdY256oThC6JQJoigALc8d+Og6kzZsGz58+gUqWKMHP6VFCp9Ju4dXV15eHq1G/IOfn6+kG5sqVh66YN4O1Nc1JpqvNQZYkAESACRIAIEIEPCJAg9wMkdEMQCItle394pxeXdCQCRIAIEAEzCXi7M9PKpJFrJj2KRgTSNoGY0ATwTkd75KbtXkC1JwJEwN4JeDLTyvExJMi193ai8qUugc6dOkCnju0hOhr3jPNVzLxN65aAf/bufH1ocZ29t5Fu+ajNdInY/zW1mf23kW4Jqc10idj/NbWZ/beRbglddW/QNREQBEJjQiHAm/bHFTzoSASIABEwlwBp5JpLjuIRASIQExbHBLlkWpl6AhEgAkTAnglw08rRZFrZntuIymYbAi4uLgaFuLYpmXm5+vkpC6TNS5ViWZMAtZk16VonbWoz63C1ZqrUZtaka520qc2sw9WaqZIg15p0HTztsJg3kJ4EuQ7eilR8IkAE7IGAF9PIJdPK9tASVAYi4HgEYsMSwCuANHIdr+WoxESACKQlAp4+7mRaOS01ONWVCBABIkAEiAARIAJEgAikIgES5KYibEfLKjQmDAJJkOtozUblJQJEwA4JeHl4QyyZVrbDlqEiEQH7JhDL9seNCYsHv0ykkWvfLUWlIwJEIK0T8PRle+TGkmnltN4PqP5EgAgQASJABIgAESACRMAaBEiQaw2qTpIm7pGbjgS5TtKaVA0iQARsScDLXQVxibG2LALlTQSIgAMSuPbnM8haLBBU/qSR64DNR0UmAkQgDRHw8HKD+CgyrZyGmpyqSgSIABEgAkSACBABIkAEUo2Ae6rlRBk5HIEwppH7UaYCDlduKjARIAJEwN4IeHl4QXR8tL0Vi8pDBIiAkQQubH0EJxbf/iC0d6AntF1YgQlarfNJfXXPU6jQOfiDfOkGESACRIAI2BcBT193iH4Tb1+FotIQASJABIgAESACRIAIEAEi4BQErDPr5BRoqBKhtEcudQIiQASIgEUIqNy84HXCa4ukRYkQASKQ+gRKtcgJ+KfrNvU/A8+uhEGeyhl1vVJ8/fhCKMSEv4W81TKnOC1KgAgQASJABKxLwJ1p5L6NJo1c61Km1ImAZQjs3LUbzp3/F4Z8ORACAwJ4ov9euAg7ft+llUHhQgWhbZtWWvfERWxsHGzYtBnOnTsHuXLlghbNmkK+fHmFNz9euHQZ9uzdB7ExsVC//idQtXIlLX+6MJ7ARcZy2/bfoXmzz6FkieI8YmhoKMycPVcrEZWXCkYNH6Z1T/Ni9569cOjwUfD09IQGDepBtSqVJW9T+4AUkU70EtA3zrbv2AkXLl7SCt+QtUOlihW07omLd+/e8XF57MQJUHmq4JNPakOtGjWENz/SONPCkaILfW1m6rgw1GbmjNsUVcqJI8fFxcGKVasB30eDB/aXamrqOJMispPuvfpCjuzZ4ccfvtO8DTTOtHDY7IJMK9sMvf1nHBoTSnvk2n8zUQmJABFwAAIqdy+2R26cA5SUikgEiIApBIKKBMCzq+GmRDE67NXdT6Bwvazg5uFidBwKSASIABEgArYh4OnDTCvHvLNN5pQrESACRhF4+fIl9P1iIHw5dBib/F4FMdHJFpNOnT4N/ztwAHx8vaU/lUolm26fLwbAmrXroFixonD//n1o2rINP4oIKPxo3rI1F+LivU5dusHeffuFNx2NJICCiqkzZkEzxhLb7P79B1LMu/fu83uabebt5SX5657Mnb8QRo4ZB9mzZwNvH2/o3LU77Nv/pxTM1D4gRaQTLQJK42zHzl1w7cZ1aYxh27m7y+uYjfvuB5j00y+QJ09u8A/whx5MyITCRuFonAkSKTsqtZmp48JQm5k6blNWM+eNjYLVz5q1hJ9++RW2bNuuVVFTx5mIjAuPDh46BGvXrxe3+JHGmRYOm17IPy1tWizK3B4IhMWRINce2oHKQASIgOMT8PZge+QmxDh+RagGRIAIaBHIWjQQru9/rnXPEhexYW/h9uGX0HaR/tXplsiD0iACRIAIEAHLEeCCXNLItRxQSokIWIHAug2bmCamB2xYuxraduiklcOjR0+gSqVKMHzoV1r39V3cYwLEI0ePwvHDByAoKIgHadOhM+z78y/o06snvx4xagz079cXvh46hF/nzJkDho/6BmrXqglKAmJ9+aXle+fOX4C//v4f/PH7NujSrZcWiqdPn0LWoKxGtZlarYZly1fC5Ik/QJPGjXg6vj4+sH7jZmhQvx6/NqUPaBWELrQIKI2zO3fvwleDB0Gzpp9pxdF3ERMTA/8cOAgL5/8GZUqX4kFcXV1g05at8FmTxvyaxpk+cqbfU2ozU8aFMW1myrg1vSZpJ8YvU6ZCk08bQ8YMGWDhkqVaFTdlnImIYeHh8O33E6BK5crw6PFjcZsfaZxp4bDpBWnk2hS/fWbed2MPaLqkMeAeuZl8M9lnIalURIAIEAEHIuDl6cM0cmMdqMRUVCJABIwhkKWwPzy/EQ5sbsii7tqfzyBrsUBIl8PHoulSYkSACBABImAdAh4+7mRa2TpoKVUiYDECXTp1gNkzp0PmTB/Ocz189AiCsmaBM2fPcxOSiYmJUr6oFVqzbn1YsGgxvxcUlAV279whCXHxpgfTKox/+5b7R0VFwa3bt7m5ZX6D/deuTWuIiooEzIec8QSKFSsCv2/dBEUKF/4g0uMnTyBPcG64eu06nDh5ClCIpOmGjxwN3Xr2lm6tXL4EPqlTR7p2c2eWFOKT9zZX6gNSJDoxSEBunKHJ3YcPH3Jt3KPHT8CdO3e10tIdZ97e3nDs8D+SEBcDh75h89QZk7a0oXGmhS9FF3JthokqjQtT2wzTMzRuMQw5wwR+mzWdm1NWqTy1AhsaZ1evXYMSZSrAyVOnteJN+XU6FClSGNq3a6N1n8aZFg6bX5BGrs2bwL4K8Cj0IYREhcCOnsmmKuyrhFQaIkAEiIDjEVC5qSAmgQS5jtdyVGIioEwABa2ubi7w6nYkZMrvpxzYBN8ru55Axa7a+6yZEJ2CEgEiQASIQCoT8PRmAoFoMq2cytgpOyJgEoF06dLJhn/w4EGSScm1G+DV61dMyykjbN6whpl0zcNMv3pwYVJQliTtWxQw4f65wh08fBiOsz08J3z/Lb/1gAmr0OXKlZMf8T8/P1/w9fXjpoHzf/SRdJ9OlAkE+PvLBnj8+CmcZALcNu07cSE5Blw0fy7UrVObx8mf/yMIfN/mLi4uTBhcSErrxYsXMH/BYhj/7VjpnlIfkALRiUECcuPs1atXPG6//oP4+MJxhtp/ixfOAzSJrTvOREYobF+0dBlcZqZkcaEFhkdH40wQSvlRrs04ZxOejaIkcm2G/obGrUiDjsoE5NrM0DgL8A+A8uXKQgAzVS4cjis0p/zPn3vhyn9XxW1+pHGmhcPmFyTItXkT2FcB7ofehzwZgu2rUFQaIkAEiICDE/Bie+TGkUaug7ciFZ8I6CeQjWnO4j65lhLkPr4QCnFRCZDv48z6M6S7aYKA+tVjSNw+GxIPbQJISNLwsbuKu7qCW5XPwa35l+CSjSal7a59qECpSsCD75GbkKp5UmZEgAhYjsC0X3/hZpdR8zMyMgoGfjkEvmbmkTetWwNubq4wY+oUvZldv3ETBg4eCmPHjIZ8+ZIW4UVFJWmGurL3pKbLkCE9REcl78ur6UfnphPo3rUTNG7UAMqVLcsiq2HWb3Ohd7/+cOHsafD394O+vbVNMYscsH279uwDH1etrGXiV6kPiLh0NJ9AQEAArF21AvLkzgXZsmUDNFHeul1HmL9wETe3LDfOEpkm753bd+Hps+dc+BQZGckLQePM/LYwJabSuDC1zTBfQ+PWlLJR2A8JGBpnOXJkh2WLF0gRUeg+cvQYGDl8GF+4pCvIpXEmobKLExLk2kUz2E8hHr55ALnT5bGfAlFJiAARIAJOQMDLgwlySSPXCVqSqkAEPiQQxMwrv7gWDvBZ9g89zbhzdfcTKFwvK7h5uJgRm6I4KoEPBLfvhaSeP+23WyGpKHP8qPp2J2xGnas4R+0MaajcztRO6neekBC1COI65nbKFnSmtrJVA7l92gfcOyRr/9mqHJSvfgKlSpaQPFB7dtCA/kzI1AGio6PBh+2lqs89fvwEOnXpDi2bN4Me3bpIQXLnysHPUesTBVbocI9WNCubU0NLl3vQf2YTQG1p/BNuANuTePacuXDx0iWoVrWKuK11RFOw/Qd9CSpPT0ABlaaw3Zw+oJU4XSgSwL2hK1eqKIUJDs4DPbp3hf8dOMAFuZKHzglq606d8hO/u2LVGhgydDicOHoIaJzpgLLSpTnjQq7NUPBrzri1UtWcMllTx9mCxUuYWfpY+LzJpxDCtOafPX/B31V4np5ZNKBxZl/dhAS59tUeNi/NAybI/Sgjrai3eUNQAYgAEXAqAqiRG0uCXKdqU6oMERAEgooGwvW/novLFB9vH34JbRZUSHE6tkhA/eQ2xE9qB/DGcjxsUQ+5PK0tyHCr1gx0BbcvwxNh475I+PtSLCTYidVWZp0QahTxgnZVs0KOnj+BO/uzN/f8xUsIykJa7fbWLrrlcaZ2cot7B+rmh8Ft6T1wV2lr4enW2xGvnamtHJE/ldm6BBIT3/H9bxs3bAAoXEIX937vVHe2960+9/r1a+jSvSdUq1YFxn0zWitI5sxJ75+Tp85IGp8XLl7iYVAbkZxlCGzfsRMyZ84kCW3FvsZeTPCnz2E7fz1iFDPt+hi2bFwHaCJbOHP6gIhLR+MIPGF7Gm//fRdb9NAVvLxUPBJqA/rKLJRAU9e7du+F3j27g4eHBw9fpXIlGD/hR3jx4jlkzZqV36NxZhx/c0KZOi4MtRkubDF13JpT7rQcx9Rxtn//30x4+wyq1UzePxz5VazyMTe1nDt30gJFGmf20av0f5HYR9moFDYg8ODNPaidP2k/CRtkT1kSASJABJySgIoLcuOcsm5UKSKQFggk7F4IiWt+1FvVQLUbhIcuh+ftikI6tyRTX3oDKtwUAsLXiQHg6TIZfEYVdlhtQvfO34Fbw54KtXVcLyVBBhe4Ho9JmcAVu88q5BMiQRJC09k90kOODG7SfVueiLoOWvrGboTLH/JAjfZkjh/60x37IOBc7fQpg9p50lOI8k2aoLYPxpYqhXO1laWomJJO8wre0L22rylRKGwqEUAtsX8OHoQDhw7Dd2PHMC1NF5gwcTJ82qghM7fsybVpx0+YBLVqVYdaNWqw/VijoEfvfuDJNAy/6NuHay9hUVE4hcIl3I91+LChMHHyz+w6CDJkyACjx34LHdq14+epVC2nz+Y+E/SN+/4HmD93NuRi5kJnzp7L914tUbwYr/u69RshPCJcMrE8fsJE+GPPXli9cjmEhobxPwyIwntDfcDpYaZCBQMCAuHXadOZEPYlE+Z2htt37sLipcth9Iivee6ota45znB/Ywz/+s0b6MU0d6OjY2DK1GmQNzhY0nSncWbdhjM0LsxpM0Pj1ro1cv7UDY0ztBQxZep0GNi/H9eO3rh+NbxLTJTA7PpjD/zI3l0njhzg1ijofSahsYsTEuTaRTPYTyEehj6A4Iz57KdAVBIiQASIgBMQQNPKbxPjnaAmVAUikDYJ7MrcGZaWaiFb+dJXHsFUz41wrUDSynDZgAY8cj55A9ldw6F1qXMGQtqx90VWtovOKkBTFmTULOoF9iRwtVYvyRzgBgMa+PE/a+WR0nSVhO4pTZviW46As7XTX4mZoWSmOKjSO8msquVI2T4lZ2sr2xOlEtiSAC6SQocT1MLNmvYrfDlsBHzWLOl7D4W4P0+eyL3j4uJhy7bt4OXtxQW5R48f5+Z70bNRk89FElClcmVYs3IZv+7TqwfT/HzC9mwdwAS/kVwoPOq9wEqKQCcmE3BhQnbhcA/cp0+fQeeu3fmtkiVKwIa1q7jwHW8cOnwYHj1+ygW5b5gwcPXatTxcpy7d+FH8d/PqZSbIdQOlPiDC0tF4AmJ4iXGGJsvXrV4JI0Z/AytXrwZfXz+ubduhfVueqO44C2R76m5YuxpGjRkLS5ct52FwjK1esVQqBI0zCYVFTnTbDBNVGhfmtJmhcWuRiqShRFwg+ZmI1TY0zp4y08n4PmvM3nFo5hrNYGu6gAB/tuAoPRufyQvPaJxpErLtuUt4ZITaUBHCQ8MBN0MmZ1sC1v7xdPLBCVhzZiXMajHXthV18Nyt3U4Ojseuik9tZVfNIVsYZ2gn3B+3zYoWsL7zFvD2TDbhJFtpB/VwhrZyUPQfFBsnjgLSBXxwX/eGI37jYd3+2LMHrl+/CbVr14R6desA7gWjz505ex7+2L1H8sqUOSNUrlgRypUtI92zxMnjC6Gw78cr0HVtVUiMvQuPDnSBDIX7QLoCyfulKeUjxs6h326CytsdKvXIqxTcbv1e/juJ1T8EslaeZrdlTEnBRDulJA2KmzoEqK1Sh3NKc3G2dtJ8FzjbPufO1lYp7bu2ju/M33m2ZhsTE8OFeqiJq+kSEhJAzsyyZjjd87dv38K7d+9kv1V1w9O16QSwbXDvW03BA6aC2oLIHoW0pji5PmBKGhRWmUBYeDj4+/lp7VGMMeTGGe5Vje0o95uPxpkyb0v4yo0Lc9tMbtxaoqyURhIBU8eZIW40zgwRspy/3HceaeRajrHDp3TszhH4OF91h68HVYAIEAEiYG8E0LQyutjEWPBm/8gRASJgHgH8MdKsZRsoWbI4FGdm08b/MBHOnjkH3337jd4Eb926BZu3boMunTvwyZyTJ0/D1GkzYMrkSdCyZXO9cUy5+Tb6Kby5tgBi724DVxgNx35tBNkKPIBMpUYZLcTVzC/kZgSUaqm9d9rrkAj4Y/MZOPzXFc2gdnmuUqWHjnW3govbaEhfpA94+jmmQNpUuPERd+DJoR6QEPPC1KgU3ooEIqyYNiVtOQLO1k6u8K30LrAcJftIydnaKrWppivYAzKVTDIhmtp5U37GE9DcN1UzljlCXIwv9vbUTIvOLUsA20Zf+6AmqKlCXCyZXB+wbKnTdmqobavP6WtHDOcjs4+uSIPGmSBhvaPcuDC3zeTGrfVqkPZSNnWcGSJE48wQIev7kyDX+owdIoeEdwlw8sFxmFZmtkOUlwpJBIgAEXA0Anyf3PhY9svQ0UpO5SUC9kNg9m/zIDhvHlg47zc+MVOnVi1o3qoNF8oWL1ZUb0GzZM4Ew4d+JflNnzUblq9aY5IgN/TGcgi5+IuURniUKxy9UgIu36sM6neZ2P3e7C8Ejp1tAnCWna4PZ//NYX+mu70zWRz8e+9wEqpCtfzww8yOkDVHenHbLo/rlhyC8y/HQD63i/BwXzMmPH9rl+VMSaHkBBnmCu9TUhaKK0+AtAfl2diTjzO2U5TLI3hwqihUb1XSnlCnuCzO2FYphkIJEAEiQASIABEgAkSACBCBVCJAgtxUAm3v2Zx9dAay+AVB9kAyoW3vbUXlIwJEwDEJeHmouEauY5aeSk0E7IPAmTNnoWP7dtLq+lIlSwDuh3X58hWQE+TqllzlqYKExATd24rXp66Vgs3r+2uFqfhxARj/ZUVJuBob9hZWtD8GVfvkhxLNTNsf0VkmyBu3KA/fDFgJ508L4bYWMue+SIHw3rnBUO2IQNoksLPVobRZcaq1LIHiwXlh8K+fyvqTBxEgAkSACBABIkAEiAARkCNAglw5MmnsPplVTmMNTtUlAkQg1Ql4uXkB7pVLjggQAfMJXLx0CUaPHK6VQHBwHrhz767WPc2LFy9DYPWaddy08u07d2HLtu0we+ZUzSAGz+t/XgbwT8l5BXpA3901lYI4vV9geh+Ys7af09bTWQTuTttAGhWjttKAYcen1E523Dg6RaO20gFCl0SACBABIkAEiAARIAJEIBUJkCA3FWGnRlbd1nWCN9GvzcpqfqslZsWjSESACBABImCYgJeHN8S9JUGuYVIUggjoJ5CYmMg93Ny0P1/9/fwhKjJafyR2NyoqEk6cPMX9nzx7lnR8/FQ2vC08oqNjbJEt5WkiAWonE4HZMDi1lQ3hm5A1tZMJsGwclNrKxg1A2RMBIkAEiAARIAJEgAikaQLaM2FpGoXjVz4yLpILcTd33wEerh6OXyGqAREgAkTAiQh4uqsghjRynahFqSqpTcDNzQ1y5coFT5+iEDZZOzYk5CWUKVNatjh5g4Nhzqzpkv+evftgwOAh0KBBPciYIYN0X/MkKioaIqOipFsu4AJq9s9aLio6GlDbiZx9E6B2su/20SwdtZUmDfs9p3ay37bRLRm1lS4R86+DsmQ2PzLFJAJEgAgQASJABIgAEUiTBKwuyA0NDYWZs+dqwVV5qWDU8GHSvZcvX8LSFaugaOHC8FmTxtJ9nKjbtGUb3Lx5E4oXLwbt27WFAH9/yV/z5Oy587Drjz3Qt3cPyJo1q6YXP9++YydcunIFxo0ZBYmJ76BL957Q9LMm0KZ1Szhz9jz8sXuPFCdT5oxQuWJFKFc2eZJQ8rTjk8j4CFC5qUiIa8dtREUjAkQg7RLwdmemlUkjN+12AKq5RQgULlgQjh47Ln0vxsbGwZFjJ6B586ZGp1+1ahUe9sGDh7KCXF9fH8C/1HQ0sZuatM3Pi9rJfHapHZPaKrWJm5cftZN53GwRi9rKFtQpTyJABIgAESACRIAIEAEiAOBqbQh3792HFatWgY+vt/Tn7eUlZbvj951Qp35jWLBwEZw8dVq6/zIkBD5v3houXLwIJUuWgD1790PHzt2ZEDbJrJ4U8P3JzZu3eD4bNm3R9QKc5Bv3/Q+wbPkK7ufm5gpFihSGoKxZ+PWtW7dg89ZtvHzePl5w8uRpaN2uA2xhQmRHcqiR66vyc6QiU1mJABEgAmmGgMrDC2JJIzfNtDdV1DoEevXqARs3b+bfaA8fPoTvxk+AbFmDoGb16rIZxsTEwj32PYp/Bw4dgrHjvuNhCxcqKBuHPIgAESACRIAIEAEiQASIABEgAkSACBABIkAEiIA9ELC6Ri5q1WYNygrDh371QX3j4+Nh7Hc/wC+Tf4S//v5Hy//gwUMQEOAPC+fNBRS8dmzfDoqXLgcXL12GMqVLaYXVvFi9Zh3079cHPDySTQvv27+f74+mGa5l82aQRcOkTZbMmbTKOH3WbFi+ag20bNlcM5pdn0fGRYC/Sr/Gsl0XnApHBIgAEUgDBLzdvSGGNHLTQEtTFa1JoEK5sjD+23EwdcYsePb8GVSqVBFmTp8KKpVKb7aurq48XJ36Dbm/r68fs7hSGrZu2gDe3t5649jipq9P6mr/2qKOzpAntZPjtCK1lWO0FbWTY7QTlpLaynHaikpKBIgAESACRIAIEAEi4HwErC7IffzkCeQJzg1Xr12HsLAwKMW0a8XEGQpbjxz4CwIDAz8Q5NaqVRMqV6rEhbiI3dXVjdNPSEiQbYVChQrBo0eP4e///QMNG9SXwq1YvZZP9J08eUq6N3T4SOjVrausoFblqYKERPm8pITs6CQiFgW5pJFrR01CRSECRIAISARQIzeONHIlHnRCBMwl0LlTB+jUsT1Es31lfX19FZPBLTTwz96dn59yPey9/GmlfNROjtPS1FaO0VbUTo7RTlhKaivHaSsqKREgAkSACBABIkAEiIDzEbC+IPfxU2aq+BS0ad9J0opdNH8u1K1TG1xcXLgQVx/WTBkzat2ePXcu5MqViwuCtTw0LvDHRccO7WAV08oVgtyr167Bv//+C7NmTOPl0AiudfriZQigNq9arYbbd+7Clm3bYfbMqVph7P0iMh5NK5NGrr23E5WPCBCBtEnAy10FcYmxabPyVGsiYGEC+A1pSIhr4SwpOSJABIgAESACRIAIEAEiQASIABEgAkSACBABIpDqBKy+R273rp1g/ZpV8O+Zk3Dz6mUYNLA/9O7XHyIiIo2u7PYdO2He/IUwY+oU8PT0VIzXrnUrOH7iBNy+fYeHW7d+ExcaoxBYyUVFRcIJJnDGfXovXr7Mgz5hQmhHchFoWtmTBLmO1GZUViJABNIOAS/cI5dMK6edBqeaEgEiQASIABEgAkSACBABImCXBOLi4uDmzVt2WTYsVGJiot2WjQpmPgFqV/PZGRszMjISXjJlLXS25n39xg2IjaXF/Ma2nTnhbN3G5pSZ4hABcwlYXSM3T548gH/CDejXF2bPmcv2ur0E1apWEbdljwcPH4ahw0fAnJnTFffGFQkEB+eBGtU/hvWbNsGXAwfC6rVrYdmShcJb9pg3OBjmzJou+e/Zuw8GDB4CDRrUg4wZMkj3NU+ioqIhMipKuuUCLqBm/6zlXoa8Ukz6xZsX4OriBs9fvFQMR57WJWConaybO6VuCgFqK1No2S6ss7TT25hEeBP1xqmf0c7SVrbr7ck5B2XJnHxBZ0SACBABIkAEiAARIAJEgAhYjMCatevhwsWLMHO69S3xoWAJlVIMKaaIyo0YNYZZCrwDWzauF7fo6CAELl++Ar/Nmw/zfpv9QYnv338Ates1gGWLF0LNGtU/8LeXG8b212fPn8OoMWNh1vRpEBBgulIRWsQMD4/gpvvd3JK2U0wpg+07fmcyhJHQpVNH6N61i0Hew0aMhLatW0PFCuXhTWgofDVsOHw99CsoXqyoUUXB+N27dIGHjx7BLaZQNmjAF1I85NOoSVM4e+o4nD13Hv45cADGjhkNPXr1hfHfj4NcOXNKYZX6jRRI4WTQkKHQrUsnKFe2rEKo1PWKiYnlMhIfb2+rZfzu3TuoXvsTaN2yOXz15WCz89m8dRs8ffpMq/3MTkwnojX6uU4WNr8MYfKqr0eOgoXzfoM5c+dza7poiRcd+u3Ztw8qV6wIBQrkly2rSGPmtKnMem+AbDhjPFI6nozJQy6M5jNFLkxK7ltdkIvatJkzZ5KEtmKlhJeXl8Fyn//3AnTv2Qd+HP89NG7U0GB4EQDNKw/9ehQEZc4CWYOywsdVq8Hl//4T3kYdq74XMj948FBWkOvr68PM+vkYlZ6lAilN7L67ngjZ/LODUhhLlYPSUSZAbaDMx558qa3sqTXky+IM7ZTxRUZ4Gf/C6Z/RztBW8j2RfIgAESACRIAIEAEiQASIABFwZAKoITdv4SJYvmRRqlSjQ+eu0KF9O2jXprVR+X3W5FN49UpZkcOohChQqhMIef0Kjhw7rjffzGyhLgqbChcupNffXm4a219jmaDu0OEjkJDw1qyioxC3TIVKsH/PLsj/0UdmpaEbaeHipfDN6JHQs3s3iI6JMcj70OGjUK9uXZ7M27dveX369u6pm6zs9fETp6BFs2bw6PFjQO1bTXfixEkoWaIEpE+XjgmzQtjCkSTrnwcOHYLo6GjNoKDUb7QCylyghVF8btiTmzVnDjx99pxbV7VWuVxdXeGLvr2Z4L1YirK4c/cuoPzHGs4a/dwa5UxJmmjhAp8FiYnvAIWomnOCS5YtgwWLlkCVypVhzcplstlEx0TzNOLj42XDGOuR0vFkbD76wmk+U/T5p/Se1QW59x88gHHf/wDz586GXDmyw8zZc5lgNCOUKK48yG7eug1duveCli2aQ9UqleHevfu8runSBUI69hBUcnVq1QIvlQom/fwLjB45HNzcDFuQxpUiIo97D+7Dli3beBaFCxVUysqu/NC0csHMpq+CsqtKUGGIABEgAk5KwNuD7ZGbEOOktaNqEQEisHPXbjh3/l8Y8uVACAxIWkX674WLsOP3XVpw8NuybZtWWvfERWxsHGzYtBnOnTsHuC1Ii2ZNIV++vMKbHy9cugxoOQYnT+rX/wSqVq6k5U8XygQuMn7btv8OzZt9ziZXivPAoWwFPv5G0XQqLxWMGj5M85bW+e49e9mPzaNcuwYt+FRjv1eEM7XdRTw6ahPQN6ZwkfCFi5e0AjZk/CtVrKB1T1zgSn0cg8fY1jsqTxV88kltqFWjhvDmRxpTWjhMvtDXTqaOAUPtZM4YNbkiTh4BJ9lWrFrNTDzGwWC23ZVwpo4pEQ+P3ZlWUY7s2eHHH77TvA00prRw0IUCARRWnmGaaq4uLkwjroKkhYMmj9H6XZnSpXhs1Gj68+//ca25dIGBfEu07NmzwevXr+Hu3XtQoXx5yMHmG69dvw7Xrl0HVMzIklneus1u9h3l6+MDxYoWkUqHz6GrLC4KYz5i316lSpaU/PAkNCwMTp0+w977HlChXDmm1OHL/VFZ5a///cO1jTDukydPoGzZMpD7/fZu/xw4CJev/Adbtm6HTBkzwid160jxUPjy+PETyJYtK5/3FFqJWYOCmJaiHw+HjPDbpXy5sjz/hIQEqFSpIiAH4UTZr167xsqeT+KG/rh9HLJ6zrQDb9+5y7QP9X+DYlhRF9ROxMn4KNYGVatUAR8fb65RiLxr1qwBuhp2KMQ6c+YspEufjinSVAV396SpZmzHmNgYPod7jrVz/vz5uaYjar6dYd+6BZl2VqGC2nOuKGTHd0gIqzeWQ7MddevSsnkz+JuxRy3ETJkyYhW4Q+b58uZl1iFzi1vSEfsI1ktoLqLW5AWWX+1aNfk3Hfa1/X/9DaVLlWTCiCw8HmpbYvlz587Nvx1FO4m2we/Jw0eO6hXQ4rP3wKHDkI9ZgcRv+oIFC0j8sD7Yb1ED9r+r15gwMx8X/EmFZSdYVux3GKZG9ercumWB/B9B1qxZNYN9cI71QI53792DokUKM9YFAIVewoWFhcOJU6fgHeu/Vdg3rOhPcv1VxNN3jGcCUC6cZFYr8XssI+vn6JB1aGgYVGb9VbgHTEaAmqt4D7X00P2xey+3rCnGOzLD31TYZ8uULq3VjobqhW1VtkwZnq6KacFr8sabmjxr6nwPur3n4+ZmGVHJUSbQr1XTPM1rzX6DWozYV/C5IPo0ag+fZmOu/idJQmheYfYfKsShbKNUqRJ8DIj7eFTiqju28DlhTP+U60dohXU1s3qAvBs1qM+FeEJrW+55gWWUeyegn5zDvp0hfXrJWzwPb968CSXY2MRnorHu+YsXfLz5+/tBpQoVwds7WQnRULr6yo4Ce339XDwb8fmG7ZiBWYKtUL6cltUGHPPYh5AxjuHi7+Vo5jynRdn1vSOMZWNOOOynKMRFK7sDv/yKP5Pw2Sqc4I3vY3xm6zql9wGGFX36BWu30qVKSeNDNx3d8YT+cv1QtA2+g3EMNGrYQHo+6qaL10rPFBFeLi/hb8rRMk8nhRz79u7F1dM7d+3OQ+FqlA1rV2l1TvRwdWWGidnHm3A4iYX71m5h6u34J9ywoUMAzTPrOs24+FLtyvbmnTZ9JrRgL3Z0ySknxXTXeDDjy+zZ82dQp36S1q+vrx97qZeGrZs2sEFrPRMASSWx3P+RscwkhSrpY89yqVJKRIAIEAEiYAkCKnfaI9cSHCkNImBvBF6+fAljvx3PJhj/5kXr27uHJMg9dfo0/I+Z0WryaSOp2Cq22FDO9fliADx79gxaMfNQl9ikXdOWbWDX9s3sR0nSNiU4IdOidVtmLqwTT6JTl24wd/ZMaMh+IJNTJoA/4ObMWwC/zZ3HA5YtU1oS5N5lEx4rVq2CL/r1kRLx9PCUznVP5s5fCPMWLILePbtDFPuBjr9z5s2ZBQ3q1+NBTW133fTT+rXSmNqxcxfExsWySbrSEiYxYSzd0DgZ990PsP/Pv/hvQ9wWB83Zocmuz5o05qFoTGnAMvFUqZ1MHQOG2snUMWpiVZw+OApWh48YxSbPb/NFQpqCXFPHlICFC4oOMq0idJqCXBpTgpBjH/++8SesOL0UwmLDTKpIoFcgdK3QA+oWTHofKkXGCeU27TtBdibERGWNvv0HSpp5237/nWtH4eQvOpy47sf8t2/ZCOnYnOLkn6fw+7jIA9/DOIHep1dPWLNuPRf8oWnV9WtWcUEgD6jz339Xr2r5Yfq9+/bnwiics0QhRJvWLeGniT/ymMfZYqCOXbpD3uBgJpiMhYiICNiyYR0XEsUwrb8vBgzigkGc0H3JNO+wPJvXr+UCXVz4he4sE1xu2pKeC3JRkaRth45cwIuT9ziRj4LEJQvn87Ca9b905QoM/moYyzsPeHh4cEENCom3bd4A6ZnwQrPsKJzEfDTLjqxQwwkFXOWYgFlJkCvqggI11E5EAXThQoW4APLyZSbYZaxxYv3EkYOSIHvu/AXw67QZXHh8gwlu0VzspvVruD/W48CBQ5xJBibkRYWdfn16wao163h9MP3hw75iGnVJ3184qd+kaQueB6YzmJmLnTblZ2jW9HPORbcubVq1hF9+ncYX5w3s/wUPg5p1Pfv0432F39D5D/P8ecpUOHn0EBdsbty0BWbMmg3rVq/kQkgUxmN7Hv4n6bt+DvtunDZjFheworlrLNfGdau5oF20DW7H58MEEfhs9dIQ/CD3/oO+ZPu1voRVy5eB4Ltn1w4o5O/P+zG26WMm/PdmVitR6MpN73brwkt9n5libtKsBaBFy8yZMsFUNseNbTDh+2+hoQFB7uix4wDrhovXkFttJoD/5adJPN3jJ06y/twNUCAcFxcPr5iAHutUpHBh0NdfdRB+cNmv/yB4weoo6rBq+VJulfMOWziAwpvL/57lfDDijNm/McFUGBdKrd+wiae1eu06Lg/Afif6AHpkyxrE+uBIXu5WTMkLnVK9eAD2n1Dm0uWtyRP744xZc7T2r3V7vwBBxBfpKR1RkJohQ3oIZr/VNOUSKDjbu/9PWLwg6XdHzpw5pEWHn3/WBPyY3EHO6fYbDIdtiOaDhSD3xo2b/Jl458ZVKZm57HcO9lEUXF4ccQm+HDSQ/Q3g/oa46o4tfE7gPaX+qdSP8JmGz0N0Gzdv4c8RFOQqPS+U3gk8IZn/NNngQpdefb/gmp2az/LJP07Qah99SaHgF58/uXPl5M9ZXGyAfRllTIbSlSt7AFvcra+faz4bcUEcvnPqsb60YO4cXjT8Xmveqi0f+6I8Y0aNgF49ukvPEWOf04beEfpYmHrPh1mrRUu6OHbKlSsDOdlzEt2q1Wv5uwH9urI+MW/BQqmOuGAG3+v4HHr9JpRz18xX9Fl85+h7Hwh/jCPeL/iME88KkZa+8aTUD7Ft9u37kz/TcCxVZZrEYqGLSFMcDT1TMJy+vHbv3C6SMP0YHhmhNvT36NFjtuglZY59BKjZaoKUJZLGYz97/kKRwMDN/dTnH51TDEOe1idgqJ2sXwLKwVgC1FbGkrJtOGdpp5P3T6i/2j7YtjCtnLuztJWVMaVK8vjtZuj7Dv0t8Y2XKhWy40xmzv5NPXDwEDVbLa/OW6Cw+unTp1JpmXBCPXL0WOla6YRplPD4TJArBWvdvpN6waLF0nW9hp+qp0ydLl0vWrJMXbx0eTX7gSPdoxP9BI4dP6lu2KSpmk3eqstXqqb+fecfUsA/du9RV/m4lnStdMImZnj8nX/sloJhH+jWs490bUq7S5HoRCKgNKZq1KmnZhrVUlilE7YKnrcr0+qQgv0ydZq6c7ee0jWNKQmFySdK7WTKGDCmnUwZoyZXJA1E6NC5mxrba/WadWocQ5rOlDEl4jHNRP4cxHR106MxJShZ92jt77zOq9upP1/cyKw/jGuMmzj5Z3Wrth2koCtXr1H/758D/PrnX6eqB7BvK+FwPhG/sdietvxW0xat1W3ad1SzyXX+V5P16/KVq6mZ4Ib79+jdV/3d+Aki+gdH9F+0ZKl0f+HiJTz+ixcv+T22mI59X5VTM41Cniaes31PuR9+B4z99ns15omOCXV52SZMmsyvsaxYvjFjv+XX+N9nzVqo123YKF3fuHFTPXT4CPXLlyH8HtYL68e0c/m1Zv3/OXiQ+7FFSdwPy4hhf9+5i19jPerUa6hmmk/8+vr1G9yfCVn4NZYFOQs2/KbMf6Iu02bM5CGY8JenxYRxaqw3poEs8JmMjmn/cX/khQ7j12/0KX/e4DXWA8OzCXe8VI/+ZhwPj1zRLV66jJedX7D/2NZ6/A/bFR3b75SHF1z01YUtrNNKgwleta55Qhr/YVmQHxPo8ruYJpaRCUn5NfYFtq8pP8fvBwyL3/jooqNjeP3GfT+eX4u2+evv//Fr/A/vYXpMeKBmCzR5WqJtBF9Rf8wb/8R3PI6JKtWTv0exjzNBh5oJYnj6S5ev4OVhC2mk/PSdvH7zhoc7cvQY937KfltMmDhJzYTAUhuuXrOW+2G7fj1iFB9PIi3d/iru6x7Fbxfsy8Lhuwbrj22IvJCf6C+YP14zYTEPzrR1+fXNW7dEdDWOTSbAl+q8afMWHiY8PFytVC9MQPRXJlTj6enybt+pC28TwXPJ0uU8bcGTaT7ya/HdiOXDscMW0Wr9jRj9jVReuRMsA9ZVtK1cOHFfqd9gGOwnos3wmmnz8/TxHB0+//A5wISn/PrY8ePc/9LlK/xaiSsGwPR1nxNK/VM8C0SZ9PWjn36Zov5y6Nc8f/zP0PNC6Z0gJaLnRJMN/m5GFsyUNQ/JBNucg+iDeqLzW/iswvZ68PAhvz59Jul3Pf5uRGcoXaWy6+vnIj8xF/PnX3/z/MWzDq/HT5jIxxHmj89K8WwQ/drY57Shd4Sx/Rz7MlukhMUxymGfwHeHeA4h2649evF3FfZT5L1k2QqeFo5JfF7iPfEeNvQ+0PXHbwhkhO9gpfFkqB+K95ZoG6XKGnqmyOWllKbwk/vOS7arYLoM2KQYuFJamB4xKSIFNppARDxq5JJpZaOBUUAiQASIQCoS8GIauXFvY1MxR8qKCBCB1CDQpVMHmM00RnClvK5D7YegrFngzNnz3NQkrogVDjVEa9atz8wNLea3goKywO6dOyCImc0SzoN9P6O5MnS4qhlX56K5ZeFwrzW0YIP5kFMmUKxYEfh96yaubaAbEjUh8gTn5iYV0cwhm5zQCjJ85Gjo1rO3dG/l8iXwSZ060rWbuxvXdhE3lNpdhKGjPAG5McUmBODhw4fg4+sNR4+fgDtM00PT6Y4ptKx07PA/WiYmQ9+EcdOWGI/GlCY908/l2glTUhoDprYTpmdojGIYcvIEfps1nWuKqVTalgYMjSnUMClRpgI3LaeZ+pRfp0MRZuavfbs2mrdpTGnRoAtDBNBUJGqPMgEpe/9eg04d2nOtVEPxhH+D+vW5phRqS6EJ3rp12BZrTHMRXTVmDvjKf8maavymxn+3mWlXzS3b8N3fuWMHyJw56VsOTVheOn+Gm/1FDU18X6AmFDrUuuvTuyewSWmusSOS/bRRkvUVnPusX68u/2YTfrpHNJU65afJzHxwCOzdt59ZjkjS/kSrLHKuTu1a3AvLiHsNoqUCdEz4Df5Mu/Ps2XPczDA+f1Fj9zLT5BWucaMGEhtxT+ko9gzNmSMHN5Nbl+WN9Ua+qKXGBG88+pmzZ/kRNaPQxDGaoSzAzJwywbSUPIYX5pHLM+1jNAkszClju6EWKhMQcM1iNM/br29v3q6YQNPPP+PhNdPTrctnnzbmaYj23rptxwfPJqkw7ATLgppsR48d46a5URNuxNdD4cDBgzwYmhYWlm6wf2L5UWsaHZpZRe3ho0eP82vxn2gbcY39pR/T6mXCGFizarmsNheGx/oIaz3Yb7APoAYZE0ZwTe3ePXtIJpE7tGsrslA84hYvyBnHFpbB28uba/qiSWzRnzMxDthm2H9wOxfUoNT8naKYgY5n9y5JGsR4u3vXzny84BhDXu3btgG0/IDuAGOLcgHUPtfnMH/kj+XBI5YPNZ3Roaa1Ur2YIA1q1P6Ea+MVYCa8dR1qVOI479NLg2d7bZ7u7HsendDIxXcm1gf329X8+9yIvWhxLKA2tGhb3fLouzal3+iL35E9QwUvfEYUL1aUj0VDXEVaumML78v1T3P6kaHnRUrfCVhe5N61c0fJvDea60ULBWie3JCrUf1jrvmJ4dC6AfZV1LhEZyhdc8qO/QNNq6OrWaM6P+L2pOjQBD8+l9Cs/o7fd3INYXw2MCEf98f/jH1OG3pHGNPPmUASipQoDUxIDoOYpQTc9/fgocOA+2nLOXxnzJ4xjWvnYxjUqsV96VG79dq16zwa/pZAh5Zyu3XpzM/xP+yzSu8D4Y/vYvwGQIfv8GOH/pFM+8uNJ0P9ENPCLV5F2+A1WhZo26GT9IfvbWOeKXJ5YZrmOqubVja3YBTPdAKRcZHgT4Jc08FRDCJABIhAKhDw8mCC3AQS5KYCasqCCKQqAc2JQN2McR8oND25du0GZrbsFWTMkBE2b1jDTSW7u3vwiaSgLEE8GgqdcP9c4Q4ePgxoyg/Np6HDCUN0uZi5J+H8/HzZj0w//iMz/0cfidt01EMggE1yyrnHj5/CSTa5gyYeUTCObtH8uWxSuDY/z89MPgUys4/o8EdpkcKF+Dn+h3vyzF+wGMZ/O1a6p9TuUiA6kSUgN6bQVCU6NOGHYwnHFE5ULV44j5vz0x1TIgOcEF20dBlcZpMhuKgCw6OjMSUImXeUayfO1oRnn8hdrp3Q39AYFWnQUT8BubYyNKYC/AP4vpxiXztMHcfQ2vXr4Z8/934gKKMxpZ+/I95F88gpMa1sTJ0/ey8MWb5yNTcZi0KHKT9PloR8mmloTl6L+yq2V61wLmwS2IN9VwnnwrZuU3I4cY2LSoTDPSUb1NNvDvrJk6dcKODJ9tsUTizeY1ZYpP0XcR9Z4fCbjikjicsPjpgfLhBDk7Zo/hP3ikWnZv/0ORQoiMlq9MfvP7X6HQ/KNO644GzJsuX8Gv/DPXE1BUiezHyvKc5Dgy3GEyZn8Vxzn1WmMYS3QDNvvEZBnHCa5WAb6oFmWVxcXEUwzgIvMmnsdYvXaHYUF/MIpxmf+zNBCH4LCJPAKBhuwoS7Sq4+a+sDBw8BCqpRqIvhmQY3FxaisG/MyBE8OtYP9y/WdJmZABTzEH0S2wa/DXUdCiLR4T6v6d9/Q+qGwWvcG1I4LyZwRYeLbCIjk8zSBqZL3gsZWWJ+hhy2EW5pOG/+QkAz4yjQQLPPQwYPYns4P+XRV6xcpZUMCqxxP09cFGCqw72RhRN7O6NwH/enRbPYKADBfT537voDcF9jseBCxBFHHA/ocKvFc+fPi9tcmI5CE6V6VWCLArAfnmV7Gcex7z7dfZyZNi9PD82RC4eBoI3CAABAAElEQVTl0OQp+qOra5JgCP3FtikijrHHQ4ePQPXq1YwNLoUztt9gH9F1aF5W0+HiYNyP2hBXEUd3bOF9uf5pTj8y9Lww5Z0gyqx7xGdrw/raz3LcWxifk4ac6LsYDsc0jgXB2VC65pQdzRELhyas0YnnCi7AwLGLfRD3lBVjRvhjWGOf04beEcb0c6YZzxdJDPiiH4wYPQaq1azNnys9ussLcrGMcg6fD7iXtub2OGiiXjjRZ+XeB8I/S5bMIoreo77xZKgfYkKiPUSiaA496v0zGe99xOZdjHmmyOUl0jXnSIJcc6jZYZy3797C28R48PWUt7Nvh8WmIhEBIkAE0gwB1MiNJUFummlvqigRQALTfv0FPNlkGO45hRMyA78cAl+PGgOb1q3hq71nTE3a402X1vUbN2Hg4KF89Xy+fHm5d1RUDD9qTqDhDdyXKZrt/UnOfALdu3biK85x9TVOo876bS707tcfLpw9zX7E+0Hf3r30Jo5t2rVnH/i4amU2UfWZFEap3aVAdGIyAdxnau2qFZAndy42sZoNcFKldbuOMH/hIviKTU6iBoW+MZXIJrvu3L4LT589BxRIse1+eN40pkxuAqMjKI0BU9sJMzU0Ro0uGAXUImBoTKE2wrLFC6Q4KGwfySbwRg4fxhckCQ04EYDGlCDh+Efc49aYfW5TWlPUqkVBz2smwBk0ZBjgHo8zp0/lGoS4KEq4e++1osR1So+oNRoSkrQ4CNNCITLum6vpUAMpb95gLozCRQ8YXkwqC41UXESnObGuGV/3XAgE8P7GzZu5RvCeXb9zrUUUcq1YtVo3ilHXuOgM9xIdOfxrKTzuwYvakNZ2hdnCNmSH72bhzM0bNWVRqHbz5i1ALTp0KGxnZoi5EFKkr++Ie4f+MnU6F26jlhsKbpQc7hf785RfuaAGtUNR0IrfgLh3LgoXihYtwqMXKVIYljLhILaxENYy09Vc+Cuu5fL57+J5LojBxWc7tm6GwMAAuaB672Nfw7JgP8R9GtGhVioKZY1xqPU26ccfYOKE8Uzj+y/4YuBg+LRxY6YxnbRoYN6c2VKZ8NmOCwU0Fwto9ldD+aHFIBSKo3vwIGnhqVhgivsyo3bwpi1bYB8rx5aN6z9ITv1+0YPoA79MnghCaxfZx8bGSf1Zrl64V+2Fs6egVLmK3GIL9ktNJ9LW7F8oTNLkiQs8cE/U4Dy5eVRm+hwqVUvSlNRMCxdf4H7dcg77LQqQcP9nU51cv8GFIpoLGu7dv/9B0jfea8qjB2os4jsaBVCi7kpcP0jMwA1j+xGWQzhjnhdy7wSRhqFjiRLFuYUlzXDIoVhR7f6g6W/MuTHpGiq76OfG5Deb/RbFvV6/HTuGP3tQq5aZhzYm6gdhDL0jjOnnQ4d8yRYHefJnJj7vjzHLSInvEqF6NdMXK2AB8fmA71XMW1jCwOeIcKLPao5XzfeB8L/GNHvF+wIXouB1KSb4Fk7feDKmH4r44ojPF31O952l+0yRy0tfWsbeS17+ZGwMCmeXBCJiI1i5XJhpZcOrs+yyAlQoIkAEiICTE1BxQW7yym8nry5VjwgQAUagVMkSkilf1J4YNKA/N32HPzTkHNsbBzp16c5XrPfo1kUKljtX0gQJaoAKh5MbaGo2Z65kLV3hR0fjCeTJk4ebZUQBE05iDejXl0dGc3tyDn9M9h/EftQyDR0UWmkK2M1pd7l86H4yAdREQY0RFOKiCw7OA7gSHCcTlJw3W80+dcpPfNKtS+dOMGTocDbB9Y6ZnqQxpcQtJX7mjAG5dsJymDNGU1L+tBLX1DG1YPESZno+FtCsZAibgHv2/AV/B+E5TtbSmEorPccy9Rw2YhQMYO/RFy9fQkREJPsLl7RI0fIF28MUlq1YCeeYht3Yb7+zTKbvU8mTOzeb8L0mpfkp08hk++txrU4UqrL9pKFlm3ZckBjMvhEKFyoEo8eO4xZQ0KQo2wcc6rGJXU1tPikxPSeZMmZiVlZOSlthBAQE8nqjaWWczEahormuUcMGbJuOJVxIhguVDh85CsVKlTH4bjQ3P8141apW4SaeZ82Zy4XxOBHfpGlzYPukagYz+rxtm1Yw/sdJ3BwsahKyPSIljTSlRNAMKZodnb9wMbRiQl1DDjVFUbiIWm/VP04SRNSpXZNff9qoofRNh/V7wsoxY9Zs3l74vTGdnaNwTMlhv0AtNxSc4XflV8PwuyNZoKUUV9MPTcQig1Vr1gLbL5gt8jROMIjCDxRosr17+eI1tq85TxY1LvMGB/P+jFp1aEUB+x9q/rXrmPybQ7e/apZJ3/mEHydzk81ohpbtH8yF+0KTGb+PcSuYST/9wvNG7ULhhBb7oSNHpIUVbZkZXKzz5fea5ti3K1b9GLAOSvXCNFGDEtm/YwImfa4ZM9WN/QvTfvT4MXuufK8V7A3T2l2/cRP3Qw9cLHvon78++Fswb45WPN2Lfy9c5OUoyBaMKLmjx45z09YijFK/QUHkKvZc2s/6LJqcnTZjlogmHecvWMTN3eIzdQpb2BARESGZBVfiKiVgwokx/Qi1n9n+2cwU+21uhtbQ80LpnWBs0XD8Lmfa5mzfY96316xdx010f1K3trFJ6A1nKF2lsuvr53oz0biZgWmn4jMN+z0u4MBnkLnO0DvCmH6OC0uEtj4+0/C5iYtmNBd/mFI+XKiOfWjsd9/z9yIK27/74UetJAy9D9Af4+DvdeSEVhXwPS3KJDeeDPVDrUIYuDD0TJHLy0Cyit4kyFXE4ziekXERzKwyaeM6TotRSYkAEUhrBFTuKm45wdhV22mND9WXCDgbARQUzWUmzVBrUDg09YVO04yQ8MMjaqR06d4TqlWrAuO+Ga3pxVarJpkOOnnqjHT/wsUkQSNqKJIzn8D2HTvZXmnHpQTEZJswYyV5vD/Btv2aTUA/ZpNAy5csZFoCyeYUzWl33fTpWj+BJ8y0Io4p1MwQDrVINM2+ift4RG0uDI/7zAlXpXIlbpL5xYvnNKYEFAsfTR0DhtoJi2fqGLVwlZw2OVPH1P79fzPh7TNmUq8OVKzyMfw4aTJng+eP2L6c9J5y2q5ilYqNYprdEUzwWLlaDahdD/cJ9eKmXzEz1MZr3aolTJg4GfqyvUZxr1R0hrQgeSAj/sO9WVE7EM21okNtG/zuwknhMhUqwc+/ToU5M6dDUJYsfFJ4GXvXo+YelrNRk6ZcA3balJ8Vc3LVMO+M+/ihKd+aderx/WBRgxRNBuN1BTZ+3r03k4ymh411wgxsg3qfwPjvxnGhVMmyFaBrj15cgxXfd/ocTnjjc1f3DwXYpjrc83DxgnlMU2w33zuxfqMmUIhtE6K516EpaY5iWsU1mDna5q3actOd/129BmtXLpcECHJp+fn5QfNmn3PhWe1atbjQVLd+4lqkgYIZnOgvXqwYvyU0y4QmKN5ELVOsH+6HiP20b/+B0KVTR7YHZyeRjOIRy7Vw/m9c8PYb0zY31onFgWjG9OuhQ2DXH7u5MLcv60eopYsOF9WIOmkeUSMMtSVHjxzOhBrfcoHuj5N+gu+/HcsWReWW+jNalalVtz7vf3fu3IUff0heLKHZX9+8CZXNR4xHHKs4LnB8YLkWsu1JNJ3YU7ZN61ZaYxjNl34zeiTg/raDvxrKo4waMZzvT9me7b1Zokx5vs/vr8zkOmriKtVL5Iff7prfieI+HjGvsmVKw+ctWvH9dFFzG4VJoh4vQ0K41iMKHtGhQAj7gO4fPheUHG6Ng+Z9RTvKhUWB47Hjyb8/RDh9/eaLvr25CfZ+rA+i4Bz37NV1A/t/wffyxL6KfXbB3DmSdroSV910DF1jvZANPheV+hEueMA9exs0bsJNXht6Xsi9E5T6um5ZcYEN9vVvmVAPn62Llizjz3LUojbn2SfaUCldLINc2dFPXz/H+/qc6ItDhwyGM2wRU7mKVeCTBo0h//t9n4W/vrhy9wy9I8zt53L5GXMf81y6aAEzPf+Cvwc/a9YCxAJ2UUdD7wP0r1unFjRr2QbKVqjMzLH/C7PYnry6Tnc8GeqHuvGVrg09U+TyUkrToF94ZITa0B+z6czmncnZmgBb8SpbhCvPLqn7bugh608eqUdAqZ1SrxSUkzEEqK2MoWT7MM7STrFvY9SfL26kjo6Ltj1UK5XAWdrKSnhSNVn8djP0fYf+9I1nuWa5e/eeOm+Bwmq2X5qUaKt2HdSt23dSM60SNTPZp27YpKl64OAh3J+ZLFN/N/5H9T8HD/JrpkWhbtqiNQ9z7foNNaaHf5rpMaGUunylamqm1aFm5pd52G/GfS/lRyfGEUCGv+/8Qwo8Y9YcdfHS5dVHjh1X379/Xz3065GcM9O65WHWrtugZuZ7pfBME4e39dHjJ6R2wrYSTqndRRg6GiagO6aYxhbnjuMG24mZGePttmbtep6Y7phiEzY8/IRJP/FxdPv2HXWvvl+o69RrKGVOY0pCYfaJbjthQkpjwJx2MjRGzS58GovI9jhT16hTT6q1oTHF9nZUs0Ur6nv3kp5v0TExanxXib/1GzbxMYjX2K7oaExJeK164kzfeUxrjPcpfcBiWJ9ji6v0eaXoHvZXJnhSM41FrXTw/suXIVJ/1vJkF0yYq46OjtG9bdQ11gPrqumYNqSaCVA1b6XoHMvOhNOKaUyYNJm/G/GbVfOPafApxjPkGRoaZjYb3bTZAiyTuXTv2UfNNCx5UmzvQq26adYT29Ach2kaYmtOukpx3oSGqp8+eyYFYVZ7eL1OnjqtZgsR9NYRf0sIh/2ZCXZlxxD2ZWw3fU70V2PywfhR0dFqLK8+xwQsvKxsX1V93mpsbxzrmg5Zy41FpXq179RFPXzkaC1umuniOdZbdyyKMGyBoDg1+4htsG37DoPx2UIONTOXazCcZgBDzx/k9oy9u+WcEle5OIbuK/UjjKv5jSDSUnpe6L4TjO2DIm08Yh/B56ums8SzT1+6mnnoll3TT18/1/TXPce8cPzHxsbqepl9bcw7wuzEzYyIfUFp3Bl6H6C/3LPHUJGU+qGhuJr+Ss8UEc7UvOS+89wNSnopgEMQQNPKfl6mb0rvEJWjQhIBIkAEnIAAmlZGF5vI9ixi/8gRASLgXARc3itRiFWkWLtZ036FL4eNAFxlig5X///MzKyhi4uLhy3btoMX28MMTRMdZSuyhSnfRk0+52HwvyqVK8Oalcv4dZ9ePZgW6BO2f+sAphkSydMbNSJ5TzQpEp0YJOCioSmDe+CiCb/OXbvzeLhqe8PaVWx/Y09+fejwYWZm7SnfKxfNrq1eu5bf79SlGz+K/25evcxXqCu1uwhLR8MEdMcUmidft3oljBj9DTOBuZpp0vhB757doUP7tjwx3TEVyPbU3bB2NYwaM5bvcYeBcDytXrFUypzGlITC7BPddsKElMaAOe1kaIyaXfg0FlFX28/QmHrKNCXwPdWYvbvQvDWav9Z0uOc0muRDrTbhaEwJEnQ0loAf01qUc3KWMeTCG3sfv9W+HDwQli5fyTR6akvR8H4mZkJSzqF2mbkONbt064rmMy3plMou8hnNNB5Hfj1MXEpHoXkm3TDxxNQ9YJWSR8s1+Hwxxp05e5btv7qNa73+ufcPHgX3vL1+5aLe6KgdZ47DNFPbTWKaqmyRIQwZNBDcPdxhAzP7i89bNE+MjPTVUfN3CJ7jXpJyDvdRlttLWfTXT9j4MJQPpu/DrNPgn65Ds9tb2XsENaaFuWXdMFgX/NN0qLEn15+V6vXN6FHwLTPvjGaGUTNTn5OrM4Y1t39o5tOubWuoyfZhVnKo4Y+mratUqawU7AM/pbJjYOSmpDGsxPWDzIy8odSPMAnNbwSRpNLzQvc5aWwfFGnjEfuI7vPVEs8+felq5qtbdk0/ff1c01/3HPMytN+3bhxD13JjylA8a/or9QXMF7kpvQ/QHzX2zXGG8jY2TUPjEtOxVF4uqI1hqGDhoeGQI0d2Q8HI38oEnr94yR7I+l/Cf9/4E47cOQTfNZxg5VJQ8oYIKLWTobjkn7oEqK1Sl7e5uTlTO7VZ0QJmNvsNsgUm7e9nLhN7jedMbWWvjI0tFwr7AtIFGAxO33gGEVkkAFtlzn9YC8GgSJStiv5g4kL4KR3ZylO2/9M7aS85pbDkZzwBbA/c+1Z3woGtpOW8cfLDFCfX7qakQWH1EwgLDwd/NvmvO/EsN6ZwX2psP9wTVJ+jMaWPSsrvyY0Bc9tJboymvKSUgqljyhAxGlOGCKXMn77zUsaPYjsPAdw79vSZs9z8NprMdiaHJmWXr1zJ9z1++zYBihQpBP379bW4cMdazCIiIrh5dDTp3KNbN1mhsbXyt+d0mYULOM9MweIemuSIABEgAroE5L7ztJe86Maia4chEBEXCX4q41asOUylqKBEgAgQAScj4OWh4hq5TlYtqg4RIAIGCGjuoaoZVHf1uaaf0rklVosrpZ9W/eRWSuOKaFOFuMhQrt3TKl9L1hu1bfU5uTFlSIuKxpQ+mim/JzcGzG0nuTGa8pJSCqaOKUPEaEwZIkT+RIAIWIJAs6afA/45o0Mtry/69uF/jlg/f39/+OWnSY5YdKuXGbWXSYhrdcyUARFwOgKuTlejNFqhqHhmWpkEuWm09anaRIAIOAoBLzcviEuIdZTiUjmJABEgAkSACBABIkAEiAARIAJEgAgQASJABIgAESACRMCGBEiQa0P4lsw6Ii4C/L3k9xaxZF6UFhEgAkSACJhHAPfJjX1Lglzz6FEsIkAEiAARIAJEgAgQASJABIgAESACRIAIEAEiQASIQNoiQIJcJ2nvSGZa2deTBLlO0pxUDSJABJyUgMqDCXJJI9dJW5eqRQSIABEgAkSACBABIkAEiAARIAJEgAgQASJABIgAEbAsARLkWpanzVKLiA0HfzKtbDP+lDERIAJEwBgC3kwjN440co1BRWGIABEgAkSACBABIkAEiAARIAJEgAgQASJABIgAESACaZ4ACXKdpAtExjONXBVp5DpJc1I1iAARcFICpJHrpA1L1SICRIAIEAEiQASIABEgAkSACBABIkAEiAARIAJEgAhYgQAJcq0A1RZJomll0si1BXnKkwgQASJgPAEv3COXTCsbD4xCEgEiQASIABEgAkSACBABIkAEiAARIAJEgAgQASJABNIwARLkOknjR8RFgL+nv5PUhqpBBIgAEXBOAl4e3hBLppWds3GpVkSACBABIkAEiAARIAJEgAgQASJABIgAESACRIAIEAELEyBBroWB2iK5cLY/bhQzrZzeJ4Mtsqc8iQARIAJEwEgCqJEbnxhnZGgKRgSIABEgAkSACBABIkAEiAARIAJEgAgQASJABIgAESACaZkACXKdoPX/urEfigYVAz/aI9cJWpOqQASIgDMT8PJQQczbGGeuItWNCBABIkAEiAARIAJEgAgQASJABIgAESACRIAIEAEiQAQsRMDdQulQMozA9ktbYdmpxR+wCFAFwrzWi6wmaN1/bQ+0L9fpg3zpBhEgAkSACNgXAS93bwiNCbWvQlFpiAARIAJEgAgQASJABIgAESACRIAIEAEiQASIABEgAkTALgmQRq4Fm6VZiRawo+fuD/58PX3gVshNC+aUnNTFJxcgjJlWrpr34+SbdEYEiAARIAJ2ScDTTQXR8aSRa5eNQ4WyWwLx8fHw5MlTuy0fFcxyBMLDI+DZs2eWS9CKKVG/tCJcStpqBO7ffwCxsbFWS9+SCYeEvIKIiAhLJklpGUEgMTHRiFD2EcSR3hn2Qcw+S0HvU/tsF2uUypHGLPVLa/QA66UZFRUFN2/dBmw3WzhH+b7Cd/zjx0/Akd71tmhPS+TpLIyxHti/naU+lmhbW6ZBgtxUoB+cMR/cfXXHKjntZdq4dQvWAw9XD6ukT4kSASJABIiA5Qh4M9PKcQkkyLUcUUrJ2QncuHETylWqCp279XD2qqZq/YaNGAmXL1+BPXv3wezf5qVq3iKzo8eOw4+TJvPLHr36wsNHj+D0mTNQtUZtGPXNWBHMLo/UL63TLKnRL1GI2a1nb97frFGLyMjIFE8iqtVqCAsLT/GEyZJly2Hz1m1w5+5d+GLAIF7dQUO+ggpVPoYr/121RvUtlua478ZDxaofw+EjRy2WZlpPSN8zF5mMnzAR/vfPAY5nxKgx0KZ9R35u6D98h4h+ZSisuf74TDh1+gyPrq/8jvLOMLf+aSEevU+t08qp8T41VHJHHrPULw21rnn+xvbLY8dPmPRb4M+//oYSZcpDg8ZN4Nz5f80r3PtY4jvx0ePH/E5CQgLgAgRNp68ejvB9FRMTC581awnVa9dlC2efa1aJzlNAQN/3Ngo+CxQpDgcPHU5ByqkfFRdR4u8kXBAxbcYs+Pt//8Dr12+gdr0GvO9ER0enfqEoRy0CJMjVwmGdi3xMkHv/9T2rJH707iFoVLixVdKmRIkAESACRMCyBLyYhYa4hDjLJkqpEQEnJrBpy1aoXKki/LVvtxPXMvWrdvzEKQgLDwecpLh+40bqF4DlGBISAhcuXuZ5Hzh0CPCHYd06tWH3zu2wcdMWeP7ihU3KZUym1C+NoWR6mNTolzghd+jwEd7fTC+h4RgdOneFrdt3GA6oEAInDMtUqAR3791TCGXY6/btO/CILZDA9I6whRPodmzdDDVrVIcNmzYZTsBGId6EhsKadeth+5aN0LhRQxuVwvmy1ffMxVqe//cCPH2aZPXisyafQueOHYyqfMjrV1K/MiqCGYEOHT7KJhBf85j6yu8o7wwzqp5motD71DpNnRrvU0Mld+QxS/3SUOua529sv3z+/AWcPn3W6EyWr1wNrVo0h8sXzkHFCuWNjqcvoPhORA1fdLigrFrN2lpB9dXDEb6vjh47Bi/x99fZU5AjR3atOtGF+QT0fW9nzpIZvvpyMBQuXMj8hG0QMy4ujv9OSkx8xxd9o6WszJkzweV/z0JoWBgcOHjIBqWiLDUJ0B65mjSsdJ4nfTAcuWP5VRgnH5wATDtHupxWKjklSwSIABEgApYkoELTym9JI9eSTCkt5yaAPzbLlysHLi4uvKInT53mPzxR6+2/q9cg/0f5oGSJEloQ0FzUmbNnIfHdO6hUoYL0Q/XVq1dw8dJlKFOmNBxjQo3AwECoVLECxMTEAKbr4+PDr93c3KT08McMrux+/vw5lCldGvLkyS354Qlqul28eAmyZcvG/EuBp6cn9xflRLOgV69dh2JFi0DBAgWkemAgrANqK6DmXdEihaF48WI8rvgP7584dQpcWd3LlysL6dOnF17wjtUN07167Rp8lC8fz1vyTOEJCnfPnDkLWbJkgXJly4BKpZJSxFXq/164CCGMJU6UZMmcWfLDOmfPno2zun3nLrRt3Yr7iXq8Y2aZqlSpDOkYdyVXuFDSD16cvA9iZbBHZ+t+aaj9nbFfosb2uXPnIXfu3GzMFwcxTsW4xns42YYTJtiHBCNcqPBRvrxQqmRJra6UkJDInxMPHz6GUqVKQL68ebX8lfotajTgMwb7KD6fxGTYPwcOwuUr/8GWrdshU8aM8EndOiBXPjRPduLkKW7eLlu2rFCVjQ2sEy5o2LNvHy/LH7v3Qo3qH0vj25zxp1UpdoHP0grly8GJEyd1vezmWgjuihdLeiYiq7+YRkDlihX5wpMnT55AWfZsyp0rl1RmOZ4YQDybMN27d++x+pfnbXbt+nW4xp6jVatW0XqWYRxz2l+0NT4bUXDu5urK3yn+/v6YpORQk/Ua65e+7J3zcbWqoOlvqN8qlUvKIAUnWYOCwM/Pj6cg6oPvH9SKxcntSmxhldwzHN+XB5jmSb7gYChQID9PQ7xP0qVPBx9XrQru7knTTzdv3oKY2BieF7ZPo4YNeLo4cY554fuxZo0aRtXEEd4ZRlUkjQay9fuUvvPoO0/f0LN1vxTvArnvfGf8zkOzyBcuXID8+ZPeH7rtIvf+28+0cY+fOMF+s5SFw2yhHn57oVP6nYXvHXzfid91uIDsNPvtU/+TulrZ4rfnjp27AN9N+/b/yb8vRRytgOzCEb6vXrHvIPxNKr47jHnPy3EU32b4zYPfNcioapUq7Pe0N5xl3+v4zVWzZg3w8fbWQiX3XYCBsDxnWFz87VuR/YYPDAzgccU3Q+ZMmdk3HQqhc0DpUiXBwyPZMqnSdyAmIsaU3O8Cuf7FC2DGfyo2J1CwYAGp/tjn8PcC8pSbw9D8BqpRvTqbt7gEBfJ/BFmzZpW+ZXFOQvN3ttI7DC384O92XBiKcw04F+HKvk3RKfnpqy7Ok5RgcxXYh8jZlgAJclOBf16mkfsg9D4fKGIi0hLZHrtzBD7OV90SSVEaRIAIEAEikAoEvNy9IO6tY+xNlwo4KAsHJvD3jT9hxemlEBYbZlItAr0CoWuFHnxbCGMi4o8yd/dkwerkn6fwH22P2US+t5cX/2Eydsxo6NGtC09u564/4MuhX0NeNpGM7ut7o2Dz+rV80v/SlSsw+KthkCtnTi5wxR9HzZp+ziYNLnJhJU7q46T6ymVLeFzUCG3StAU/z5Y1iAloRsIvP03iK77xJmrdfT1iFBeKoBkidLt2bANvby8Q5Tx77hwXwqDGU/u2bWDihPE83K3bt6F5q7bgxeqQO1dOrhE1ZtQI6NWjO/c/zoQsHbt04/UIZ8JgFOCsX7OK//hGJr379mcT5of4pAXm0aZ1S/hp4o88rjH/4URFhgzpIThPHi3h8m/z5sPU6TO5cBz5FC9WFFYtX8Z/SAseWBZkOHjIUJg25WfOEPPEOqMZJpz0QAEwCnJFPfBHaFxcPP/xt3HdaihSuDDkzJmDCzkw7uefNQE/3yThAV77+voys7Lv8NQkF35vG7y6NBUS40z7kemmygAZSwyDgODmRuVny35pqP2dsV/OmTuPm/fCRRu379zh/Q/7EQqcxLjOmCEDX4wxeGB/NumRXxojGAf78v/Zuwp4q4omPoSCtISUlFIqKIiStpKCEtKNSImIIqUgnaIoICUpISkhivgZtIiACpgoKSEgwqNFvN/857HXcy8n7r2vHzPv9+6JjbP735rdmZ0NbiP9Bw7mnaqn6MRfJ2XhaPqUybJTFRXArd5ikaV+o6ayo6EkCxpfeKkHjRo5nOrWfpI+Wvmx1B+0yYWLb5TFRLv0FchfgBo2aSpC33vvKSOLhw8/9CBNnTyRznD88+ZH75adPfc9aZ9QEomk/ZVk4TYwguCtWpXK/rqdKmUq+pcXdyKhT3dcoJlrztGpc6G3z8zpUlLLB9PRYyXThvTJf6+0fbPYBGUbmPDFIi3wxwI7FvtM3w7BuhOe+CD6JtBJXqg9y4JyhG3X9mnZ9QtllBe795T+1eziibT8TVmjf7x8+R86feasnPH7/sL5shCHNPTtP5DmcLmiTH9hYSYWU1csXcz9cVYxpW36drt665YuxO1Fbn2uCbtk+XLav/8AjXtrtL9tFSpYQMZdjGMQni9ZND9AsQhh0fd3eu55OnbsmIwZeDd+4iQa9cab/rwCl4Xz5kj/ju+sWvU/Osr+oYxUsXx5OnXyFNWsXVfGxaws+H1zzLiA85zd0h/pmIF0KtkjcC2Mp6ZfBQLK52WKaJxx65fios1GMgahfMMdh5TPK0jxOf8YPGw4TZs+U+Yf4POKXlEGQtmB3OrZwkWLxQ94r0yZMhL4KQiu3OZZ4Avq16vjF+T+wkf5dOjUmXb/EnjsBMbD5SzIBS3g7zRsUF/COM2jYsJfXV6zgC7PG0a+qOg5pXzU4ydFpmyUqlFvSvVgAw+f0c6o10YREm8M3+I0zrvNVw1vBn7m0qVLwtNCseoWVp7cuZMFu8xvYc64af0aGffxPTe+AEoLDRo3ozys3JglSxZqz+XxycoVrLR9K4FnWL16rcwxwTOYucCi+XOF9/fiA61zp7jgr+z4bYPPyhXLqBjzemZtwGkNA6aYDQ+UI3t2mY8Dw0H9X6VqLMi1m2d7jWG9+/QVK1cPsWIcwj/MgnWsZYCc3NKlTyfWcFKlSkllypTm+fp/GwchOIdSn1ICIxB15rTP6//33w+ysF4pJgjUn1HHx+fkxiQK35E/jvrDX7p8yddwZl3fwZNaNn5QEsmNtZwSSZI0GQ4IaFk5AJPIXiencvr56E++p99rkcgQjr3kJKeyij1UEiYm8G5e/B3cI+Xxms9u5HtiSvWI/hE2FOKJgu/BRyr7Zs2e6/f+ZN36PvzzxFDeDRk2wlfh/of87jxBDPDf5pn2vpf7vCruX6xZ4ytUpLhv/YaN8rx02XJ5nj0nOv7vtm+X5yN//CHuCMvCSh9P/uSZFwrEPSoqSp6r13zSN/qtMXLPE1jf8JGv+XjCK89I4z3lK/mOHTsuzzw5lbBIA4jPcvLxuYQ+5BE0Zdp0fz544ucrUaqMj4Wq4obvd37+BR8LqOX5nanTfI9UruZj7XF5/vnnXyRuXuSQZ1zr1m941b8VR/EY9MOL9BIP7xIUF+QT+LOJU3lu/XQ7H/5Nmg1+vANa3JHnpxo28SH9IJMPgy9rQvtY8O3j8xfF3e0H2M1fsMjNi63b7uWVfLsW3hbRP8KGQgldL73KP7HWy5MnT0n9CK6bPXq/4go774iXesm79MTfuXPnfVWqP+7r23+APJt2/elnn/vjmTxlqrS/o0ePybsdO3ZKm2JlDR/vkpf40P5AKM+Wbdr6eAFPnr3qLb6DfgTxgNCfoP0aqlW7ru+9+QvMo88ufbxg6Huxew9//2D6HtOWgBW+sevXX/3xhNv+/AFtbhYsXCT4mLZs48XxVbOxf/pqjTgW9j/ChUpLli6T8jL+TZkNGjpMXqG/RX9j+nYvPOEX/Q7ya9ov+hjTV6Gv7zdgkMQdk/I3ZT327fESF/o8FvT7UCdAyEfvV/r6eDe3PGMcQ1/Pi8Ty7FZvvdKFCKZOm3FVv4/2tnXrNonf6Qf4mH56xKjXfc926SpeTX4++d+n8oz2hHpp0gt3pJ+FuL52HZ/1oe8x45IZT9D2QMg72u1bY9+WZ3wHYa08SONmLSQeM+YiP/gen+UuYdx+Ih0z3OJM7G5xzeddC+Op8nlJj8+LdAzCuBXqOGTGCSvfjH4S//Ex/7jW+DzMO9DXY9wAgQfC3A5zHVAo418w7+U2z0Kc1nEPzyYNuDc8B3hGEJ8hH8CTyEuHn5jwVxc7lPJdaJIv7H+EC5V6vvyKf4xHGK9x3g1Hg9Mbb74ln2dFXilHzFnB/5hy+/CjleLuxRdgTo95pKF3Z88R7PEMngF1xMxReVerzFFHvDZKvHvxgTHlr5Cn4PkLnlnQapJ71dXgY+qRVx8CPhVzEcMDTZsxM4AHQnjrPBsfdBvDTvz1l4Q36x6HjxzxDRoyVNLs5nZVRiwvMHcBX6sUPwg48Xm6IzeeBOm38q7cvSf2UMGshWLli1t/30I3ZchJeTKrXftYAVQjUQQUAUUgHhDAjtwL/+iO3HiAWj+RxBHArk4WIooGb5UqjwXkpkb1qn5zv1UqP0osRJHdQDBr3LF9O4J5LJjYgslU7A7iRf+A8BXKl5NnaBCDYPYJBA1dEM65gVlUmEnt1KG9XPEeJoVAMGcGM6133lmCli77gDWH81AlNs3Zs/tL4m5+nqpbm7JnzyaP0FCuzLtgv+UdTdCKhdkv7P6Fqef9+/fLjlycQcPTAjEdil1nbVq1lLDYlTb2zTdMtMQLCrKLixfn/e+wS2on7zjGecK4f7p1K7+buSlUqKC5tb3CVCx2B8LcNAg7xVZ/9onc86RSdgBjV7DR5H7yiVo0YtQbfM7tdjGpDI8oG+wyBsF0FfKRnXe8fcZmUUH5OG2LlyyVnWcmHnEI+unZvRv16PUy9Xqlz1Xa8UFe4/UxoeslTE17lX9irZdp0lxPrVs2v6q8YOLcjbDDAvUadROEHe9o52PfnhAQ7JGHH/I/80KPnPOJM51AMFu+45stcg+TZiCcBQpCPazKu1WnTJ0uz171FmbSQEOHj5Td6EgX2r8XWdMHs7OvDR/GOzJ3iYlmmGMGoQ+AefJgiqT9BcdhfUb/M5p3Oxa5rQR9vGK5mH6zuifk/S1Fb5PPD+z36lXJeLx6dXkH87zo+9ewGV9QKHhWrVLF33dh521K3mlg+qpKbApw5arovi42yr9506aSLljiQl/MC8x0jncVY3f00MED5WxyjC979+0TfzgOAORWb9HPevWnyFcuth4RTHlvzhv8KqxnU3fRnirwztk9e6PTjUiQpg68Wxr52br5S7/ZZYwnIOwW+ePz6PPOi7BJP+TDEMyJG7PkLDiR/GPHrtmJ3aRxQ8IurVAosY4ZoaT9WvWT0OOp8nnK59m1vYSul9cin8cCPpkTwVQuCOZ0G/HO12XLP5Bnr3HZbj7hNs+KTSuZkkDLT1Lgr2DRJpicxnk3HE0clR+NNkd9M5s7zsbz50eZHwfG4LHAv7NSonj14gtg+hdzeliHQnqaNWkcYDUKVqLMHBVWOFqzNa4VH66UuL34wJjyV/V4Tn/u7DmTZf/1eotpZ/9LlxunNQzgBdPesDTj54EaNaRBQ4YFxGadZ2Nu4LZWUbJECTHJDDxxbAtMVcOKGSgtH5sEc812bgEfDHpo0ayp7HRnZe5ENT8PSmayf1RBbjwVcYGst9CeP/fQQ4Vj54NqVjl2cNRYFAFFQBGITwTSiCD3Ynx+Ur+lCMQJAjCPHBPTyl6JypQxk3jBIjHvag04vxDnChpKmzb63B2cewN6480xBDOsMOVbtGhRFvgGmvLExM9MkHh2KGFSW87ElRf8Y85/mb9wEZ+R+415LRNSLDiD+vTuRTPenSVmoiBwrFG9Gg0dNFDMesHdeqYtnmHC89Chw7gl1nAWc56Y5GLhwggUIMiFH6TTvJMAlp8dO6PPIZo6fYb/LYQ/5ixbnLeZM2f4Z8uy1qecOeSP1HJj8DCCaeOUN08egokoQ9YJrcnrTMbISpjUY0Jpzmeyupl7M9l/vEa04Ma897rCPHJMTCt7xZ/Q9RLp8yr/xFovUZ8hMA2XUC9Rp62Ug9sSzOahvYDQXqwLc3tZ0FS1svu3cIaXIZhpN+RVb4152PETJ1Ojps1l0WrwgH6uebNLX6unn5F+BgokxoSgj6LzY9JirpG0PxPW7gpT8BAag2CGMByCieRITSuH8p2n6tahRe8vEYFfs6aNA4IElBmfucYbPsQd5e2FZ5rrr/PHlYKVY65LbX2OHgvgITbKP2PG/8zEZ2MT9qDjrFSUI8dN9CybH4ZZfCgSwTwg+kFT7m711itdiOd2PvfuNl4IDSb/mBfsEMIz6q51kTxDhvTc7gLNamMhEYRz225kc4ggtFuQdZzCM5R5DFnPtuPdIfLaOm6iz8D3Q6FIx4xQ4r5W/ST38dT0q8rnRddwg0di5/MiGYOQQ2Na2as9K58X+fwjUj4P/IhRvDPlky1bVnPrOS7bzSfc5llWftF8xMwjzXOk15jwVzCRHKlp5XDSu3v3XrqnTLRyJMK5jfNuOJpvXmfhr/AuFSvbGbLyH158gVGwnPHubDErDMHtayOGUTGez4OyZ4tWzjRx40gKoxDnxQfGlL+6v1Il89mAq5U/CnBweHBawzjDR3GAMmf5T7kV8/pgHsg6zzZ9ttMYBuznz51FE3i+giNEsKaC42e6dnlO1kKc3BySLq9Rd5QSHoH/WljCpyVZp6AQ78T9cu+GWMvjV/s30ahSo2MtPo1IEVAEFAFFIO4RSHtdWrp0+e+4/5B+QRGIYwQeLVo55HNuI0kKtLFxTlHteg1o89dfy9mwXvGcOhUlQlyc7QehKmj4yFH0w48/egW9yh1CV0yeRg4bImctwQOERhcuXJQdgXhOyQJg7Azs3KkjmTOEPly5Us7ChfsuPv/QShDA1apZQ16x6U05a/fVPi+LAAq7LNn0lLgV5vM9MdnC2YFIB4jNPfO5jicEh0cfeVjOcrPuAMbZQNipCFr1yf/krEJ5sPx0aP8M9ej2ouVN4G2xYkVlVyLyaRY5dv36GwuIr5ddvsADebqlUCEJePHiRcK5wpgU2hG0o0ETxo0V7Xrc4xxFTHq9Jr4ffvQxTZ7wtuxcRrhQCWfchnrObahxWv0ldL1EWrzKP7HWSyhklKt0vxVOuYcgc+niBVe9Ny8gmJrGSgvWesnmxEUQZuqp8WuuWPwJbvfY8VGoUEGyU9ww4XANpd5iUQnn2aI+s3l16tNvgNRVU6+9FgQXLFok53+t5N2waLfou2bOmm1Nhtz7rggqTX8UTvu7KjLLi695tySsBHz0wVLL29Bucc5tqGfdhhZjoC+c3YXFPDZ3LQt4ga72T6HiaR868G1Myt/EdODA7/5z937mc/dAeXmnytp160WIu3715/6d1zVq1TbB5Exyp3obSrqwc8OuHk2bMkksQfg/FMs3P2z/RhYJO3R6jpa9v0j6++LFi0l+5s6a6f+adZzyv7xyY1fHsZsXY2EoFOmYEUrc16qf5D6emjqnfF7S4vPiegxSPi/y+UekfB4snUDpM4DPY6s+hkIZ/4xfc3WbZ8EPFMOsiqhGIGjCR3qNCX+Fc25DPes2kvRhXo1z6z/74gtqUL9eSFF44RhSJFc8hcIXwHpK7SefoBMnTtBzXbvR+AmT6K3Rr0sMP3GdwC5Uw2v/9NPPbE2rhLh58YFu84JQ6leV6jVFgTQ4v9u3fS3WVoLfh/sMBRrsZsZcBUp+IFgAc+OBQhnDsrDVI1iCGTJoAPExGdSxcxd6vEYNUXh3c3NK/+erV4ulmVd693Tyou/jAYGU8fAN/QQjAJPKu0/sjhUsfj95QAQBN2f5T6M1ViLWSBQBRUARUATiFIG0qdNI/Of/Ph+n39HIFYHkgkDBggV411Xg7h+nvKVNG92+9vMiOiY+fFYs8fmuTt493zfkSS6fo0k7WQCL+Ca9M5XKVryPTp46RRBiPla1Bpt3HU9RUafp9Okz4se6wwgmhD/48COCdvbEyVPYjPIOMhq90CKGBjriwkTtzTFj/em5pVBBWQDv1buPmF2G6eU2bdvTYt6lBqperaqkZRVPyGAmdt36DXTHXaVp45ebxP2BB+6ntV98etV/+7Ztxd3p5/77KonwGJP8P//8U0y+Vq1Rk3788ScJ0rDBUzRg8FDZKXf48BHBBtr3xhRacLyFChYUYVGP3i/T/gMHJE5oBDdq2iLYq+1z7ty5bd8nhpcJWS/dyj8x18usvDPRrl5OmjDOtUhhtvgQ1ze0ESg3oJ6P5vsnatV0DPf44zWIz9aij1Z+LELS2XPeo3oNGkm7dQx0xcGr3s5bsJAerlyNTcX9Ju3PaNGbXQfYMYC+B+YZnShTpsySl+N/Hpd2wWd8BXg1O0/Xrl8v/Qccw21/AREGPfx7+V8qkD/xziODd2AHJf+qRy88rwrg8iKm5Y+o+fxm6bv5bHQayH1mndpPyMJj5kzRlib27d8ndWfuvPmiDGOS41ZvvdKFOLo896xtGyt3b1nziVi/QsEH4wCEYVhcfaFbd1loRbuFCeYx48bLgiyUnWo+WYf4jFzHNNRmc/0YYzDm/n7wIPV5tb+jXzuHxDxm2KVX30UjkJDjqfJ5W0n5PPuWmJD18prj8ypUEJ4K4wWEwZ+w1SLwbYZCGf+MX3N1m2fBzx23306z+Bv4FqxkwKKTE2VhSxOYB27+egvP9047eZP3iZ2/upmPWjCWpVwzcsXRC8dQ4jB+vPiCbj16idUS8PqYV58+HeW3NoU4MG9+ffSbUkdgCWTCpMlU7YqlHy8+MKb81dzZM235K3PsksljTK4tmzeVufWsOXP56Kbl1LnLC57RuY1hUP68q0xZ+vSzz4XnxJoDCLt63dzcPgpli3z5bnbzom7xgEDqePiGfoIRKJitEJ06f5JOXThFmdP+t10+EnD2n9xHBWLprN1Ivq9hFAFFQBFQBCJDAKaVQWcunaEbrv/PrGNksWkoRSD5I5CKzzE8z2cLehGEKDgjd8TQwdTz5T40ctTrotmKMwOhvRsJ9erRnU0An6fGzVvKBB4L1qPYxBM0WEH4Vv+Bg2WhGs/Qbq5pMQXctHEjGjbiNZl4QssWO4XN+Zovdu1CT7frSGXKVkBQ0T7GOZnYYYi8TJ44nl58qQc99FhVcccuzOef6yz3VSs/RgP69ZVFbghcQdgVa87+TccmR9Px7q9wCWcbYRds/4GDZHKM8NjFi/ORQL34DGAIjus81VCesZNy7rszHE0kY1F/+lQ25/RST3ro0SoSBrsAR78+Uu6dfiC4x4JJ6tSpnLwk+PuErJdu5Y/6k1jrJeoD6li4hDBTJk2gV1k4hnNx0Q5xRlPL5s0co6rC51H3faU39eP2iTaCMGh/OHvOnJFrDWzd2etVb+vXqytneWLxGyRnTI1507+Lvd0zT9MzHTrJDnvsVLSj+vXqyLnROAccZHZGpKAU8gyFEGi7Dxk2QvxhV2O47U8icvg5f+F8gOk7B28J9jp1quglCiw2pk7tvFyRMmU0Xl54hpORmJY/6hp2bFv77kH9+0kS7mIz+hgXmrZoLc/oQ9EnpkgRrVvvVm8RwKs/hVljY9pYPhBHPya91ugzZMjA49bbVLna43zm2iQZk0y7NYpK1apWoVYtmluDBdyjzuOM+yfqPiXvgRUW8K3tMyDAlYekMGbYpVvfRSOQkOOp8nnK5zm1w4Ssl9can1egQH56h+c9ffsPZGWfcTJ/69CuLVsY+lSKx2tcNmVoHSvc5lnw35HnNzg6p0OnzjLO4Dx7zB3tCLs+cdQLjtN44fku9NyzHe28ybvEz1+lCmlebcZ5LxwdgbBxwNEkbnxBr+7dZBdu+UoPSOgyd98tZoBNVPdVqkjffrddrPuA14JVrPpPRe8s9uIDY8pfYf4QV2QUQZ/t2EHm1CtYCRz8b3ueTwzmeYAbuY1hWK/o3bM79e7zqn8u1P/VPn6LMW5uTt/EOcGpeJ1CKYERiDpz2uf1z7bMWfCuFFMEXv3oZd/HP34YcTRH/jgqYd/bNts3evWoiOPRgHGLgCmnuP2Kxh4bCGhZxQaKcR9HciunmI4FcY945F9IbmUVORIJHxK8mxd/B/fEzuOxdraves0nfWxKNWRQL1265Dt8+LCPJ0Ehh3HziHhYQ9zHi8W23lhQ5GMTqwFuT9at75s9Z66EOXr0WICbeUB8h48c8V24cMG8uurKAk0f/p0I6YqtfFq/wecV+oCjHeE9m4K1c3J8xwJx38mTpxzdjQP88S5qX6EixUPyb8LF9zUx1Evk2a38k2u9DKe+o425tV2veuNWb9HmgbEdsfKIj3dt2DkFvEN4t7aEtsaKLAFhIml/1gh+2fWrD/3Ta6+Ptr5OVPdnz52TPoDPIPdFRYXe13jhGW4mwy3/L9as8ZUoVUY+g/6OlQZsP4n3TuMCAnjVW7d02X4wgV8CC6Q5VILfUNoP4oPfpDBmhJr3cPwpn6d8Xjj1Jdiv8nnBiAQ+K5+XMPMPjI3goZwonPEvlHlWuGOTGw+aFPirTV9tFv5q/YaNIc8fQ8HRqbyc3rvxBRj/g/mnEaNe9z3bpatEx8cuOM5RvfjAxMxfsSKbrAsYzA4ePCRl9dXmr80rx6vbWgXyDMzs2pWbm/Vj8McWkYTH5WNCrE56H4cIOPF5KkqPR0H6fbc8QOt3r4vxF/f/dYDyZckf43g0AkVAEVAEFIH4RyC2xoL4T7l+URGIfwSaNW1MMG/Wlc01hkrYwYVdctDgjg1CPNn57Bqrprc1XpidsppUtrohTI4c2a2v/Pdwy5UzZ4DZKL/jlRuYbHIz24R0xVY+rd/Gri6nnXB4nylTRqt3z3ucA4pzx7xo7bp1NHXaDBo+ZHBI/r3iiyv3xFAvkTe38k+u9TKc+o425tZ2veqHW71FmwfGdgTt+gy8Q9GLEN6tLaGtwWytlSJpf9bwL7NmPvoktx3NVv8JcQ+rAm+9MYrmsmn81WtDnzt74RluXiItf3wH/R12jNgR3juNC/DvVW/d0mX3vYR+ByyQ5lAJfkNpP4gvqYwZoeb9WvSXGMZT5fMCa14k40yo/VJSabOJoV6iVK41Pg9jo9mhGFgro59CrWfwHco8K9yxyY0HTQr8FSxVYacn5tWsTGwH8VXvQsHxqkAeL9z4Aoz/TvwTosXZsOij7MiLD0zM/NVQ3n1bt34jWrBwMb2/dBm98FJ3wcHpCCNr/t3GMOQZmNm1Kzc3a/wwdw3T1/Xq1KaKFcpbnfQ+ARBIgd0YXt+NOhlFefPm8fKWqNxZe4E+XLmSfv55Fz388INUmc3CpUkTfXZacEK3bP1GzF+Z99lzZKPyZctSmbtLm1excj198TS1mtuUZjSZQxnThLcAhgT8cfQYmwTLQZ0Xd6CW97ame/OXi5V0aSSxi4App9iNVWOLCwS0rOIC1diPM7mVU0zHgthHOPZiTG5lFXvIhBfTxX98tO/YP5QvW2o2wZ0ivMBXfIMPypTFW3CWFHm8iACJ50Awz1WOeckH+bxaJUUgsSCg9TKxlISmIzkiAPP4M9+dRa+xCX4lRSCuEVA+L64Rdo9fx1N3fNQ1YRDQepkwuOtX4xYBnBl7nI9Kadumddx+KAFjP3/+As14911at34DXbr0D912WzHq1KG9KH0nYLL00wmIgBOflywFuaeiouixKjXozjtLUIkSd9DcufPlzLJ+r75iWwTz5i+kIcNHUovmTYh3RdPOnT/Q+g0b6LVhQ6ken2EUmzTg475ULOdt9MHOZXTmb/eD0t2+O7XRu5Q9/X87PC6dO0x//TSRonYvdAuWKNxSpEpH+R6ZR9dnLpwo0hPbiVBBRmwjGnfxaVnFHbaxGXNyLCeMBRUKVaIqxarFJlQJHldyLKv4BvWjby/QO5+epcv/+igla1A2vi8dNawQ/nnKToxfcH5UkBuMiD4rAoqAIqAIKAKKgCKQuBFQPi9xl4+mThFQBBQBRUARUAQUgUgRcOLz7PejR/qVRBJu7NsTqGChAjR5wttibu6Rhx6iOk81EKFsiTtut03lTWzCofuLL/jdRo8ZSzNmzYmxIPfv07vp0No29M/5oxJ3U/yeIboHa7Lhr8tKHPg5ufIBOul/ir7JmK8m5a/2IV2foVCQS+J6PPbtUDrx43jKVf6NxJUwTY0ioAgoAvGEQMVC99Ha31YnO0FuPMGXbD9z9qKPJv3vDCuVRWeRT2SlOevO0kO3X085M8eOmeBkC55mTBFQBBQBRUARUAQUAUVAEVAEFAFFQBFQBBQBRUARSIYIJEtB7pYtW6lp40b+M8PuurMk3VmyJO+0/Z6cBLnBZZvm+jT0z+V/gl+H9Qwh7u+rW1DW4u0oS5EWEvbMxTPUdHYDGld3IuW7MbxzbpPLTqesxZ+hvSur0a+L7IXqYYGcSD1Hvtc6kWYoGSdLyyppFG5yKyeo2+D/10XLkkYBhJHK5FZWYWQ9xl4PX8rAQtwPOZ4U/riuS8lHK5z8VwW5fkT0RhFQBBQBRUARUAQUAUVAEVAEFAFFQBFQBBQBRUARuHYQSJaC3O07dlDvnt0DSrFgwQK0e++egHfWh6PHjtPsOe+JaeXfdu+hxUuW0ti3Xrd68bw/+csMOr59ZIC/7Hf18gtx4ZAhTQZa9vRHAX6utYdUaXPQrXW2JttsJxeBe7ItIEvGtKwsYCTiWy2nRFw4QUnTsgoCJMzH3LwjN8WYP/07chH80r9EObOwNFdJEVAEFAFFQBFQBBQBRUARUAQUAUVAEVAEFAFFQBFQBK45BJKdIPfy5ctSiKlSBWYtY4aMdPbMOccCPnv2DG36arO4HzpyJPp68LCjfzuHLEVbEf6VFAFFQBFQBBQBRUARCBeB9GlSUPvKGWjy/87Sdal89PflFPRUubS6GzdcINW/IqAIKAKKgCKgCCgCioAioAgoAoqAIqAIpcaymAAAQABJREFUKAKKgCKQTBAIlHYmg0ylSpWK8uXLR4cPQwhb2p+j48ePUenSpfzPwTeFChakcWNG+1+v/HgVPdulK1WtWpmyZc3qf2+9OXv2HJ05e9b/KgWbQvTxX1zR8eMn4ipqjTcWEdByikUw4zgqLas4BjiWotdyiiUg4yEaLauYg1wmD9HYpj46n+JGyp8tNaW9/j8zyzGPXWNQBBQBRUARUAQUAUVAEVAEFAFFQBFQBBQBRUARUAQUgaSEQLIT5AL84kWL0oaNX1KtmjWkLC5cuEjrN26iOnWeDLlsKlasIH737z/gKMhNnz4d4T8+KedNOeLzc/qtCBHQcooQuAQIpmWVAKBH8EktpwhAS6AgWlYJBLx+VhFQBBQBRUARUAQUAUVAEVAEFAFFQBFQBBQBRUARUASSHQLJUpDbtm0bati4Kd1b5m4qW/YeGjd+EuXOlZMevP9+xwI8f/4C7d27T9z37t9HixcvkfvixYo6hlEHRUARUAQUAUVAEVAEFAFFQBFQBBQBRUARUAQUAUVAEVAEFAFFQBFQBBQBRUARUATiAoFkKciFAHfAq33p9TfH0JE/jlC5cmXprdGvU5o0aWwxTJkypfh7pEo1cU+fPgOVubsUvb9wPt1www22YfSlIqAIKAKKgCKgCCgCioAioAgoAoqAIqAIKAKKgCKgCCgCioAioAgoAoqAIqAIKAJxhUCKqDOnPQ91jToZRXnz8qFtSYx8Ph+dO3eOzR+nT2Ipt08uzuSNb1PO9inRt24IaDm5oZO43LSsEld5OKVGy8kJmcT3Xssq8ZTJwYOHKFOWTJ4JSqo8nmfG1IMioAgoAoqAIqAIKALJFAHl85JpwWq2FAFFQBFQBBQBReCaR8CJz0uZnJFJkSJFshHiopxUiJs0aquWU9IoJ21TWk5JB4Gkk1Lt/5JOWWlKFQFFQBFQBBQBRUARUAQUAUVAEVAEFAFFQBFQBBQBRSDxI5CsBbmJH35NoSKgCCgCioAioAgoAoqAGwJ///03HTp02M2LusUBApcvX46DWOM2yqSWZqR33779lBTSjTRCMzgppDVua1nSiP3SpUv02+7ddOpUVIIkGPX6woULCfJt/agioAgkLQSUz0ta5aWptUdAeTp7XPTtfwgkNR46KfFyx4//SadPn/4PbL2LFwSSWp0GKEkxzdbCVEGuFQ29VwQUAUVAEVAEFAFFQBFINAj88ssuKlOuIjVv1SbRpCk5JKRbj560c+f3tPLjVTT27QmSpe07dlCn556Xe0zci9xWgtasXeeZXQhrWj39DB34/XdPv5F62PjlJur1Sh/X4JiUlb/vQRozbryrv4RyxAIDcMKC9RtvjqHPPv+CTpz4ix6uXJVq1a4nx8EkVNq8vnv+/AVJ4/0PP0pHjvzh5V3dQ0Rg6vQZtOj9JbR7zx7q+OxzjqFM3QlVKIv2W/GBh6lytcdp5qzZjvGG6jBg0BD6/IvV4h1HFyEd1kUQu3w81/UFurfCffT9Dz+G+hn1pwgoAtcgAsrnxU2h2/F54Pvcxhq3lBz54w/hYaKiko6g5MyZM8JzueUrUjczLitPFymCyS+cHS9k5ki/HzxI//77L93/8GM0+q0xIWV+4OChMlcIyXMEnkwdNrylXZ+RVHi5vv0GUNmK99G69RsiQEKD2CGwYeOXNHjoMHFq07a9f55vnRP06PUyNWjc1C74Ve8w3zFrDlc5xtIL1OHNX29xjW3hosVU6p5yCabo6pq4EB1VkBsiUOpNEVAEFAFFQBFQBBQBRSB+EVi4+H0qX64sfbrqo/j9cDL/2pebNtOpqCjCwsLPv/wiuT3x11/+CXCOm3LQC893oeLFi3ki8c8//9DadevjVBD5xx9H6euvt7qmJVWqVPTcsx3pwQfuc/WXUI4XL14UnC5f/leE6EeOHKEcObLTzm+30slTp2j1mrUJlTTP727YuJGOHT9O323dTHnz5vH0rx5CQ+C333bT76wAgYXx9bxg4kTnzp+TuoMF41BoxUcfUaaMGembr7+iju2fCSWIq59vvv2ODh+OtoqAtJa+txzt2bvXH8YuH8veX8Rt8X6av3Ch35/eKAKKgCIQjIDyecGIxM6zHZ93/MSfrmON25cvsEIXeL1//rnk5i1RuTVp3pLeX7osTtKkPF2cwJqkI7Xjhcwc6ezZs5QyZUrhyR568MGQ8rntm29ZefJISH4j8RTMW9r1GUmBl/vr5Ema8948Wrp4AdWoXi0SKDSMDQLHMe/bvlNcVq9d65/nW+cEtWo+Ts2bNrEJffUrKK2aNYerXWPnzdp1G1hJ+oRrZHffXZo6dWhHGTKkd/WXmB1TJ+bEadoUAUVAEVAEFAFFQBFQBK5dBCA8uqdMGUqRIoWA8NXmr0WQBC37H378iQrfegvdWbJkAEAw/7pl61a6zJrP5e691y94+vPPP2n7jp1UunQp2shCk8yZM1O5svfS+fPnCfGmS5dOniEQNISFGkyk/+CdCKVLlaICBfIbJ7liUrJ9+w7KnTs3u99F119/vbw36YSJpx9/+pnuuP02KlqkiD8f8IQ8QNsVmtC331acSpS4Q8KaH7zftHkzpeS831PmbrrxxhuNk2h1I94ff/qJbr3lFvm23zEWbtJwPooWLULpbrhBYjP5ccPd+lnkCzhCCA8yefmXd81WqFCesjD2IOzq+5R3pt7L+cPEMFXqVPTQAw+I265ff6PvvvuOChcuLM+h/BRhv1kyZ/F79cLYq3z/OHpUNHvTc91AXqDp/dCDD1CaNGnkG07h7fJV5Fb7fKDeleSy/9Nj4unPVALcIG2owxlZOAjatetXOn/hPN2UIwd9vWUrZc2ale69p4y//sOPE/YGm7L33iMCbSxuVaxQgdvfDbR12zcyAX+QMTZ1D3GBoHSwhb+V5cYsdF/FipQ69X/TWLTtLRwWbaUst/nMmTNJGJPOHNlzcBuHEDovlbrrTrruuuvEHT9Iz6avNovZ6Ny5c3FaykvdNR5MGR/lulDqrruu6gPc0mXiiORqrXu3FCp0VRQmXcF909Zt22ji5CkEXDd99RWVuftuyp49m2s+0b5z5czpzxsWxVCuVR57NOC7586do5WrVsm7Dz/6mB64/z7Hvgd9NurEpk1fBcShD4qAIqAIWBFQPi9h+DyUAcaR1Wx55ZaCBemWWwoJP1axfDn/WA8e9y9W8sM4YuhvNtsvi/pnzwnPnC1bNuMkVyd+L8CTzYMdP41x8FvmDR979BH/uAy++kses8uXLUuZMmVkHv6C8PxYvMd8wSibfbF6De38/gda/P5Sys5pRBwg7Ip04p8Nz5AlSxbaxjwF+M8Sd9zOikxHmMfYxnx8YSpWtKhN6v97pTyd8nT/1Yar7zAXzHplPmfqmxsvbY0BFk7Acz72yMPSHpz4QIQBX5cnT26Zv/62ew81rP+UROXFW1q/h/ukwMsZwV2JO6Ln0Wa+j7kzdmdCmF6O53Bm7ol8ufH+BjvEu2fPXuZl75F+5aeff6afeO5dsWIFmf8gHkNu/Z5TH2XSifkQlDlTsaAf6xJmrmXihiWFn1jpGnPR+ypVDHA3/RkEpLdyH37XnXeaYHJ1S1eAxwgfMHfIkCGDhDb5ccPd+hlYefjuu+3+eQrcnOZUpq3gWyif6tWqSnliroMyxpzzwSvrB9Zv2N1nzpRZ1mSs6z1uGLulC26oX1gLwhhWlsvv9Okz8lnMmw055cu4h3v9bwYcbkj1HxECH6z4SBYEuz7fmTJnil5k+JYr77LlKwLiK16sKDVsEN3ZBjjww4ULF1m7eREzF9soX758VLf2k8J4Wf19xwuVMJcHzbkqVR4jMGRKoSOAhd4lS5dTndpP8AJxCQl4khc13hobaK4vTdo01Kt7N8eIP1r5MWsubpCFrapVK1MlXhwyFG65m3B6DUTArk0tXfYBaw/tCPBYjfHHwGhHGADRBjdu2kRprk9Djz32sH8h2fjXNmWQiOxqV07htgGvcoqkjUaWm+QbChMCmGHEONOlcyd/RsNtU/6AfNOaTbHkzZOHBg/sZ31N2qYC4EhyD74DP9Ol6S+T7+evw0p7imL30nWth1KKfMVCCoeJVmoW7hkaNuI1EcIcPHSIbkibVnaF9Xm5N7Vp1UK8fLDiQ3r+xZeoEC9KgV7a24sWzZtL0L7c8f331OWFbpTv5ptlXIYp4dpPPiGTCAjmMEHDBOnd6VMlLCa7NZ+sK/e5c+XkBaGeNHL4UHqqbh15By3/l3r0EmEFzFOBVixbQjfckJZMOiFUgYAXQsrGDRvQkEEDxN+vv/1GdZ5qSGk5D/nz3SzuL/fqQW3btBb3L1n40bRFK8lHFC9awTTXvDmzRJgGTJ5p30kW0rC4hm80qF+Phg8ZLGFD+YGAJmvWG6lggQIBwmUTFsJtmN9buWIZFWPhncmPE+4mHK7jJ06iCZPekfTi2eSlSOFbedHwbxFYLnhvNt1WvLgI0fGd4sWKiabvE7Vqyvg7eNhwmjZ9pgjpcc4nFs9CoRGvvU7169URgZQXxl7lu+qT/1HHzl0I6T7x10m6pVBBEW59tWEd76RNQ27hDX7WfGFyDU3xVKlSUpkypelmroeGIFjERDBcuvjrHjo66HW6sC2Q5/GKJ+3dJemmvt0oTeFCXl7FHXXOOuFdsnw5rV69Vnbpon9HW6rMdWrS+HHi3w17gw3aBc5xxUIrcMIiMibSZ1lYiPq+af0aSp8+WlsadWrUG29KW/qFhchowwvnzRF3KDM0aNyM8rAQFouv7Tt1pk9WrmAlj1vJpBNmv6HwgLqEsIvmzxXFDSyuNGzSVNIAoSOElw8/9CBNnTxR8mEt46wsQIZygbUPcEtXKMCW5DkGFiWwuFStSmV/kE8+/Yw6cD5M3UMfYSVruoL7pg0bN4kQF/4XsPkw1DPg6JZPtG/TbhAOpk7x/d2/BJpFPsMLJvPmL4QXmj33Pek7UI5O+UiVMhX9y6aYlRQBRSDpIRCf44vyefHP58HCA47TOHbsGM2aMd3Pjxm+DzUWCjvfskKdGRPxrkOn5+gohzE8+KwZ06gSCzZAbvyeeHD4ceKnfbxGAz4M/C+EHaCVH39Cg9jc55ZNG2Ssq9+oqfAiJVmI88JLPWjUyOGyPop1OBB45IWLbxRBrhf/bHgGKBeYMb9Du7Y0a857zI8XEF6he7cXeFdlO0qXPl2s83S/HjpPg977nbb9dlbSHurP3bemp76Nb6bCeaKVL73CKU9H/vKND57OWh5Wfsta3+x4aWs4HDHTrGVr4UHBj7vxgQiH76CNg/8tw3NgCHK9eEunuWFMeLkT+87SunG/0pHvT1mz43qf645MdH9nFngXiJ4DuHpmx3/Z0hEIO55BZr6PNov5Febg+VlusmTRfFGK9uL9gR0Ia4uYk0BA2a7t07LrF0L3F7v3DOiT3Po9CBqd+iiTTsxLLl/+h06fOStn/L6/cL7w/0hD3/4DaQ7z2+C1Mf+BkHfF0sWiQGvtz6DUjrmYdT3ALV2I24tuvjmvf/0c8/MM6aMFttZwqMP79x+gcW+N9sTdGg7KMfUaNmaF0Eoyf4Sb25wK31m16n8y9mA+V7F8eTp18hTVrF1X1lLQX785ZpzMH63fsbvf+cP31LVbd9rxTbQJZjeMvdKFutS4WQvBHmU0gM2ho95hfeaO21+Rz7vlyy59obxT08qhoBQLfsAgte/YmRcXu/Ei+Sw6zx2Coc1ff02fr17NzMAN/n+j6W/8WK/tOj4rjfkO1g7bt28fPVmvgVyNHwhH6tSrL0JcvGvGC4Efr/rEOOvVBQEIMV7nc8tqM34op318xpShPXv3yTtrOYGBdaLxEydTz5f7iibUDbzLoDkPvFgUNBRuuZtweo1GwK1NLftgBWst/exvTygz686NYAz79htIQ4ePlIXfjKzZiTMAIHg0pG3KIBH+1a2cwm0DXuUUbhsNPzfJOwQEqzincfjIUbR4ydKAzIbbpkxgKBStYVMsc+fNM6/kqm0qAI4k+RCJEBcZheAXYUMhTFB2cL2Ego2VIPz54n8f02efrBTB55Rp0/3O0Hgc2O9VcYM7hDLW+owJ1Su9e4r5pdGjRtLSZctFCPzRB0vl3foNG2VyjAhf7vOqKMJ9tWEtLV+ymEYOG0I4Cwa7AUBTpk4XhYf5c2fTqo8+oCqVH6VDhw+JG372Mo+2eeN6WrxgHiH+9+YvEOGruDFPUb9eXRFWwR1pmjbjXQkLIRZ4vZde7Cr5wPexC/SdqdPEffrMd2nf/v207etNIsz6eMVyWrBwsewqhAfsLqzXoNFV/7N5IcpQ/1f7iCAVwjcjPDZuTlc33E2YSe9MFSHue7PfFaGzycug/q8yRivoi09XicCq/8BAoTME6Ks/+4Re7NpFNG0hxMVEFmay1q/+nA5HcC7rXheMkV638kU9weJhv76vSLo3b1zn16A3eXULb/xY83UjCxkx0cWu7Wc7dhCzs8ZfmjTX046d35vHkK+RCHEROQS/CBsqYXHghiu7s00YKD4sXbRAymjyhLfpfyx8PHTosDh7YQ9PwAbtau0Xn4oSBbT+UT/W8TPInM+M8QJC3OXvL5K29OW61bLgMZXrCAiKlxAEo36hLQ7o15cOHPhd3PCDdE6ZNEHSCeEwdpWOGx99LjTMGhdhJQG0U4RFfcMuHpOP3szHY3EY4RA/4sb5xhC6e6ULWvBYvAluiz1f7uNPG5Q7aj1egwrypP+1EcPkPdIHISoUVPBNtP/s2bP7w+DGre5BCav9M08TFl2w+A6NcK98BkTu8oAFrJnTpoiP92bP9Ct82eUDnlCvYdEAfbmSIqAIJC0E4mN8UT4vYfg88HPPdX1Rdpq+y4JYY8UilBp6662FaOPaL4Q/7drlOerAyngox1D5PbtvOPHTuXLlEssPOC7AEOak9erUFsso4HcxxmNOMG3KJBZIT5MdxPCLMRW7aYcOHuhXMvPinxEOgq8Ply+R8bdRg/pi4QLKX+BXwKsvWrwE3igueLpIhLhICwS/CBsqKU8XfzydV5m48dImLOq5CHF5HmqUid34QBMOSnxff7meZkx9R3hfL97SaW4YE14uXCEu0n7k+ygW/u4y2fC8fv/DD37FT+MZ87jnnu0k8wYo4O4/cIAwxweFwhMjz1hHAP8PITDWEoClWVswiiJe/Z5bH4W0IJ01qleV/mbDms9FqNmtew84yS7TyzzfgOIq1gqgvII1CFi9Ak2bMVOEp8gf5i+YJ0H5BrtzvdIl4XkeFTxHwTOsEYAgjMRaBOjN11/zWzuQFw4/bribINiJC+Hn/fdVoiEDB4gA3mtOhbBQIMKaB/IKC2m9+/QVK0qYJ2G+1LRxI78iq/mW1xU7ed0w9koX1maQLhxlgzKaPXOaKPyY73qFN/7CvaYON4D6jwyB9+Yv5IWb62SRoGGTZgGR/P77IapQrhx1f/GFgPd2D1gYWb9hA2ERIydvYwc1aNKcVv3vU9ESwTMWGTt1aO9vdDffnJe693pFFjPdBMQIe63Ttm++o08/+1yYtxat2gbAgbOhcuXMFVI5+Vj7fDovyA4bMpBq1qgu8cAUwrwFi6jqFY37cMo9ICH6IAi4tSmYNXiBJxa1n6zliRZ2hmDRbvLEt/3m4VKmTMGam+9TrZo1JLy2KU8YHT24lVM4bSCUcgqnjTom+Bp2GMk72WrygnI2NpE5+YrAyMARTpsyYXD+5qv9B1EF1piDcM1K2qasaCTN+3B34lpzGUpYLKQ8+EhlmZjBsoiVMOEx/AyEpxDkQusYAjJoycMs6JdsYeHAgYOy0wALVlaqcMVKCTQnQTDjCjImmnHGEcywYWwAP4UrCObSQGgP2F15550lWBD8Ae8EzCO7EXp2f0nczc9TdWuLSVM8Q9AEoSlMxMF0MEy8QZAFCyD7WSgLbWGcgwT+ARMwTITatGopUUHDeOybb5ho6fMvVotG7tat2/zvMMncyTuOYf4X90+3buV3MzeFChU0txFdnXA3kY2fMIk++PAjWvb+Qlk8w3uTl+wsAPqMTSiDYE0GE2KrcAdCJ0PAAtjABC4IC4xYTFu2/AN5xoTpuecDeeaRw4bKpE48XPlxwxgWHtzK1+yOxaQQBCFjq5YthN/GM9LuFh7awiBrvuSFw0+LZk1lhzYUC4J3QToEkdfh7sS1xhVq2FuKRpuGwi5qK6EeGxOGOAsVBAUDmHJzw97EUfnRaLO9N7O5Y5hmfPThhwRn7FJHPd7166/iFWbSQdh98MfnR+W+SJEibHllu9zDLDn6gLcnTKRHOI5mTRoH7DLHQq6xyIJFrda8e3/FhyuvxFOYXhs+jLXcd4lpRuwOBqEt5sx5kyhezJ01078bGedAmbOgvNKFRaDWLZtLfNYfmHR3I5htA7VoFn3mFNp/qxbNRVCO9151L9isGsJAWO2UT5RXXBHqwWjWkC9yWwlZfIG5diVFQBFIGgiEOkbY5SaUsMrnJQyfB/4SwlfwMFs3fxlgbtSuLIPftW4RbQEH7zHGvTlmLIFvxnELiNuJ38MRDU68mxs/DaHty337UV9WbjrBZp7B3/d4KZoHNGMKFPJhYQeWNczu4OB049mLf4Yf8B9QWgLdw/HB9LQxp4xdwUOGjRAhCXgVJ4qUpwt3J671+6GGVZ4ufnk6axnZ3bvx0vC/dv0G2ZUJ5b6nWAEYFCofiHmbqadevKVE7PATMS/HBlnC2Ylr/TyEuaGQqc9Q4g4mzAlAOXJkl/UobPoAhcITV61Sxc/7o92nTJXSj2UlPg5m5arojXJe89xQ+qjmTZtKujDXxPy9Fu8yPcdr1LDYA0UUrKOhv4aCOAhHSIEgJMacBPkD4Ygms8sUcyS3/hi7upGvXGxxLJjysvwoJuSEO+LEmkfF+x+KVrIZNMCPsdecCmFx9I2Zd2KejvxDyG12Yjdp3JBg0csQjkMyirt4B4VkKDVYyQtjr3TBvQWXgVGGwhwMY4ghr/DGX7hXFeSGi1iE/jEZh7kvCGKDCUwsmJctW7+h61jYW4I1p435MuwQrVKjFjVp1IC1q9vKosJHHyzzC3ER13WpUxPOqgChscKc2cS3x8ozfrD4NXT4CNEug5kxJWcE7rjjNtZkWRhwdpbxDXOCBQrmlzM1Tp06xYu4JQN2J3Tv2VvMupjO4d0ZU8mYdkQcOPcNC82G3Mrd+NGrMwJObQqLswdY4wq7cDewCZLcrPAAc32GgtsUOvSN66IXl42fk3+dkkV8PGubMqhEdnUqJ8Tm1gbCLSfE59VG4UfJGYG3x4yWcWoRKzFYyatNRZu1bM47nsb7F8sR/rVRo+k2XmCHiZfXXh/tj1LblB+KJH0DE8mhCGTtMomwXpQpYybxgvpy7Nhx/6IKXkIxylDatNFmxFBPQdgtB6YdJkmLFi3KAt/AhRYIcgzDz9IeCZOaJzPBZM4rlaMsvonWTIUfMOdGyNendy+a8e4sMQXU65U+YmJt6KCBcmYX/FrPtMUzFobMTj/sXoRpJkywIbA0E20IcuEH6TTvENZK2LkJXKZOn+F/DWGMEW7jnE8IoWKb3HDHtyDEBWGxoGSJ6GMpTH5nMk5WAo7YeYhJK+i66/6bkkCIZialJky2bFnNLWXMkJF52wb+Z9xkznK1cMwNY6/yhalslEFq5rENmUkanr3CmzDWfJl3dtfdu/favfZ8BxPJoSyY20WEsOEQ0ojz5wzBrKAhc+Ys6i/IDXt/GJ7zWCmVBWt/G2UPv/8erQhkre8IB4UAUK2aj8t1xruz6fXRb8niAHbimIXX7NkCd7PiPF+zGIJ5Waunn5HyhCJHURZ4gnz8Z8r4ppuiF3TFwfLjlS60X6O8aQnmeQuBNQTb1roHBStDJl1ufZPxa65u+TR+rFfTn1rfRXKPdoT2DMJZhkqKgCKQdBCI6/FF+byE4/MgFADhjHXsLHUiM6Zb3XFOvSEsgoMwbmFnE8iJ33Pj3dz46UdZIegsH5kC07JQFsP6mlFYMscswBJeo6bNZewcPKCf49jrxT8j/YaXxn0K/rueTbMaSpEipbl1vUbK08FEcqgC2eAEIGw4pDxdIFpxxdMFfuXqJzdeGr7BT4O+Z3OwhkLlA61114u3NHHbXSPm5XiKl+uOzBEJc2FeORTCDuVF7y8R5c5mTRv7g2AOZ2QqeJkhQ3pWlo5eKwiFJ05jmaOkYIXK61Jb+gHe9GPIa54bSh+VMWN0P4o4s/GxR6DjrLScI8dN9Cybv8eZ5FA+h5IwTCtjjgJCPqpWriz3wT9e6UI8t7Pc6TZeqwsm6xws2M3r2Q13hDUKs1FRp8WcvxlDvNofwpq5Ju6h1AOyrrVg3oXvGypUqGDAeoH1CAfjB6aR3TD2SheE6jdeKTMTJ+aZhrzCG3/hXv9bnQg3pPoPCwEIcZ0IWglienLufF40+JMbbzY+u2kO7ywowJP466TR5rwpWlMCQiecn2tozbp1opUGk3UgmAwA5bOcpYROKz3bM9/HZoJVkCvwOP5k4g7NiQ4ePExfsdYHzuE6ezaaUX1n4nh69JGHJUhhXjTOfKWcsTB5W/Fi/qiOMnM7cdIUGsCmDA25lbvxo1dnBJzaFM4wAOH8FrQltCnsCJwyeYKc5RLcpswXIGR/h3d07OTdUVCqgH+QtimDUGRXp3ISbMPo+8zXncoJ7l5t1MShV3sEnMrKq01hIeaeMncHLNKiDcGcMkxdff/DjwEf1DYVAEeSfcA5t5emR35GrlfGITTDzsTa9RoQzLDDPKgXwZQphLgwX4uzSEEwFf7Dj4F10CseuEPoiskAzCnDPDMIC1o4Pxpn4IJSsgAYO4A7d+ooSnQ48/bDlSvlLFy479oVvaMQ9yAsIBlLD2PfHi/msV7t87IIM7FL4MOPVoq/woULi6AWO0/NrgCYIfrzzxOCA/gOnItp3QGMiYhJF45xwLlnwdSh/TPUo9uLwa9j7Rlm7XBODkzHFmNeFYIxaD2DJowb69dWRT+OyTX+zcKfNRHQXsZCIPA2gl5oPBtCPuvUfsI8Ol7dMPYqX/DMEJbjCvNNoO3bd/q/5RXeLl/+wDY3OGIFWtgw2xcO4ZzbSMxfmjNyQ/kW2iFMG3/2xReimBNKGDfsQwlv9VOc+WnsqsXOWEPW+o530JzHbpwT2PHTtRthd/hbo18X7z9x3cHuBbOgA0WDO0tGKxosWLRIFJhWsqku1Cv0ITgnHmTKGP5vKVRI3kH5AM93sfKFV7qggFKuUvROZQl85QftAmbBnAhzNYy7CG8UGqCka8iky61vMn7N1S2f8JOOj4CBMpwhI+g2z3ZX37/RC0l2bubd16ypDmsEMC2vpAgoAkkLgbgeX5TPOysmGdGng+KTz/th+zeiTIj1kmVsjhNlAas2IAgAjCLUb5axRxz5B+MRLGmAwPOBMG6dPXdW7p34PTg68W5u/HQ6Xv+EUjB4ZJwR2bDBU/Id84O04hgB8Jaj3xpDffoNEKsgZsy3KiZ58c8mzpheI+XpcM5tJOaVzRm5oaRbebr45elCKRM3PzibFTtrMR+GAgN2e0fCB3rxlm5piAkvd3/nwhGfkeuWJuOGM46h0NmyTVv/ESXGzenqxRM7hbN77zXPRRinPsrEd+DA7/655s+/7JLXebmPXbtuvQhxccSQsZ5To1ZtE0zmRsFrHLBqVahQQc/5NyIZNGSYf86DZ0OYz2OneFwQ5gQ4funJuk9Rj96v0Ntj3pS5vtecKjgtpg1grcXM0aCsgLm7IYxTZqwy74Kvm776yhVjr3TdXboUbdmyVc6gRtwYh3CkTNXKj8mnvMIHpyfUZxXkhopUHPp7Y9RIMbt8W/HivKB1ljo/35VeYvPIC9+bw4sOKcUeud3n0cg7d3lRzlAyOw7Pnj0vXoO1KLKylsC5s+fsotF3ISLQumUzGURhKx66+mN4EfaZDp3ou61fs2ZMBtkxbRcVyrTl0+3ovorlA0z9upW7XTz6LjQEMmXKJIt9BfLno9y5c4umEs4omzj5HTG37NSmLvNurt2/7ZFz+LBrwCzCapsKDfdIfLm1gXDLCd/3aqORpFHDYBeNe5uCiZPpzPAZAgPTs/fLLGTqJgpJwYJcbVMGqaR9TZGvGF3/6uI4zwTOjrQuwrh9MG3aNOK8nydEYORhtnjOe/P8ZvPdwtq5NeSFowGDhlCO7NllUjSLz5iF+dZ1qz8TxaDHqtagBk/VZRPIrfjMmjPyTau2KMwHP8AmZ3F8BrSFcSYVhC8gaGtip9pJtvDxF2uVwjSdoVsKFZTJWa/efaj/q6/I6w7PdpHdwBBoV69WlTqyWbxSpUpRJTYzhEkbJrCzZ04Xs0P4Js4dDSbshohLys1nmWHiB3NOT7fryKZUl1GhggVFkNOD+wQIKbGrtx+fj/vHH0fFHJJdemCyqs+r/WnMuPFskaYhffPdd4TzfRFXOOSGMeJxK18oRMK8c7uOnahDu3ZStiNGRQsGTRrcwtvt8jbh7K4QWluVMO382L1LU7gQ5Zs5zs4pVt/hmBZYXwiVvLAPNR74g5lEmDJEfWjWpJFoYbfv2FnMVj//3LPUrUcvimIB7PBhg+n8ufPcFqMor8VcMNrZ66PfZB6hpZgfnzBpMo0YOliSkClTZllIP/7nccJiMXb0WgkLxqivyH/+/PlpyNDh0o5xFpNXujD3smuH1j7C+i1zjzkd6nqffv15jsd5Y611pMFKbnUvi43pZq983nH77YT+DX0KjgKCZQMngtAXtHb9etGEz549m5NX+vfyvwR+XEkRUASSHgLxNb4onxe/fB6UFLFzCfzok3Xr0wvdutM7bFUJglwsskMhEn5wvAEsrRhlRlODBw0eRrnH5aK0bPGmb/8Bwq/CEgwUphA+HH4PcV68eJG8+OnaTzxBTZq3lCRMfPu/8WnegoUybkPRCzvZsO4GMmuhsMjx5aav5CxG7Izz4p8lcCz8RMrTFc5zA83sViQWUuAehfJ08cfTuZeEt2s+5j+hADh8yGCC9SfIDGBCPFw+MBTe0ik1MeHlshZIT0++dpdT1LHyHv1POOTFE4cTl9c816uPwrfQj8KSwFlWFh04eKgovEARJTOvwYH27d8nGyaWr/hQzgQ3SuGP85FoOPcYJpIrVaxIH7D7qwMG0pd8rq9XuhBvF55DPd2mFW4DCJuh4opQD6E4NHH8WIJQetI7U3me3dZzTmWXntpP1KIBjFfePHkIliKwZhMueWHsNdery6b/m7ZoJYq3sEa2nM9wN5aIkBav8OGm1/hXQa5BIgGvMNFrCLtncSh3/UZNxOScOY/NuJsrtnA3a9GacGZEGz7ryVD+fHnlFjtAIcQCgZGAqdmbeVFKKXIEsEMa/4ae5XPzxvKiEhZm0UDtCIwpdsWkYcYYQivDVMJvJOVu9w19F4gAzOFY7dJjctimdUuCZiTOzXWiG3hC8/prw8V55qw51PXF7rRpw1o+a1DblBNmMX0fSRtwKicIfiNpozHNw7UQPtw2NWnKVDaVcoGeYO3I47yr6AgLbDAG4R7mu7RNXQu1JvbyiLaNM7K9COMrFqEgoMGO0JEsdIN5UkxusLgUCfXq0Z15sfPUmBePIBjGwtYoNtlqBCX4Vn8WsEDABMKOgZo1qvs/hfNVh414TRh6pAU7hc1ZOS927SLCzjJlo/kH7CaEuSHsQEVeJrPFjxdf6kEPPVZV4sMuguef6yz30PIc0K+vCDvNjvkunTux9Yly4g6BVLoruyX8iYmjGytfYz4xeMAAqtegEe+MfFGEy9OnTua89KSHHq0iXrDQN/r1kcb7VVfsgIXFk779B9JbY8dJOWKSt+qTq4XTVwW2vHDDGN68ynf82Ld4QXMiTZ85UwTvw4YMoi6cJ0Nu4Y0ymPHrdYWyZSou98RKEEyH0g7NDmov7MPJJxZfp0yawGeuD/ArPFSrWkXOjUU8vVhpCLtwy1eK1h6HwmVXC78Hgfy3322X3bFow9hFX/+pepKE+vXqyNnNOI8bhDYMSsF/oF587jXKEjshQIUKFqTx46KFvV7pwiKMlya4RBr0g3DT3plEz7MpSZOu7t1ekCMKDL5udQ/RGX8maq98duTd+tvYhDwWhJBH7A5HH2pHEERDKQPCdZx7bd0pHewfZyZaTWYHu+uzIqAIKALK5yUMnweTlpMnvk2Vqz3OSoqTCHzkED6zsF3HZ8VMMcbOls2byfmMqKVmXMH4Wb3mk1JxMd6CXwVh7AqX30M4zDO9+GkIrsBHQ5kxFysNGqrPZ4binMSqNWrKK7iZHV540e6Zp2XjBXbzYheyF/9s4o3pVXk6ZwS9eKfkxtM5I+HsYtqa1Qf4UyjKtnmmPX3+yceecxhrWNyHwlsGhzHPiZ2XS50qWqyFo4+sx5KY9JurMY3uxRMb/6Fcvfo9rz4K8xLs2LXO9wf17yefhvUfrCU0ZbkPCAJ9zKFNPqo89ij1faW3KHtiPQBxYa0h5003iX+v/hjrcm6m9SWSWPgx6bVGhXy89cYomevcxceMigVNl7meNay5x1zkr5Mn6Qne3QsCVpjD2LUfEyb46oWxV3+FtRfsYH5v3gJavWadWIO4wXIEmFf44PSE/Bx15rTP65/tOrMsUCk2ENizZ6+vUJHivsOHD0t0//xz2ceMkw/vDfG5nuKHhYDmVcCVG6nvkcrVfDzB9yG8lXjXioRdsnS5/zXv1JB3CKcUOgL3lKvkW/7Bh/4AwHT9ho3+ZzavJrhu2brN/856g7Lp3KWrlBXvtrE6SbmFW+4BEeiDH4HgNnXw4EFpUyxI8vt5c8w4H+9W8j9bb/bt2yf+eReh/zXvdpeyPXTokE/blB+WGN0El1O4fZ9XOSFx4bbRGGUoGQdeuGix74FHKvtzGG6bqvlkPWk/GOuC//fu3attyo9s3N6Ad/Pi7+Ce2Hk8FpL6eMHI9/PPv4QM2KVLl4TP4gldyGHcPCIeNnMqddfOH/gr6xgCP7zLwTd7zlwJc/ToMbtg4nb4yBHfhQv/jVfBHlmA7MO/EyFdsZVPp2/E1nsWivtOnjwVVnTAjgXxIYdhwZdv/oJFfv8Yw70wdirf33bv9ll5cdaElj4N+bCSU3irH6d7pI/PffOVKFXGxya0nLwl+HteKJW8gw8Otb6Fgn24GUP9CcbfxHH69GkfC13No1x5F7XvWebFQWxyy4e+wY7Qhtmssp2TvEM4XixwdHdLl2OgEBwQb3DfYg0Wbt3zyqcTttZvmntgwsJ983jVlU1gSj/42uujr3LTF4qAIhBzBJTPOxzyeOSFtldfeq3xeV5jAe8ccx0TET5cfg9lZIcz3mN8Bp8EPsyOME4irB2BhwR/EExxwT8rTxeMsvuzG++UHHk6dzQic/Xqu+xi9eItrWGSAi+H/ghrTjPeneWLinLm5a35wr0XTxzs3+vZrd+z66O+WLNG+jXEizIJnsOY7+G901oC/KDfcVuncEuX+UZiurr1C3bpRP7s+ng7v3jHij1+3I0fL4zhzy5daH9oI4Yw3kBWx0cMmVf+q114v6PDjROfpztyQxZ5x41HaCByA2a73OuoH5+TlpIPzoat8sf5bDfsLOHy5C3iQ+mhh+4Xc3XYEdLmmQ50PWuuQaMcu5xAMCcIDTRoH3Tn88+gJZ2Lz0+DabPefV5l03SN5D5ucnFtxLqPz/PE7hCYAcjHpkTfGjtezmAtWeIOAQBaGFFszq39M23lGVv7P1z5Mc1+dwZxo5V/OGCHqFe5SwT6ExECMJUx6o3RxIMd71ZvTr/t3kNTps2g3j1ekviC2xTONYZ/HJjelnfu8kDAux7eEG0es6td21REReEayKsNRFJOXm3UNUHq6IiAV5uCBQheqOVzQjvIrugF82azOcX/dkCu+HAlDeYxadP61XwOXzodpxyRVgc7BJo1bSwmXbuy6bdQz1mENq5VY98u3nDeQds2u4v5UPBaTgS+zJxzGewHbrly5gx+HfDsZJnFeHJLl/GTWK44g9Sc4xtqmpywswuP3dE4g/t2y3nKoWBsV748MaM2bdvLmURNWMP3GJ9X/M7U6bKbIzgPduHt0mf3DucgwzQwLOxUrFDezkuieIed7e15Zwva4ZJF80PaaRoK9uFmDua4nCgD7y5yI3MOoZ0ftzYM/+hTzE58u/Bu6bLzH+o7r3jDrXte+Qyu227pBCZuOx9e5vkn2i92dCkpAoqAIuCEgPJ56ZygkfcJwed5jQVi+YWtvzgRwnvFYRfWboxaumw5LVy8hI8yy+g/dzA4LCxF2IWFP1iOseMP4gJX5emCS8b92Y3HsSsza2xJkaezpj+27sPlA/FdN9yD05UUeDn0R9jdCbPw6AdqscnhUMipzwglrJ0ft37PrY9CXG5lgp22+HcizLfc+jO3dDnFmZDv3bCwS1c4Y822bd+IOf7gObcXxviuXbqWsSnll3geD8tJBfgIntVr1tKevXttzxi2C2+Xn1DeqSA3FJRi0Q+3MSE0NkNjsKW8Ww+qVbuuvIIQd8SVM9QuXvybcMZaWmaGcO7Yhi+/FFO+8Fi95hMmCtmKPufd6fLcrm0bgunlZzo8y6YAz4hQuNcVIZY/gN6EhEAKFqwbgoD28OEj1Lxla3kF0wbz584SgTterF23jk3PHBZBLs67mz13rvhrxjbTrbTrx51i2sKt3K3+9d4dAdOUTJuCeXIcoI7D09+dPZsHvQz0zNOtqUnjhhJRcJuCXfz5c2dTLzbFOW36DPED0w6zZ07zf1jblB+KiG+CywkRubWBSMrJq41GnPhrLKAxKWmy7dWmDrPpZIxTNXjsgnlrmL+2Es6cxlmBVgZU25QVIb13QwAmf2DiNqlRxQrl+FxNPdIiPsvtwsULNOHtsXJeW0y/CwEVeIlJ70yh6TNmssLkDdSoQX1C3xWbBPNXG9d+EZtRxklc4LF6splh/CclKlq4MGW98caklORkk9aF8+Ykm7xoRhQBRSDuEFA+L+6wTQ4x7/r1N7rttmK8PjrYv+6WWPOlPF3clozydHGLr13sSYWXq8VHeuE/KRHO8K5WJfpol6SU7qScVphixlnprVs2j5Vs1OGjsXA0Es4vXvnxKirM8060mRJXNvvFykdsIkkBs3o27wNeRZ2Mory8A1EpbhHA2VPQqMFOXCthV4CbxrPVr/WeTV4Rb7OXcyes7/U+ZgigPHD2rVUogRixgxB4owzDIadyDycO9WuPwKmoKMrIOzSCz/BzalNsLlvKD2e12JG2KTtUYv7OqQ1EWk5ObTTmKdUYwm1TXohpm/JCKHJ3KHRlyuK8e83ErDyeQUKvioAioAgoAoqAIqAIJA0ElM9LGuWkqVQEFAFFQBFQBBQBRSBcBJz4PN2RGy6Scej/BgfzJJEIcZFMbN9Xin0EUB52ZYLdCuEKcZE6p3KP/ZRfezFit60d2ZUf/HmZsNQ2ZYdmzN85tYFIy8mpjcY8pRpDuG3KCzFtU14IqbsioAgoAoqAIqAIKAKKgCKgCCgCioAioAgoAoqAIqAIXMsIpLyWM695VwQUAUVAEVAEFAFFQBFQBBQBRUARUAQUAUVAEVAEFAFFQBFQBBQBRUARUAQUAUUgMSKggtzEWCqaJkVAEVAEFAFFQBFQBBQBRUARUAQUAUVAEVAEFAFFQBFQBBQBRUARUAQUAUVAEbimEVBB7jVd/Jp5RUARUAQUAUVAEVAEFAFFQBFQBBQBRUARUAQUAUVAEVAEFAFFQBFQBBQBRUARSIwIqCA3MZaKpkkRUAQUAUVAEVAEFAFFQBFQBBQBRUARUAQUAUVAEVAEFAFFQBFQBBQBRUARUASuaQRUkHtNF79mXhFQBBQBRUARUAQUAUVAEVAEFAFFQBFQBBQBRUARUAQUAUVAEVAEFAFFQBFQBBIjAirITYylomlSBBQBRUARUAQUAUVAEVAEFAFFQBFQBBQBRUARUAQUAUVAEVAEFAFFQBFQBBSBaxoBFeRe08WvmVcEFAFFQBFQBBQBRUARUAQUAUVAEVAEFAFFQBFQBBQBRUARUAQUAUVAEVAEFIHEiIAKchNjqWiaFAFFQBFQBBQBRUARUAQUAUVAEVAEFAFFQBFQBBQBRUARUAQUAUVAEVAEFAFF4JpGQAW513Txa+YVAUVAEVAEFAFFQBFQBBQBRUARUAQUAUVAEVAEFAFFQBFQBBQBRUARUAQUAUUgMSKQbAS5f//9Nx06dDgxYqxpigEC+/btpwsXLsQghvgLevz4n3T69On4+6B+KVYROHbsOO3du498Pp9tvH8cPUqnTkXZuiW2l1oXE1uJhJees2fP0q5ffyOMa3aUlOqiXfr1nSIQLgLK44WLmPpPjAhcvnyZwNfimtgJaTx48FCSSGtixzIxpS8p8Q9nzpwh8OZKSRMBL142Kuo0HTlyJGlmTlMd6wgonxfrkGqE8YCArlXGA8j6CUFA1yq1IiRmBJLSHDcx4xhq2pKFIPeXX3ZRmXIVqXmrNqHmW/2FgEC3Hj1p587vaeXHq2js2xNCCBEzL3bfe67rC3Rvhfvo+x9+jFnkcRy6b78BVLbifbRu/YY4/tK1E/2GjV/S4KHDJMNt2ranA7//HmeZHznqdSpX6X56pEo1On/+PE2dPoMWvb+Edu/ZQx2ffU6+O2Pmu1T63nLyPs4SEgsRa12MBRCDoojPuvi/Tz+jkqXvoao1atK2b75N0nUxCEZ9VAQiQkB5vIhg8wxkx3OB5zNjnmcEQR6O/PEHtXr6GcLifFIhCIqcFGZimgcoVAEPxP/Gm2Pos8+/oBMn/qKHK1elWrXr0blz52L6iTgLf/78BUnj/Q8/yoKWP+LsO9daxHa8ZVxiYPe9pMLLLl22nO68+156e8LEuITomorbrk+KKwCCeVk7PvrrLVuo4gMPU69X+sRVMjTeJIKA8nlxU1B2fF5sfwkbLsDrxNU6TWzwaVDShzJ+TJXo7PDUtcrYrlFJJz67cS2uUq9rlXGFbPKINz7rIhCz4yeTyhw3eZQ4UbIQ5C5c/D6VL1eWPl31UXIpl0SRjy83baZTUVH0+8GD9PMvv8R5muy+t+z9RfTgA/fT/IUL4/z7kX7gr5Mnac5782jp4gVUo3q1SKPRcEEIHD9+nL7bvlPerl67Ns4WPS9evEgTJ0+hoYMH0o87vqV06dLRb7/tpt9ZcIwF6fUsUAb17P4SDez3Ko2LB6UG+WAEP1oXIwAthCDxVReRlBnvzqan6tahnd9to7L33pNk62IIsKoXRSAkBJTHCwmmsD3Z8VzHT/zpH/PCjfACC//WrltP//xzKdygCea/SfOW9P7SZXHyffAWwOPy5X9FKRI7z3LkyE47v91KJ0+dotVr1sbJd2Mj0g0bN9Ix8GBbN1PevHliI0qNgxGw4y3jEhi77yUFXhaYTJ4yjV7p3ZP6v6pCvtiqI3Z9UmzFHRxPMC9rx0c/+sjD9NEHS2nBwsWEneJK1y4CyufFTdnb8Xmx/aV//vlHeJ24Uk6LDT4N6zlQxt+zd2+Msm+Hp65VxgjSJB3YblyLiwzpWmVcoJq84oyvumhQs+Mnk8oc1+QhqV9TJ/UMIP1YbLinTBlKkSKFZOerzV/LwgM0uH748ScqfOstdGfJkgFZhbmwLVu30uV//6Vy997rX6j4888/afuOnVS6dCnayAKczJkzU7my98ouPcQLIQ+eU6VK5Y8PFRk7p/7g3QilS5WiAgXy+91wg11927fvoNy5c7P7XXT99deLu0knzPH++NPPdMftt1HRIkX8+YAn5AEaFtAiu/224lSixB0S1vzg/abNmykl5/2eMnfTjTfeaJzoX84b4v3xp5/o1ltukW/7HSO8AT7ffredMPkyBByzZs1K+fPlkx0HZe6+m7Jnz2ac6fMvVksZ5M+fXzThNn21Wcy15c6diypWKB+ApT/QlRuU6b33lKFNm74Kdko0zydOnJC0lLgjumxMHUJ5bP56Cy9q/kPlWNEgC9clQ9AIdMIB9SJPnty8c+ME7dmzl/N/j9TPn37+mX7i8qxYsQLdlCOHiUquph78y/FWYEyt38LOCpQR4kM7MYtyJp0QFkFYmSplSqnbGTNmDIgbO3R+YkF+eq7791WqSFZ3U8cg6L/1lkJ01513BoR1S1eAxzAf3NpUrpw5/W0Qgs2vt2ylKo89KnXvU94Rcy+XyzfffkepUqei0neVopWrVsnX//jjqLyHUogToV/Yf+CAk3OCvw+ui6hnyHP5smVFGePQoUN0992lpa2axLrVxV27fqXzF85TlixZaNu2b6hw4cJU4o7b6fDhI7Rl2zburwpTsaJFTVRydStzp7po0lmJ6+533FciH2j3uXLlCojbrS7CI5ROtnB533TTTVSG85kmTRp/eK9+2u8xzJtI6iI+Ydo5xo3fdu+hhvWfok94N+6XmzZx2u+mdSwAeOzRRxxTk9jromPC1UERCBMB5fHij8cLLhr0m6vXrqNbChakW3iMx3hSsXw5Px+A/u+vv/6SPsuE/fvSJQ7DyldnzwlPkS3bf/wg/LiNESYOu6tdX4vF/295PEdfafhy8NRfMp+JcS9TpozMv9vzQF+sXkM7v/+BFr+/lLJzGk1/a/gaO945kjExOC+YR5RkXv7PK7xjsHtieEbaMCcx/J7JN3hP8FTg+TFGm/kM0uw0XzHjO3hNjOFnz55l3r8Cz6duoK3MV2C8f/DBByjdDTcEZN2M51luzEL3VaxIqVP/N2UF/7qFw2LuU5bncJkzZ5KwJp05sufgMRZC6LxU6q476brrrvPH7cbzwJPhFY5y3Sp1111+ftJE4JYu4yecq8HHqV1t/HIT5cienYowv2UIPCwIc0qQF28kniw/SYF/wO6uu0uXllQbjNx4WXh0wsHUi3B4WVMP7Ob22N2FuTCEApibY+6ekudQJp1evKzTGoQpIlPH4pOXdWtTZ7jNmrqGvP/vs89F0RBzzZjyssWLFZNsox/Iyby70rWJgPJ58c/noY/F3B7rc3eWLOHnocz6EN7B0lzx4sUI7dTwRk5rPv/8c1nWmw4cOEh33VWSbilUKKAyu/F+4fBpTulzGtshYDZrPR9+9DE9cP99/v4Mu4nRlx9nngI8inV9za5vC8jQlQddq9S1Srt6YTdngT/UK12rJF5PjF43N3yTG3/n1LaBZyT8XSR9kUmnF3/nxIciraD45u/c6pvTHBrzDshoMAd0mttF5+bq36Qwx7061UnzzX+z4jhI/76/9tHEDePohz++Dyv223PeQR0qdaYCNxYIKRwaVmoWyhgaNuI1mbQfZKHFDWnTykSrz8u9qU2rFuLlgxUf0vMvvkSFeGEK9NLeXrRo3lwRcOz4/nvq8kI3ynfzzbJAsX3HDqr95BP0HQ/yEApAmAZh1rvTp0pYNICaT9aV+9y5cvKiUE8aOXyo7KjCS2j6v9Sjlyx4YAs6aMWyJXTDDWnJpHMrC0QwQcLEvHHDBjRk0ADx9+tvv1GdpxpSWs5D/nw3i/vLvXpQ2zatxf1LFm42bdFK8hHFC1dgRubNmSWLL8DkmfadZDENQgF8o0H9ejR8yGAJG8oPhF9Zs95IBQsU8AuXgU/Xbt1pxzdb/FHAZBwEu21ataSRo96gOrWfoM6dOoo7BrG27TvSB0vfl8W0hk2aysIZFoCwGPTwQw/S1MnRZrPsvodIUqVMRf/yxDES+vvULjr6zQC6cHxbyMHTZr+bbirdj67PXCSkMP/ybgsQJvEgU4cKFSwg9RDlCiH3kkXzRdAOZtUNB9QL0EkWQp5l5hMMa7u2T8uuXzCYL3bvKeUMhhNk6kGRwrfyAtTfsji44L3ZdFvx4rJgVr9RU1F2KMkD5gsv9aBRI4dT3dpP+tOJun758j90+sxZOeP3/YXzCXGB+vYfSHPmvif18xcW6qFDX7F0sSziWesYFCXQVqx1zC1dEh6h85EAACaeSURBVLnHz80355VFYHh7olZNypA+g4TwalP169XxL7zBVFOHTp1p9y8/ijIGTEZiMgKmHnEi7/PmL5R4Z3M+MVhBkFuSJy8ZMmQQgXi1KpXFHT+pUkVuxGDf8cs04RNWLvk99N1Kd9x8HXWskoHyZ/+vf/MnxuYmuC7CTDTyjD4Ai6eYKKM+mf7Oqy4uWb6cVq9eK+Gy8mIqzm3t0K4tzZrzHvc7BaQtd+/2AnVs305S41bm+L5TXTTpRL+wm5UXsGiJPnr0qJH05BO1JG63uggPML/3+ui3RGkHdREC51kzpssCr1c/LR9w+YntuohPoZ3D5CYm0hA6Q5C7cNFiSQX6awgg0D/GRV10yao6KQIhI/DrofM06D1eCPrtbMhh4PHuW9NT38Y3U+E8gYIbp0iUxytI8cXjWcsA/VOn557nMyqPSV9q+umVK5ZRsSsKX1gU+/a77/x8HMJ36PQcHeUwhv+eNWMaVWIFNJDbGCEeHH6cxn0fKyx27NwlgCda+fEnNIiPZdiyaYMrD/TRyo/la+hvFy6+UQS5Vr7GjncOZ0xMlz6dWGkB31CmTGm6mfkNQxAsQskvXDqx7yytG7eLjnwfFVbQXHdkovs7F6GsBdKHFA44GME4AljznTdPHuH3KvMcYdL4cRKf23zF1BvMcy6xkB/Cc/BhUAzAggf4XMxfNq1fQ+nTR6dv/MRJNOqNN/28J3i1hfPmiDsE7A0aN6M8rAwKwVx75vE+WbmCFUZv9acT4yoUWH/bvVv4vEXz54oirhfPY+UVDM9jndO5pSsUYO3Gc4OPU7v6+JNP6FfmvebOmimfQNm06/gsz7M6CD5uvJHd9xBJTHjZg/v/pNmTV9OvPx0OJcvip3Dx3NSs3UOUN3+gUodXBCadBiMnXhbxuOFgrb+mXN14WWs9sJvb9+7TV3aRPvTAA8LLPcyKCKgnJp1uvKzbGgTyEZe8rFOf5NWm9u8/QOPeGo3kibAa8ypYocrCc79QeVknPhpxot3DcoFS4kMgkvaOXITb5tGv6Vpe/KzloXzGjZ8gRz5g/caMk1g7wtqHWcfKxgpbWJTv0rkTrwsV9q8r2q35IM7+AwezJbNTdOKvk7LWMH3KZLGqBzc33s9tfcCOT7NLX4H8BRzX1qCIYl3rgeAV/Ijp58F/gMfo0vVFeuO1EbLuizTb9W1xsVb586Gfqffc3rT51834bEhUtnBZGtZkGBXLE60I4xUoeH3IYKhrldFr6XZrqF6Ywt1pXHOas5j1/8S6VvnvuV/p3O6hdDnq21CyL35SZSxFN9z6MqVK95+yoVvg4Lpo+CYn/s6Lbw+Xv4u0LzLpdOPv3PhQYBKX/J1TXUQ/5lTfoJjnNIfe+tVGcpvbOfGTyGekc1yEVQoDgagzp31e/7//fpDLOXzq9cFLviemVI/oH2FDIV4I8T34SGXfrNlz/d6frFvfh38emOXdkGEjfBXuf8jvzhPxAP9tnmnve7nPq+L+xZo1vkJFivvWb9goz3xGjzzPnhMd/3fbt8sznwUm7gjLA7+PGVB55oV4cY+KipLn6jWf9I1+a4zc8wKGb/jI13zcKOQZabynfCXfsWPH5ZknUhIWaQDx+TK+AYOG+JBH0JRp0/354M7EV6JUGR93COKG73d+/gUfCz/k+Z2p03yPVK7m4x2J8vzzz79I3Nx5yTOudes3vOrfiqN4DPpB2vBdKzVu1kLShndsola+a9yZUfRVqf64PP7yyy7fi917+PNrsGTNZOPd9rpg4SLByeBg68nh5YEvmvp2Lbwt7H+EC5WWLF0WgImpQ5/871OJ4ujRY4L98g9WyLMXDqgXDRo3lXI39Rv1BGUOQp3rN2CQ3Jt6YOona0v6WHFAwsPDp599Lt/mHSriH/Ua9Qhk0jn27fHyjLAs6PXVql1XnhGm9yt9fbybV57RnlD2Jh+Tp0yVckH+QDt27BR3VnaQtMKvU7rgf+q0GVfVP9TJrVu3wdmRvNqU+SYi4F3Pkn/cIz9o2+gPrHTy5Cl5v+vXX62vbe95siN+cQ2Xes456as14ljY/704XKgUXBdNnnlRW6JAH4T6Zfo7r7o4YtTrUqY82ZHwqA/AEGUMmsJ1Cf0MKCZ10aSTzzn393fvzV8g32ItfSk7t7rIyhLiF+UNQv+LcYFNnsuzVz8d33URiUI5PNWwib9dS0L5B+0PefeimNRFr7jVPXkgAN7Ni7+De6Q8XotRv/hKdPwmon+EDYXMGGjlTdB28K88XtzxeCzE9bGwyIfx1vCRpp82/T/Kb8y48cKT4J4tiEg/DD7P0Ftj35YxBOXoNUaYMHZXt3G/ZZu2vr79B/iDNWneys8jufFACBDc33rxzuGMif4E2dwAI/Bb4dLSl77xTay+JqJ/hA2Ver78iu/ZLl393pFvjP2mr8D8BM+Gf3ebr5h688abb0l8LGSVsJizgO809eLDj1aKuxnPwVOCEB7zCNQlEHg4jJ2G3p09x8eWf+TRpNPwAqycJ7zAiNdGibsXz9P66XY+/Jv5BuLG/BG8k1e6wEsiXcFzqx69XzFJtb0afJzaFVt8ErwOHzki4dnSjzyD90ZYN97I9oP8Mib8w4g+i31t640N+3/4K4ucknPVe1NHMC8GGYyceFkvHMJtt24844m//hL8zToBymXQkKE+Vkjwp9OJl0Ve3NYgTB0z9TdcXjbSub1Xm7L2BWgLaPuYw4NiyssiDsxx5y8IvX4gjFI0AnHN56HdRtLeESbUNq98Xvyu5ZkxBWMJ6Ny58zLGGj7KrA+BfzLktuZj+mesWYJQnuDLWOFDns0Yb9ZnwlmrQgTBfJpd+rzGdru1nuDx3qz5Gr7GqW+TTAX9xGStss5rdXx52+cN+x/hQqXg9SGDoa5V6lqltQ6d2dHGd3JD6bD/T29vbY3G9T64Lpr+w4m/82rb4fB3MemLTDqd+DsvPjSm/F2ka5Xox0zfi4Kxro3j2W4ODZ4W5Da3Ew8OP5HOcR2iu+ZfO/F5cbojN9yduFb5cyhhoXHNi/WiyVmlymPW4KwFX9VvVrNK5UeJBQ6y+wlmwLB7DCZXYcIS5j+w24AnJgHhK7DpOJAxJQSzXyBjohnnDsEUG0yzderQXq5wh+YaaDfvRIWZ2TvvLEFLl33AmuN5ZEcCziay0lN1a/vNEENDHRruMBMHLV+YecPuX5h63r9/v+zIxRlbXJvFTCo02LALFoTdoGPffMMfNcwZY/ckC8X877ArdCfvqMWOQ9w/3bqV383cFCpU0NxGdK31eA3iBRP6/ocfZWfw+0uWUdPGjSQumAV7bfgw+mXXLjG9Aq18EPIEU8JOBBxGjxlHRW4rQR+vWE5Fi4a2UxbxhbMT1/r9UMPdUvQ2CYazU4PpkYcfklewF1+hfHneGb5PnkPBoWqVKv7dENh5m5J3dGBnNqgSm6RbueoTuYd5G9SD7LxT9zM2eQjKx2W7eMlS0Zo2WA0dPlI0DKFFZHbGiGf+ad60qdxCQxF1ghlmOsc7OaGViXNjYQIC9Xzvvuj0wyQYiAcCDttEznzDM8x+m53aPMF3TRd2eiBfuXgXezDl5Z24buTVptzCwg07cSMl7E5v2qQxPVa1BjVqUF/wCTWucHbiWuP8PsQdvG518fHq1SXK1GyaEP3hGjaVCQqlLqK/MKaG7uH6AzObxpwyypAXgGQ3TWzUxdYtW/jrfYOn6hELnMU8PuqsW12E6XDUbZi9B6HvW/1ZdBuBlrdXP51QdRHjlGnXkvAwfmJSF8P4jHpVBBwRCHcnrjWiUMIqj5cwPB54ig5syQH95tbNXwYc1WAtQ6f71v9v70ygrCrOPF4NLYthMcrmEhaPiBrnaGRGEx2VOcSggAKyqSxqHFSGgChbNzT7DhLcWFVWdRIhxt2TmVEQmInRyclE56jJjIxL1AyYiIAsQ/TN969Hva5+3FtV775H9+vu/8eh33v3VtWt+7t17/3qq6rvGz48s+vWm4ep+x54UMcGhZt+l74Cd76j77o7kxdfFs2fpz1suN77/fv1VZOnTldTxfOODLJo3X7i+HQ5ITqQfUCf7oy0oe9E17N9+NAh2uOOGA61xxC7Dq7vua7EtcsKzWt0CazOsQX9EhOa48orLte7PpC+CfR3V3/FlHFV9+766xni7hjutruLjgy9E5zAVCbT6f14n0OwWuZ/X0nHzewsrmuhV0LgyhZ9Osxsh549VHQylGME3jiMLoCVfreKN6bnX3hJ73bpPG3bttFejLDy1axGho6L/xBfvRo3bqTQ3rMFIXryEbiGRp/tF//0z+rmYUOVDHhrL0joW0BculHccZPqD9L9VP/1TroPEFd23PbQFbzQKR9du057tsIqMFvidFlffwVlhN63WEng0hn/6vzzddgPtD9494Frb3j9gsCrD8Sly7psEPnqskn79r57Sp+U408+uiyKnTRhnJpYNlmVTanI6XnoqBJ3FYhA6H0bdbiQvNTzql/PgxcSPA/Rb4ZglSCeSw8uW1HlMho7Fja6bD7muXdt7146P96fPcSb2SOPrtW/C2Ef0AVl/bHr53q3R9kYYRtACBB4MjTve3gAWyieBaFrmDyhz7Z8bJW5rMS1EYTmMzodbZW0Vdrt59jvKfWXvb85dnPAlq/2ha3gdbXFOP0u5N4O1e8K8Sxy6XcufTxf/S6prdJ3+fpf30/bW+0+dNnEcTqbq29n97uyj5G0j5tdDn+7CRzXgVy4SA4ZkI2qIvL6pEXzdEwkGIZkVWtmsAH5EM/TSJMmafd9MgNMb4IrYLgUgRuFsyW+Y+PG6QEykx4df+MmV6wDenOpFRPXpDPxrX66abPEyK188OFhIrPRdLKK8jK1bsNGBXdc6KD0vOZqNW/2LO02EwnsmLb4jQGTTz5Ju6uSWRDajS6MHOjIG6MQBnKRBvU025DXlrf+Mx2HCp1hI1BKTMxIxKeF0aIQAmXICI6BwWfjCgXxg3r1Sg8ivS8DmbfcNkK7/sWAOOJrQlLyzyVwSY3BXgjcjeYicJMcOihrl4t8ITJAHn6bn/q5VvqGDrkxkwXXxiiG2Nis2TdkAD7d/kI4NG5UGc+rRAbpTyi1f1carExbWS9tzBa0QRgYjDu65StXqxuGDNPGszkzp2sF26Rv3jztshi/TxFX2pDPZHJD69Zt1ChxqwhFFxMa4KYOA2TmeuE8elxV6XZYZzz6x1cvlHOexF87Vwxy2ZK597J3HP3tu6fsbOaet7edcELyxx5cTSJ2NgSxi3OR88RNcpLBXLhXDpG4toi8iEVnpKnEoZNFMPpnUFu04syWqBLVyIo1V1JS6Wrad81D2iLcJBpBO4BRCsZcuFVxtUWZqaRj4Zm89mfIc7qm2qLN0q5zyPd82mJI+UxDAj4CcJEcMiAbVQ7y+oQ6Xs3peBjIgCA+5Det53L2NYM+mi2IaWoEAywQPMeNsS9OX2nerLlMkBpksurPlielB8Fc7/3uMtnvS3HFj5g+GFhE2BRMpISEvHd0wqN/fLozkhk9Gt9d70Tsj5OdO9+P2+XcDhfJoQOy2QUhby6COv5117ShF/ngRsuIiTlrrr+rv5LJY+m12NZQJpYZsfU+vM8hdv8FvzFJEWKMxes2PKbDKWDgdvFCcTEo/TlIq1PSA5z6h/xBPF8zEdGl8xhdoU2b1iZrlU9fvdAfg/G6EGK4oiwYSwYPGqB+/vSzemIsJmouFje+EJ9upBNF/EmqP6BL3Pnc0xIN5sLVaoj8jUwQxLVH/OTDonPbsZPjdNkQDqH3rWkHcX17tNWfPrFRrZB+FULdwAYB16Njx4zOnF6cLosELhtEvrps0r69757KnJh8sdum2Z6PLosyzCSJXj3T9gJTLj9rngDu25AB2aiahtzz1POqX8/DcwbPCltai/0RNjtzf8OOZRvqXTYfU06V57O8D40Uwj5gyjKfUfXLxcZonvOtWlV194/QEQjNZyT02ZaPrRJukkMHZU298Il8IRJnH6KtMm1vj+2T1DtbZYkqbfGdRIO5cK8cInFtEXmrPD9oq9Q47TGlpLbK7OuSbRtHeEzosXYfGhMWIa6+nf1+yD5G0j5udjn87SZQ2Yt2p0u0F3Fu84mR6ztoy5Yt9MzNvv0HqdffeEOvAPXlQXBrDOIi1gsGVSELFt0rq77e8WU9Zj8GXfESXDR/ro5liARQgA4dOqxnt+F3AxkAxiw3xIw1fsZfeOklHQsX+xGg2xYYka7t3VNvEpe3ekbytIrJWpnCSgHMxIacJbOUcdMhDplZLSfuniUmxZ81B9yUiOtjrwBGRxez7iCY2Y3YZ9ly5x0j1MRx92RvzvxuKoPiOO6eL77QqzTwMHj7nXdlld/3M2mwOgIz2jBwiRn8bdukB4yf3LxZx7N6SVbVoh64Fus3PpbJF/flDZmdj9XKLz73dFyS2O2IdZs0Rm5sodYOxERCB1jcEmhDkrUr9mtSDlEFYpYSZMVDD+pYoPgOAw0Gkc1AMoxbiEOM7eLmW1VMn6lXTyAt5KOP/qBXvOD77ySmLOR0WTGxbfsOPYi7Y+srlTMTr+2r9+MPjGfZ9424jVCdOnXUKz2RxlWv2XPnR17/NY+s0u0G+aPEdU9BCbAVcGO8iyonyTawQkcHcQOyJ2H4ykOs26Qxcn1lY39daIvi7i/jBWHv3n3qw48+krh3Z8pM4F8522KXLmfrmb94/hrFAvF8sUIGg8G+53R9a4sh7YlpSMBHAHFu84mR6yufOl7163jmmrz95m/0IAXi3T7z1GatX8CjDQRGOTNo9t5775ksmU/oulh1CUFsRQjil355IB1L2aUX9Ot7nU6f/cf53pcO/6CB/bV+/HvRqTHoZUucDmR0JLtT69Od7XLz+f7K1q3aA8qU8kk5FYM4t/nEyA052M7fv6Pj0768ZYvmGpLH1V8JyW+nOeecLlq/NDFhsc/uv+A3vNb07XOdktALavTYcWr5ilXq/qVLsEu9K55qMMHUXN933/2deFNKGyVc+rfp0yH9mZ066bIwIRK/L5DJtL56YULxJZddrvPZfzBxFfFE4yTkvkI/Y/GSpUrCRehiuh31EuXTjeKOmY8uO2TElYlj5MbVx96OGIS//fXr6oKuF6udO/9HtwV7f9T3pByiyjLtwNW3P0lWWWPlxdzZM5W4ptQxxnr17Kn73SgzTpf12SDy1WWT9u1R57h7Cv1+eAUz8v4Hld/Ntnw/EWt99YplVfqm+ZbJ/IUhgNjWucbExpFNjFxfLajnVb+eh0n0a2SyjN1nlhBsuv9t+tDZ181l84la7GLnz8dWZd7jtp5ml22+u97tJg0+U0cnspvnPOyw5n1/+PBhJSEO9MQcO0/I93xslYh1mzRGbkjd6oJ9iLbKkCudTpOPftf0zPLEMXJDalgX2mKcfufTQ/PV75LaKn22cUyWhJdJjDGhD33D4IGZS5m0b5e0j5s5ML8EESgNSpUwUYdvdlDzey9OmDs8W8eOHWSFWXq1oy9XkyaNdZIPZUAGA5JwW4yOsXGh7MufvX+wGI8kJoRq3aqVHsDa+Pg/andf27e+rJrKbDS4YB004HpxgXyL2rdvvz6mmcmOsjCz+gpxUfa9Sy7RKzvffOstPTCMfZhFjpWoGDT9XNzFwT2dkTM7ddSd27LyCjVj2hS9+c5RY7SrlG/LSsdrru6hRoprvAsvvFBc8X5Xu2XGYONj69eqS+U3jrlty7+Y4jKfWBHhErOKVmL9qsEDB6pnnn1On5OdB+6hJfaXkni5esDc7GvRoqUeeP7sT5/pGdZLlt5vdjk/ERS9Q/v0THxnwoidjVp2Vmd08w8WR2QN3pQ9q9GXMSmHqHI7ycoTDHJPLJ+sYBDESvTps+bIKppdatNPHlc/eXKTXrEAgxhW2+7fnzak2qsfJCaKwipdie+kZs2Zp2BIheLcskV69cYHH36gV0I/+/wLWsE1Ew16iRttiX+iXSRfduml6jnZP23mLPXLHa8qX71wLmNGj1K3/fCWY07rlJOrzo60E0DJdt1T3z7vPIV7EO2+kaz+wMz3QspXX3+li8t1EBeZOrRqqBbclF5dVMg62WXV9ra4cPESvVIfbWCBuGjHIOzZnTurt4+kJ9rEtcXL//YyBffh9/74PnnWDteD7YNuHCoTCR7QZbie0zDI1be2aLcZfieBpATOOq2pWj+uc9Lswfmo41WfjoeLgokvWF2IgQyJraPuHjdBPbxqubxTG2l9A5MhkQaucJ974cXMREZzQWfPma9OfaidaiLebqBfwACIdxMG11z6ismf/el77yN93+uuUzcNu1lnXbms8r3v04GwelPiSiq8Q7B616c7Z9ct6W8YUL/1rTNyzn5yh2+oPovDZr7nXLiV4QwJcSHxSa0t7q+u/oo757F7EUoB7nUl/rK4Tb5Bu8u+Y+SPdFiMu0RvHDexTO2ViaAL5s9RBw8clL7VXnW6FZ4F/aYlS+8T97Y363AyK1atVgvnzdEH8unfmAQAHRrn3759ezV33gLpJ76lfvHi8zosiateJ4uOHdWvsvt8x56tCrqvMDECIVrQ34T3H9yfEJ+eHnU8bMtHlz29/Slq0pz+cUUXZDu89uAZ8/VRndtXaFIOceW6dMbdu3arHr2u1QOPcOGNPjrEXrkVp8uaQZI4G0S+umzSvr3rnjpXJlZgEvDa9RvUBTIpQeLRxWHLa/upp4at2M7rIMycM4HquN9RKep51afn4R07R95tsCsiXNR/y8TnpfJ9/D1jY9uHy+ZTKrYnl/hsQrnqaVHH8r3bzWq/bTt26In4WImL9/1MsXshzFcb8UKHQQu8W+EFMVfJx1bZ5bQu6qnxT+V6yJzS13b7EG2V4Zc7H/2uwYlnqWbnrwk/WIKUtb0txul3xWirxOUJsY3369tHDb5pqL6aK5dXjjcl7dsl7eMmaE71OstxHcitLrINJX6oBK/2Hg6DVzBEoUM/aXKFWiSdEcRpgs9x2z2wtyArQdnECeLC9qC6UQxIGBhGx/NecfGFwQEIjjVDjAIwSECwaqC35ToI8WPnL1ysB2xRF6wUNjG97hk7Rt12+0jV9eLv6byYfY64sugI4lxWr1yu7pEB027f76H3YyXBXaN/pL/3kBWyM6dPVRXTZsgq3T/pbXD9ZGL/YvbFiUdXTOidgX8wgDV7xjQZZFmintz0MwUf6IixUSL/jCBO8MAB/dWmzT8TA183s1kN7N9Px3FFXGMIWEDsvHpD1h/EVbNdsGXtrvGfpQ3TtxHcaZeWxt9Sxg1tUg5RJ4oB17WPinuv8ZNUt+4/0ElgKF26ZJH+PrD/9TquSY+evfXvdu3aqWUP3JdZtYj2itUqdhuaPWO6TosVCGifQ4bfqn9jVQHKNueBWfNTp5RroxfaGMpC+zUrsF31QoFw1+hy2agPmvUHrtFc99RIWVEON+cYYO7UsaNe8YL73CXGsGI+XWmx2h7nWawS2hYbNEjfr8XUFsF0kDw34GEBgrb28KoVulPla4swcmI2/4xZsxWMthB4F0BsB4jvOV0sbVFXVv7UhbZozoWfJJAvAep41afj2dcKbpFXr1ymrrq6l0xQXKVXKWAF2u0jR+lQDQijgZidf/g47QrXPLeg/13Tu48uqutFF2ldFT98+op9bPu7772PtNBDoUNjIiP0HCM+Hej2EbepEXf+g56JjFXIPt3ZlJvv54EvD6iGoscXq2CFTUi/ylxzV38l13PEgPoj8u6fJpMAzATWq3v8QN0yfJguqmzCOL0K97uXXaF/o43Zbm3RLv/jt2/q1bHQ1+AVCW0S4tN5yiaM1y7AjR4CPXL5Q+lJp756oX2blej6YDn8cd1Xphi4pPvla6+pfn3S9xa2+3Qjkzf7s9h1WdQXBnXU0yVGl03KIa5sl86I/n35pAmqvGKa7l+jjc2YVqE9Gxn38XG6LI7nskHkq8sm7du77qm/63alvn+wGgTP2LvvGq3e+PdfB+mp5vkQxxnbMREf9pPS0oauZNxXxwlQz6s+PQ/PGfOORVxcPMNgz4M+Fycum4957tl57Xvfp/vlqqfZxzHffe92TKjCggdMxnr5lS0KCxzM+77fgMG6GNi5ntiwTocRM+WGftJWGU8q3+uP9klbZdpuZ99XccSLXb+jrbL6bJVoIyG28a4XfUf3nbFgr13btpmmlbRvV+x93MwJ1vYve/fvS/n+SywFGVgvXpFB0pQYjVLiFiS4kkeOHEl9+umnKRl8C87jSohyxK1WSjokkclkoCslrm2r7JOVDqnHHn9C59m1a3eVfeYHyvv0j39MHTp0yGw65lM6QCn8jxPUq1DnaY6B8pKWCRbiXsoU5fyUJf4pcBKXYs50NblTVrKmOnU+JyWxkFN794adF+qbC4eQ85MJBak9e76ITIq2h+PZsuXVV1PnX9hVb0I+UcTt3Znv2B7XPpEIbdTV9l31yhwkwZeoe8oUg2MWWnCOkyum6fZY6LILVV5tbYv79u3T95C4NNLPuuy2avj42iLS/fnzz1N4vkeJ7zkdlSdkG9tiCCWmqW4C0N18+h32U8fzXxnfsyPqGVCbdTwfEd87Fu+iz/fsiS0mqV4QxRkHgU4JfUY8h0QeM0oHMgllImcK76BsOR66M/QliUOk6yrhK7IPWTS/X/vV6/qdvONf/y1Y1w/pr+R6gtBN49oarlm23iqrBVOjxozVh5G4zLG6ANqRqx8CHcLVfl31yvUc7fRx52qnifoeohuZfLVBl0Vdbxw6PDVhUrnuA5u6+z5z4eArC/tdz320d7QxPD+MhOqyITaImtBlo+4pc24ysaPKuZrt+XyivYtXNP2sieu/5lN+fchLPY+2vHzaOZ4zudjzfDYfX11cul8SPS37eCHvdjzLbMHz2KUP2GmjvtNWGUUleluu15+2ymiOcVtrg35HW2XN2CqT9i9y6dshbW3o48bdP8W6PU7PK97p4DmMkMPNFFyyjBX3b6GClZOYtY9ZQoUQlNNK3HTEzZTB0vQ491rI07p1q8hqYB9mRmBFQpxgBSz+xwnqVajzNMdAeUnLBIsWLdwunM1xZOBMs3HNEjRpa+oTM6Dv//G96glx0b112/bgauTCIaRQxB1GrJkoQdvD8eIE+TDjLUqwPa59Ij3aqKvtu+oVdbzQba57ysSCDi0rJN0ja9Zq19LTp6bdH4Xkqe40daEt4lkX11Z9bRG8sbo2bmW87zmd9HqxLSYlx3wk4CdAHa/6dTzfVfG9Y/EuMp5pospKqhdEPWuffuZZHaMS7lixojZKXDoQPNw0k9XH2XI8dOddu3dr18D9+/XVYU6yj1ksv+Gp6A5ZrYx+lUwmDapWSH8lqCArEXTTuLaGaxant6IIxMCL0wXQjlz9EORztV9Xvazq5/w17lx9BYXoRqaM2qDLoq5Tyst0rNmVqx42Vfd+5sLBW5gkcOmMaO9oY3aoGrtMly4bYoOoCV3WdU9hhXTcudrnncv3bdu3q0fXrFML5s6J7b/mUh7T1l4C1PNqRs/DcyYXe57P5uNrgS7dL4meln28kHe7CU1g8uJ57NIHTLq4T9oq48gcuz3p9UdJtFUeyzN7S23Q72irrBlbZdL+RS59u9rSx82+b2rr7xKsxvBVfu8eiT90+mm+ZNyfIwG4fL3k4ovVlRKvlkIC1U0AbrrXb9ioFosrcAoJ1CSBgwcPqQll5apcXNXzXVOTV4LHrksEPv74E9XipOjJPfZ5UsezaRTuO3W8wrF0lSQeW9Th/zusXe8mdW3rKp/7ag8BDOp/JqE+/v6Ht9aeSrOmdYYAddk6cylrzYlQz6vZS0U9r2b58+h1mwBtlXX7+tams6N+V5uuVt2qa5yex4HcunWdeTYkQAIkQAIkQAIkoOIUv2w0HMjNJsLfJEACJEACJEACJFDcBKjnFff1Ye1IgARIgARIgARIICmBOD2vTrhWTgqF+UiABEiABEiABEiABEiABEiABEiABEiABEiABEiABEiABEiABEiABEigGAlwILcYrwrrRAIkQAIkQAIkQAIkQAIkQAIkQAIkQAIkQAIkQAIkQAIkQAIkQAIkUK8JcCC3Xl9+njwJkAAJkAAJkAAJkAAJkAAJkAAJkAAJkAAJkAAJkAAJkAAJkAAJkEAxEuBAbjFeFdaJBEiABEiABEiABEiABEiABEiABEiABEiABEiABEiABEiABEiABEigXhPgQG69vvw8eRIgARIgARIgARIgARIgARIgARIgARIgARIgARIgARIgARIgARIggWIkwIHcYrwqrBMJkAAJkAAJkAAJkAAJkAAJkAAJkAAJkAAJkAAJkAAJkAAJkAAJkEC9JsCB3Hp9+XnyJEACJEACJEACJEACJEACJEACJEACJEACJEACJEACJEACJEACJEACxUiAA7nFeFVYJxIgARIgARIgARIgARIgARIgARIgARIgARIgARIgARIgARIgARIggXpNgAO59fry8+RJgARIgARIgARIgARIgARIgARIgARIgARIgARIgARIgARIgARIgASKkQAHcovxqrBOJEACJEACJEACJEACJEACJEACJEACJEACJEACJEACJEACJEACJEAC9ZpA0EBuSYMSdfDgwXoNiidPAiRAAiRAAiRAArWBAHQ26G4hQh0vhBLTkAAJkAAJkAAJkEBxEKCeVxzXgbUgARIgARIgARIggUITcOl5JXv370v5DviXI1/JQO4Blfram9RXFPeTAAmQAAmQAAmQAAkcRwIYnG3a9ERVekJD71Go43kRMQEJkAAJkAAJkAAJFA0B6nlFcylYERIgARIgARIgARIoKAGXnhc0kFvQ2rAwEiABEiABEiABEiABEiABEiABEiABEiABEiABEiABEiABEiABEiABEiABJ4Eg18rOEriTBEiABEiABEiABEiABEiABEiABEiABEiABEiABEiABEiABEiABEiABEigoAQ4kFtQnCyMBEiABEiABEiABEiABEiABEiABEiABEiABEiABEiABEiABEiABEiABPInwIHc/BmyBBIgARIgARIgARIgARIgARIgARIgARIgARIgARIgARIgARIgARIgARIoKAEO5BYUJwsjARIgARIgARIgARIgARIgARIgARIgARIgARIgARIgARIgARIgARIggfwJcCA3f4YsgQRIgARIgARIgARIgARIgARIgARIgARIgARIgARIgARIgARIgARIgAQKSuD/AZDRCzB7ZqzBAAAAAElFTkSuQmCC;" vertex="1" parent="1">
          <mxGeometry x="-30" y="90" width="1906" height="421" as="geometry" />
        </mxCell>
      </root>
    </mxGraphModel>
  </diagram>
</mxfile>
